<svg width="20" height="21" viewBox="0 0 20 21" fill="none" xmlns="http://www.w3.org/2000/svg">
<path d="M13.5672 8.55269C13.6253 8.61073 13.6714 8.67966 13.7029 8.75554C13.7343 8.83141 13.7505 8.91274 13.7505 8.99487C13.7505 9.07701 13.7343 9.15834 13.7029 9.23421C13.6714 9.31008 13.6253 9.37901 13.5672 9.43706L9.19219 13.8121C9.13415 13.8702 9.06522 13.9163 8.98934 13.9477C8.91347 13.9792 8.83214 13.9954 8.75 13.9954C8.66787 13.9954 8.58654 13.9792 8.51067 13.9477C8.43479 13.9163 8.36586 13.8702 8.30782 13.8121L6.43282 11.9371C6.31554 11.8198 6.24966 11.6607 6.24966 11.4949C6.24966 11.329 6.31554 11.17 6.43282 11.0527C6.55009 10.9354 6.70915 10.8695 6.875 10.8695C7.04086 10.8695 7.19992 10.9354 7.31719 11.0527L8.75 12.4863L12.6828 8.55269C12.7409 8.49458 12.8098 8.44848 12.8857 8.41702C12.9615 8.38557 13.0429 8.36938 13.125 8.36938C13.2071 8.36938 13.2885 8.38557 13.3643 8.41702C13.4402 8.44848 13.5091 8.49458 13.5672 8.55269ZM18.125 10.8699C18.125 12.4768 17.6485 14.0477 16.7557 15.3839C15.8629 16.72 14.594 17.7614 13.1093 18.3764C11.6247 18.9914 9.99099 19.1523 8.4149 18.8388C6.8388 18.5252 5.39106 17.7514 4.25476 16.6151C3.11846 15.4788 2.34463 14.0311 2.03112 12.455C1.71762 10.8789 1.87852 9.24522 2.49348 7.76057C3.10844 6.27592 4.14985 5.00697 5.486 4.11418C6.82214 3.2214 8.39303 2.74487 10 2.74487C12.1542 2.74715 14.2195 3.6039 15.7427 5.12714C17.266 6.65038 18.1227 8.71569 18.125 10.8699ZM16.875 10.8699C16.875 9.51013 16.4718 8.18092 15.7164 7.05033C14.9609 5.91974 13.8872 5.03855 12.631 4.5182C11.3747 3.99785 9.99238 3.8617 8.65876 4.12697C7.32514 4.39225 6.10013 5.04703 5.13864 6.00851C4.17716 6.97 3.52238 8.19501 3.2571 9.52863C2.99183 10.8622 3.12798 12.2446 3.64833 13.5008C4.16868 14.7571 5.04987 15.8308 6.18046 16.5862C7.31105 17.3417 8.64026 17.7449 10 17.7449C11.8227 17.7428 13.5702 17.0178 14.8591 15.7289C16.1479 14.4401 16.8729 12.6926 16.875 10.8699Z" fill="white"/>
</svg>
