<svg width="384" height="385" viewBox="0 0 384 385" fill="none" xmlns="http://www.w3.org/2000/svg">
<path d="M256.522 118.78C258.865 120.256 260.722 122.389 261.862 124.913C263.391 128.494 264.467 132.251 265.066 136.098C264.181 136.121 263.302 136.233 262.439 136.43C262.338 136.43 261.761 136.733 261.66 137.051C261.198 138.651 260.846 140.28 260.606 141.929L231.743 142.102C231.411 142.102 231.454 142.491 231.743 142.506C231.743 142.506 258.095 142.91 260.606 142.924C259.971 148.177 260.505 153.95 264.229 157.674C267.736 161.137 279.656 161.628 284.087 158.323C287.767 155.567 288.676 147.6 288.416 142.924C289.282 142.924 308.794 142.578 310.728 142.506C310.782 142.506 310.833 142.485 310.871 142.447C310.909 142.409 310.93 142.357 310.93 142.304C310.93 142.25 310.909 142.199 310.871 142.161C310.833 142.123 310.782 142.102 310.728 142.102C307.438 142.102 288.373 141.957 288.373 141.957C287.983 137.628 286.93 137.195 286.93 136.993C286.918 136.859 286.864 136.733 286.776 136.632C286.688 136.531 286.57 136.46 286.439 136.43C285.184 136.185 283.909 136.054 282.629 136.04C284.65 132.793 286.382 123.961 289.557 118.044C294.261 109.226 311.969 117.625 311.68 109.832C311.334 101.173 301.723 96.3096 291.404 100.899C281.605 105.228 279.05 125.433 278.877 135.983C275.919 135.983 277.347 136.069 273.104 135.983C276.813 131.047 281.532 114.595 280.71 103.093C279.768 95.4593 276.555 88.2848 271.488 82.4984C267.043 77.5194 261.833 75.4124 257.908 79.41C252.135 85.1827 257.446 91.6337 262.382 98.1713C267.808 105.387 269.843 108.981 270.579 119.256C270.924 124.831 270.817 130.425 270.261 135.983H268.659C269.9 131.927 268.299 122.994 267.13 118.794C265.455 112.863 262.598 106.888 258.066 102.775C252.713 98.1527 246.203 95.0745 239.233 93.8707C234.976 93.1491 231.339 93.4233 229.362 94.6067C228.635 94.9849 228.073 95.6186 227.785 96.386C227.498 97.1534 227.504 98 227.803 98.763C230.199 106.599 247.142 113.007 256.522 118.78ZM291.692 101.823C301.347 97.493 310.237 102.039 310.54 109.89C310.771 115.908 293.41 108.447 288.676 117.669C285.386 124.048 283.928 132.966 281.937 136.055H280.912C282.355 129.69 285.891 115.533 290.047 110.525C295.358 104.045 304.609 107.826 305.013 107.725C305.172 107.725 305.331 107.465 304.854 107.292C299.082 105.2 293.208 105.243 289.282 109.89C284.563 115.461 281.59 128.882 280.349 136.098H279.108C279.498 125.996 282.326 105.936 291.692 101.823ZM271.315 119.242C270.738 109.053 268.861 105.315 263.161 97.5941C258.485 91.3162 253.477 85.327 258.644 80.0883C262.165 76.5092 266.754 78.6451 270.738 83.1478C275.615 88.7938 278.691 95.7702 279.57 103.179C280.508 114.869 275.745 131.653 272.354 135.997H271.589C273.133 129.389 274.132 122.665 274.576 115.894C274.908 110.121 274.807 106.109 273.133 101.087C271.758 97.2627 269.848 93.6526 267.462 90.3637C266.322 88.7415 265.068 87.203 263.709 85.76C263.675 85.7179 263.625 85.6912 263.571 85.6858C263.517 85.6804 263.463 85.6967 263.421 85.7311C263.379 85.7656 263.352 85.8153 263.346 85.8695C263.341 85.9236 263.357 85.9777 263.392 86.0198C263.753 86.3975 264.091 86.7976 264.402 87.2176C268.905 92.9903 273.35 101.418 273.696 108.865C274.042 116.312 272.556 128.738 271.185 136.098H270.781C271.418 130.503 271.597 124.866 271.315 119.242ZM286.021 137.657C288.402 139.836 287.652 154.311 283.336 157.544C279.021 160.776 267.779 160.012 264.719 157.053C259.899 152.42 260.39 143.747 262.035 137.31C262.138 137.445 262.278 137.546 262.439 137.599C263.549 137.855 264.679 138.01 265.816 138.061C264.403 143.298 264.65 148.845 266.523 153.936C266.592 154.081 266.716 154.193 266.868 154.247C267.019 154.302 267.186 154.293 267.332 154.224C267.477 154.156 267.589 154.032 267.643 153.88C267.697 153.729 267.689 153.562 267.62 153.416C265.802 149.779 265.311 141.698 266.365 138.162C270.867 138.364 282.918 138.45 286.021 137.657ZM257.446 103.511C267.231 112.17 269.742 131.35 268.226 136.026H267.332C267.127 132.016 266.429 128.046 265.253 124.206C262.136 114.104 256.912 107.898 248.902 103.222C244.718 100.829 240.24 98.9905 235.582 97.7528C235.528 97.7394 235.471 97.7479 235.424 97.7763C235.377 97.8047 235.343 97.8508 235.329 97.9043C235.316 97.9579 235.324 98.0146 235.353 98.062C235.381 98.1094 235.427 98.1435 235.481 98.1569C240.919 99.8813 246.081 102.38 250.807 105.575C256.048 109.064 260.14 114.025 262.569 119.833C264.874 124.968 266.336 130.441 266.899 136.04H265.542C265.008 132.079 263.98 128.201 262.483 124.495C261.312 121.83 259.392 119.564 256.955 117.972C247.416 112.098 230.978 105.661 228.784 98.4455C226.749 91.8213 246.362 93.582 257.446 103.511ZM132.654 177.82C113.431 171.138 96.1995 168.151 85.4767 165.452C85.3439 165.415 85.2049 165.405 85.0681 165.423C84.9313 165.44 84.7995 165.485 84.6805 165.555C84.5616 165.625 84.458 165.718 84.3759 165.829C84.2938 165.94 84.235 166.066 84.2029 166.2C84.1708 166.335 84.1662 166.474 84.1892 166.61C84.2122 166.746 84.2625 166.876 84.337 166.992C84.4114 167.108 84.5086 167.208 84.6226 167.286C84.7366 167.363 84.8651 167.417 85.0004 167.444C91.8988 169.104 102.319 171.009 113.59 173.621C132.207 177.95 132.611 179.235 132.914 178.34C132.946 178.237 132.937 178.125 132.889 178.028C132.84 177.931 132.756 177.857 132.654 177.82ZM284.982 189.496C284.982 189.462 284.975 189.428 284.962 189.396C284.949 189.365 284.93 189.336 284.906 189.312C284.881 189.288 284.853 189.269 284.821 189.256C284.79 189.243 284.756 189.236 284.722 189.236C272.065 189.236 259.755 192.122 252.784 192.772C252.699 192.779 252.617 192.803 252.542 192.843C252.466 192.882 252.4 192.937 252.346 193.003C252.292 193.069 252.252 193.145 252.228 193.227C252.204 193.309 252.197 193.394 252.207 193.479C252.214 193.564 252.238 193.647 252.278 193.723C252.318 193.8 252.372 193.867 252.437 193.922C252.503 193.977 252.579 194.018 252.661 194.044C252.743 194.069 252.829 194.078 252.914 194.071C258.023 193.565 266.87 191.632 275.154 190.564C284.347 189.496 284.996 190.145 284.982 189.496ZM241.383 219.528C241.396 219.505 241.403 219.479 241.406 219.452C241.408 219.425 241.405 219.399 241.397 219.373C241.389 219.348 241.376 219.324 241.359 219.303C241.342 219.283 241.32 219.266 241.297 219.254L240.936 219.066L240.849 219.499C241.095 219.615 241.282 219.802 241.383 219.528Z" fill="#3C50E0"/>
<path d="M329.042 223.136C325.333 222.371 316.169 222.675 312.388 223.006C315.505 212.356 318.724 198.472 320.023 190.824C320.493 188.707 320.697 186.54 320.629 184.373C320.581 184.178 320.494 183.995 320.372 183.836C320.251 183.677 320.097 183.545 319.922 183.449C314.149 179.827 253.665 187.778 249.451 189.871C248.196 190.492 247.07 193.623 246.565 195.038C242.827 188.89 243.217 187.432 239.046 177.719C236.447 171.393 233.15 165.376 229.218 159.781C229.319 159.016 233.316 129.157 229.03 121.176C226.144 115.836 210.514 113.96 204.496 113.455C204.496 113.137 203.746 107.682 203.428 105.214C208.508 100.971 210.644 93.1637 205.131 91.8504C201.22 90.9267 185.778 87.9826 174.276 90.9556C167.06 92.8317 161.287 97.0458 160.797 105.387C160.603 108.555 160.797 111.734 161.374 114.855C153.913 115.677 141.068 116.904 134.516 119.372C126.088 122.547 129.638 159.42 130.533 162.407C130.043 163.62 129.581 164.846 129.162 165.986C108.164 160.632 61.1596 150.645 59.067 150.833C58.522 150.826 57.9837 150.955 57.5003 151.207C57.0168 151.458 56.6031 151.826 56.2961 152.276C55.7333 152.406 55.5312 153.2 55.4302 153.719C53.987 161.397 56.5992 207.247 57.061 215.026C57.8259 217.825 80.0653 223.901 82.9516 224.695C83.0959 228.491 83.8608 247.338 84.0196 251.206C82.764 250.977 81.5212 250.684 80.2962 250.326C77.7273 249.272 67.8848 258.855 68.7507 258.061C64.984 261.409 105.97 272.421 109.246 271.497C112.522 270.574 119.002 264.382 117.905 260.933C117.602 260.32 117.091 259.834 116.462 259.562C113.359 257.931 105.148 255.925 101.727 255.103C102.059 248.118 102.059 236.659 102.045 229.703C106.1 230.713 129.119 236.284 133.275 236.212C133.573 236.216 133.867 236.141 134.127 235.995C135.454 235.807 137.013 235.476 137.143 234.119C137.143 233.715 137.475 230.193 137.893 224.969C148.068 228.851 160.407 228.563 162.601 227.668C163.192 227.383 163.692 226.938 164.044 226.383C164.145 226.513 164.188 226.485 164.953 226.6C167.839 227.062 172.458 227.495 175.055 226.138C178.735 226.73 189.4 227.581 190.194 224.017C190.295 223.54 190.44 222.574 190.584 221.405C201.263 221.982 239.19 221.722 239.334 221.722L238.454 225.691C238.432 225.658 238.402 225.632 238.366 225.614C238.331 225.596 238.292 225.588 238.252 225.59C238.252 225.474 238.252 225.503 238.252 225.59C232.342 225.124 226.412 224.97 220.487 225.128C218.38 225.229 212.823 225.489 212.722 227.538C211.984 229.28 211.877 231.224 212.419 233.037C212.737 234.177 215.421 236.024 216.417 236.702C210.774 236.139 207.484 236.356 205.781 236.962C205.376 237.033 204.998 237.214 204.69 237.487C204.382 237.759 204.156 238.111 204.036 238.505C203.916 238.898 203.908 239.317 204.012 239.715C204.116 240.112 204.329 240.473 204.626 240.758C206.56 243.413 210.586 244.308 211.019 247.786C211.842 254.381 195.072 261.842 188.953 264.455C192.027 260.414 200.268 247.699 196.27 244.625C191.825 241.205 153.711 239.704 150.204 240.599C147.736 241.234 129.595 254.641 129.927 259.36C130.158 262.434 148.01 265.45 151.329 266.028C155.067 266.663 181.737 270.819 184.927 268.784C185.603 268.511 186.217 268.105 186.733 267.589C187.249 267.073 187.656 266.459 187.928 265.782C193.455 263.883 198.774 261.426 203.803 258.451C211.741 253.53 216.186 247.439 208.335 242.316C207.397 241.71 204.828 239.863 205.203 238.824C206.011 236.529 217.167 237.381 217.326 237.381C222.507 240.758 232.422 245.967 238.267 247.483C244.443 249.114 273.307 245.953 280.277 245.073C281.071 247.959 281.836 250.643 282.341 252.289C281.259 252.375 278.17 252.649 277.304 253.328C276.828 253.703 276.843 254.338 277.608 254.771C277.608 259.605 277.016 274.066 278.459 280.589C279.007 283.028 279.642 284.038 282.168 284.919C286.945 286.463 296.124 285.915 300.929 284.63C303.917 283.822 304.306 283.187 304.783 281.6C306.428 276.202 306.341 260.269 306.226 254.612C306.318 254.545 306.393 254.457 306.445 254.356C306.497 254.254 306.524 254.142 306.524 254.028C306.524 253.914 306.497 253.801 306.445 253.699C306.393 253.598 306.318 253.51 306.226 253.443C305.158 252.948 304.008 252.655 302.834 252.577C303.036 250.961 304.119 241.927 304.278 240.339C305.032 239.887 305.705 239.311 306.269 238.636C307.151 237.564 307.725 236.272 307.929 234.898C309.372 233.008 311.45 225.951 312.128 223.641C318.565 223.916 328.003 223.54 328.884 223.641C328.951 223.663 329.023 223.656 329.086 223.624C329.148 223.591 329.195 223.535 329.216 223.468C329.237 223.401 329.23 223.329 329.198 223.266C329.165 223.204 329.109 223.157 329.042 223.136ZM133.968 254.28C134.935 253.212 136.075 252.101 137.287 250.975C142.439 246.213 148.991 241.421 150.42 241.061C153.884 240.166 191.926 242.504 195.794 245.39C196.443 245.881 196.573 246.833 196.443 247.973C195.924 252.505 191.19 259.981 188.434 263.632C185.316 260.948 138.095 254.843 133.968 254.28ZM204.684 114.494C210.197 115.013 225.653 116.788 228.309 121.609C232.061 128.392 229.752 151.526 228.828 159.131C228.02 158.049 227.183 157.024 226.331 156.086C221.439 150.718 213.04 148.019 205.925 146.648C201.354 145.852 196.744 145.308 192.114 145.017C191.969 145.017 192.2 145.234 191.06 142.896C189.357 139.389 189.256 139.446 189.429 139.345C191.322 139.245 193.196 138.925 195.014 138.393C199.892 136.95 202.793 134.063 204.164 127.049C204.909 122.892 205.064 118.651 204.626 114.451L204.684 114.494ZM192.258 145.464C193.167 145.594 193.413 145.58 193.485 145.623C193.485 145.984 196.645 162.941 185.821 163.721C176.874 164.457 170.986 151.901 167.811 143.516C168.965 143.329 169.889 143.199 170.509 143.112C170.812 149.693 180.28 161.628 185.533 160.791C191.435 159.824 194.336 150.848 192.258 145.464ZM170.711 118.91C170.841 118.266 171.129 117.665 171.55 117.161C171.971 116.657 172.511 116.266 173.121 116.024C176.008 115.316 176.008 118.91 178.302 118.708C181.189 118.52 177.971 111.824 180.453 107.74C183.152 103.237 194.091 112.344 202.938 105.589C204.005 113.195 205.174 119.112 203.544 126.876C202.1 133.688 199.416 136.199 194.784 137.556C192.88 137.994 190.952 138.322 189.011 138.537C188.856 138.625 188.726 138.75 188.632 138.901C188.539 139.053 188.486 139.225 188.477 139.403C188.477 139.908 189.92 142.492 191.262 145.508C193.268 150.241 190.656 158.843 185.374 159.665C181.622 160.257 174.276 151.843 172.183 145.897C171.26 143.271 171.534 143.17 173.165 132.909C175.459 133.068 175.936 128.579 176.051 126.256C176.075 125.763 175.904 125.281 175.575 124.914C174.536 123.773 173.684 125.101 171.664 122.576C171.223 122.086 170.906 121.497 170.741 120.859C170.575 120.221 170.565 119.553 170.711 118.91ZM161.576 115.894C163.51 124.726 168.59 130.859 172.082 132.562C171.447 136.618 170.726 141.135 170.538 142.506C162.211 142.924 153.998 144.628 146.192 147.557C142.725 148.884 139.495 150.76 136.623 153.113C135.036 144.887 139.12 128.81 138.615 124.25C138.384 122.316 137.836 120.267 135.945 119.848C142.411 117.813 154.389 116.659 161.576 115.894ZM135.079 120.223C135.424 120.235 135.763 120.316 136.076 120.463C136.388 120.609 136.668 120.817 136.898 121.075C137.548 122.057 137.876 123.217 137.836 124.394C138.153 128.724 133.665 144.685 136.19 153.532C133.758 155.813 131.915 158.651 130.822 161.801C129.667 154.773 127.748 122.778 135.079 120.223ZM83.2258 185.974C83.3413 185.296 84.5824 184.993 85.2607 184.878C90.2685 184.055 100.674 186.913 100.443 190.391C100.097 195.543 101.684 257.975 100.327 260.269C98.7111 263.026 89.8789 261.496 86.3575 259.043C84.7556 257.931 84.7845 256.979 84.8278 257.167C83.6011 208.026 83.0238 187.1 83.2258 185.974ZM116.679 261.409C117.415 263.863 111.628 269.506 108.943 270.256C106.259 271.007 66.687 260.76 69.2703 258.422C68.0725 259.504 75.7069 252.476 79.0695 251.35C79.3375 251.217 79.6438 251.181 79.9354 251.249C80.325 251.423 81.8548 251.812 84.0629 252.332C84.1928 255.377 84.2793 257.181 84.2793 257.181C85.1308 261.424 98.7111 264.628 101.078 260.717C101.44 259.331 101.634 257.906 101.655 256.474C103.863 257.022 115.192 259.779 116.679 261.409ZM133.275 234.985C129.48 235.129 105.855 229.587 102.045 228.693C101.973 211.779 101.626 192.815 101.8 190.477C102.146 185.166 88.6377 182.28 83.8753 183.839C83.4033 183.942 82.9696 184.175 82.6229 184.512C82.2761 184.848 82.0302 185.275 81.9125 185.744C81.595 187.663 82.8362 221.823 82.9083 223.872C80.5559 223.237 58.5186 217.364 57.6094 215.011C57.3641 209.7 55.0117 158.352 56.6858 153.489C64.5367 155.451 131.587 168.974 136.306 172.25C137.489 175.497 134.791 230.396 133.275 234.985ZM136.667 234.133C136.667 235.1 135.382 235.432 134.43 235.577C135.988 231.839 139.091 174.963 137.504 171.615C135.916 168.267 63.512 154.196 56.7435 152.305C57.0445 151.979 57.411 151.721 57.8189 151.547C58.2268 151.373 58.6669 151.287 59.1103 151.295C61.1163 151.151 135.151 167.689 139.452 170.056C140.174 172.134 139.452 186.609 139.351 188.991C139.091 194.735 136.724 233.354 136.667 234.133ZM175.633 224.363C173.944 226.614 167.955 226.34 165.141 226.08H164.448C165.732 223.499 166.46 220.677 166.584 217.797C168.027 217.393 173.309 216.166 174.117 217.465C174.363 217.84 173.583 218.287 173.179 218.504C172.112 218.999 170.994 219.376 169.845 219.629C169.675 219.662 169.525 219.761 169.427 219.904C169.33 220.048 169.293 220.224 169.326 220.394C169.358 220.565 169.457 220.715 169.601 220.812C169.744 220.91 169.92 220.946 170.091 220.914C171.534 220.712 175.474 220.163 176.874 220.64C176.297 221.44 175.469 222.024 174.521 222.299C173.172 222.29 171.824 222.401 170.495 222.631C170.303 222.667 170.132 222.773 170.013 222.927C169.894 223.082 169.836 223.275 169.851 223.469C169.865 223.664 169.95 223.846 170.09 223.982C170.23 224.117 170.415 224.196 170.61 224.204C172.076 224.247 173.539 224.047 174.94 223.613C175.305 223.628 175.663 223.716 175.993 223.872C175.901 224.067 175.762 224.235 175.589 224.363H175.633ZM189.285 223.858C189.224 224.083 189.109 224.289 188.951 224.46C188.793 224.631 188.595 224.761 188.376 224.839C185.706 226.282 178.966 226.023 175.964 225.72C177.076 224.868 177.725 223.483 176.599 222.718C178.822 221.275 178.591 219.73 177.133 219.283C176.189 219.054 175.214 218.986 174.247 219.081C175.156 218.403 175.488 217.638 174.94 216.815C174.146 215.69 172.053 215.834 170.755 216.05C170.137 210.337 169.819 204.595 169.802 198.848C173.655 201.647 186.428 201.734 190.887 199.079C191.103 203.928 189.646 221.751 189.227 223.858H189.285ZM176.903 220.582C176.903 220.582 176.859 220.611 176.859 220.582H176.903ZM207.873 220.899C210.543 213.092 210.918 196.553 210.76 188.284C212.996 191.877 225.191 209.109 225.278 209.253C225.574 209.706 225.923 210.123 226.317 210.494C229.225 213.152 232.489 215.391 236.015 217.147C239.782 219.139 240.085 219.038 240.056 219.196L239.551 221.361C239.306 221.347 210.081 220.899 207.83 220.899H207.873ZM214.093 227.379C217.196 225.215 238.295 226.196 238.526 226.052V226.21C236.506 235.88 235.727 239.372 235.481 240.642C235.611 240.079 236.405 236.313 237.314 232.142C237.949 229.082 238.757 225.445 239.58 221.592C239.955 219.831 240.2 218.706 240.215 218.619C236.26 216.527 230.228 212.919 227.067 209.729C226.274 208.921 210.933 187.663 210.788 187.418C210.644 187.172 210.644 180.837 210.485 180.548C210.455 180.515 210.415 180.493 210.372 180.483C210.328 180.474 210.283 180.478 210.242 180.496C210.201 180.513 210.166 180.543 210.143 180.58C210.119 180.618 210.108 180.662 210.11 180.707C209.966 180.707 210.11 211.562 207.44 220.856L190.815 221.015C190.916 220.207 191.017 219.269 191.132 218.258C197.829 219.11 200.874 211.764 199.099 205.775C198.045 202.484 195.332 201.979 192.229 203.567C192.373 201.645 192.373 199.716 192.229 197.794C192.363 197.462 192.386 197.096 192.295 196.751C192.204 196.405 192.004 196.098 191.724 195.875C189.574 193.854 183.556 193.638 180.626 193.638C177.696 193.638 171.664 193.869 169.528 195.875C169.341 196.019 169.192 196.208 169.095 196.423C167.998 198.4 170.105 215.733 170.365 216.108C169.108 216.358 167.869 216.691 166.656 217.104V214.795C166.569 209.758 150.464 206.958 149.915 204.086C149.728 203.105 149.424 200.911 149.078 198.314C147.13 184.055 147.418 184.603 147.101 184.603C147.047 184.603 146.996 184.625 146.958 184.663C146.92 184.701 146.899 184.752 146.899 184.806C146.899 185.195 148.458 200.897 149.02 204.231C149.583 207.564 165.574 210.797 165.646 214.795C165.646 217.912 164.953 225.647 162.254 226.759C160.624 227.451 148.01 228.086 137.951 224.551C138.168 221.751 142.18 171.629 140.246 169.407C139.51 168.555 130.865 166.391 129.768 166.116C134.098 156.303 137.302 148.221 167.406 143.502C168.243 146.304 169.265 149.047 170.466 151.713C173.526 158.251 178.707 165.308 185.879 164.702C194.12 163.995 195.447 155.062 194.134 146.908C194.048 146.33 193.961 145.955 193.889 145.623C197.849 146.019 201.784 146.626 205.68 147.442C212.477 148.885 220.833 151.627 225.494 156.793C230.531 162.335 234.933 170.893 238.021 177.734C242.466 187.576 242.437 190.116 246.262 195.788C243.572 204.274 241.318 212.891 239.508 221.607C238.93 224.305 238.064 228.418 237.242 232.156C236.044 237.929 235.322 241.58 235.395 240.815C235.265 241.595 235.395 241.566 235.395 241.753C230.69 239.655 226.15 237.204 221.814 234.422C220.299 233.412 212.564 228.462 214.093 227.35V227.379ZM192.114 206.511C192.114 205.76 192.2 205.068 192.229 204.346C194.841 203.293 197.165 203.451 197.872 206.179C199.315 211.129 197.035 217.724 191.219 217.724C191.219 217.032 191.464 215.055 191.493 214.838C198.132 215.733 198.088 203.581 192.114 206.511ZM191.551 214.217C191.753 211.937 191.926 209.527 192.07 207.261C192.761 207.048 193.501 207.048 194.192 207.261C195.909 207.882 195.635 213.842 191.479 214.217H191.551ZM238.757 246.242C233.204 244.425 227.831 242.096 222.709 239.286C221.266 238.521 213.79 234.451 213.285 232.878C212.849 231.473 212.804 229.976 213.155 228.548C215.089 232.315 227.356 238.651 231.296 240.512C233.1 241.363 234.961 242.087 236.867 242.677C243.534 245.058 272.138 241.234 279.166 240.368C279.253 240.671 279.859 242.994 280.09 243.832C273.971 244.539 244.501 247.757 238.685 246.242H238.757ZM303.238 282.538C301.131 284.327 288.489 285.828 282.529 283.981C280.364 283.302 279.931 282.61 279.412 280.416C278.938 278.036 278.639 275.624 278.517 273.2C281.475 275.019 286.902 275.48 290.38 275.581C295.618 275.697 300.771 275.581 304.985 273.2C304.898 274.73 304.407 281.542 303.238 282.538ZM305.028 272.637C302.181 273.855 299.119 274.489 296.023 274.499C291.895 274.701 282.226 274.672 278.488 272.681C278.329 269.967 278.228 267.067 278.185 264.368C279.628 266.1 287.32 266.879 290.394 266.98C295.878 267.096 300.973 266.98 305.36 264.382C305.36 264.238 305.317 267.658 305.042 272.637H305.028ZM305.36 263.877C298.144 267.514 280.234 265.869 278.17 263.877V255.002C282.76 256.633 300.9 256.517 305.446 255.002C305.418 256.661 305.432 260.038 305.374 263.877H305.36ZM302.474 254.165C302.525 254.179 302.58 254.174 302.628 254.15C302.676 254.126 302.714 254.085 302.733 254.035C302.733 254.035 302.733 253.775 302.82 253.313C303.75 253.441 304.667 253.649 305.562 253.934C302.401 255.377 283.38 255.507 278.632 254.107C278.6 254.097 278.572 254.077 278.552 254.049C278.532 254.022 278.521 253.989 278.521 253.955C278.521 253.922 278.532 253.889 278.552 253.861C278.572 253.834 278.6 253.814 278.632 253.804C279.955 253.444 281.307 253.203 282.673 253.082C282.769 253.484 282.914 253.872 283.106 254.237C283.222 254.352 283.409 254.367 283.395 254.078C283.38 253.789 278.647 235.1 277.925 230.987C278.663 231.233 279.45 231.295 280.217 231.167C280.985 231.038 281.709 230.724 282.327 230.251C283.914 234.696 288.98 254.699 289.283 254.699C289.338 254.695 289.389 254.671 289.427 254.63C289.464 254.59 289.485 254.537 289.485 254.482L289.066 252.534H291.058C291.058 252.808 291.217 254.208 291.231 254.309C291.246 254.41 291.664 254.655 291.635 254.121C291.635 252.823 290.423 231.305 290.394 230.915C290.602 230.815 290.819 230.738 291.044 230.684C291.202 231.464 296.282 252.043 296.672 253.645C296.672 253.789 296.672 254.035 296.946 253.977C297.22 253.919 297.105 253.66 296.946 252.722L299.154 252.88V253.126C299.154 253.357 299.515 253.299 299.558 253.126C299.558 253.284 302.243 225.59 302.445 223.382C302.825 223.67 303.262 223.874 303.728 223.981C304.193 224.088 304.675 224.095 305.143 224.002C305.115 224.219 302.156 254.064 302.459 254.165H302.474ZM289.485 225.474C289.314 224.086 288.707 222.788 287.753 221.765C289.73 222.357 290.149 222.79 290.639 224.147C291.03 225.227 291.134 226.391 290.943 227.524C290.747 228.237 290.747 228.99 290.943 229.703C290.706 229.757 290.475 229.83 290.25 229.919C289.355 227.365 287.363 227.394 287.363 224.825C287.361 223.896 287.225 222.973 286.959 222.083C287.658 223.349 288.424 224.578 289.254 225.763C289.398 225.951 289.673 225.676 289.499 225.474H289.485ZM290.207 243.687C290.279 244.394 290.842 250.528 290.986 252.087H288.922C288.489 250.138 287.84 247.252 287.104 244.163L290.207 243.687ZM290.12 242.576L286.829 243.009C286.541 241.811 286.238 240.599 285.935 239.401C287.262 239.213 288.561 239.011 289.817 238.809C289.875 239.43 290.077 241.941 290.134 242.576H290.12ZM294.608 241.912C294.377 240.815 293.814 238.333 293.771 238.189C295.027 237.972 299.299 237.236 300.179 237.063C300.179 237.684 299.934 240.31 299.876 240.974C298.476 241.277 296.686 241.595 294.579 241.912H294.608ZM299.818 241.912C299.558 245.65 299.154 251.899 299.14 252.245C298.389 252.245 297.596 252.216 296.759 252.159C296.412 250.412 294.926 243.413 294.825 242.937C296.773 242.547 298.447 242.201 299.833 241.869L299.818 241.912ZM302.575 222.184C302.751 220.355 303.035 218.538 303.426 216.743C303.811 216.628 304.217 216.6 304.614 216.662C305.012 216.725 305.39 216.876 305.721 217.104C305.634 218.918 305.441 220.725 305.143 222.516C305.014 223.021 304.985 223.151 304.653 223.194C304.003 223.237 302.69 222.689 302.589 222.141L302.575 222.184ZM304.465 239.387C304.595 238.319 304.725 237.236 304.84 236.154C305.695 235.975 306.535 235.728 307.351 235.418C306.897 237.029 305.877 238.422 304.48 239.343L304.465 239.387ZM306.875 234.22C306.266 234.462 305.639 234.655 304.999 234.797C305.259 232.373 306.789 218.258 306.789 217.263C306.789 215.819 304.22 215.285 302.892 215.819C302.445 216.021 302.315 216.873 302.185 217.623C301.463 221.65 300.612 231.694 300.28 235.779L293.511 237.02C291.823 229.66 291.967 230.064 291.78 229.876C291.651 229.753 291.481 229.681 291.303 229.674C291.17 229.031 291.205 228.365 291.404 227.74C291.703 226.492 291.663 225.187 291.289 223.959C291.097 223.066 290.583 222.275 289.846 221.736C288.671 221.114 287.404 220.685 286.093 220.466C286.025 220.448 285.953 220.446 285.883 220.461C285.813 220.476 285.748 220.507 285.693 220.553C285.638 220.598 285.595 220.655 285.566 220.721C285.538 220.786 285.526 220.857 285.531 220.928C285.561 221.051 285.6 221.171 285.646 221.289C286.772 223.973 285.992 225.2 286.772 226.802C287.551 228.404 288.864 228.649 289.341 230.497C289.341 230.641 289.745 237.308 289.759 237.712L285.675 238.362C285.386 237.265 283.409 229.457 282.63 228.693C281.187 227.249 277.059 228.866 276.857 230.136C276.727 230.857 278.704 238.593 278.892 239.329C271.46 240.411 263.58 241.393 256.609 242.042C253.564 242.316 234.962 244.019 236.001 240.974C237.444 234.307 240.33 222.068 240.908 219.5V219.298C240.908 219.081 241.009 218.865 240.908 219.5C240.908 219.283 240.994 219.153 241.023 219.081L244.631 205.125C245.107 203.408 248.383 191.733 250.043 190.91C253.723 189.092 314.207 181.27 319.315 184.69C320.181 188.399 309.545 232.459 306.89 234.234L306.875 234.22Z" fill="#3C50E0"/>
<path d="M189.963 118.145V117.034C189.963 116.854 189.892 116.681 189.765 116.554C189.638 116.427 189.465 116.355 189.285 116.355C189.104 116.355 188.93 116.426 188.8 116.553C188.671 116.68 188.596 116.852 188.592 117.034V118.333C188.624 118.504 188.721 118.657 188.863 118.759C189.005 118.861 189.18 118.904 189.353 118.88C189.526 118.856 189.683 118.766 189.791 118.629C189.9 118.492 189.951 118.319 189.935 118.145H189.963ZM282.197 206.958C281.778 206.554 281.187 206.078 280.638 206.251C279.729 206.54 278.82 208.849 278.43 209.801C277.336 212.644 276.467 215.568 275.833 218.547C276.424 220.077 286.411 218.071 287.768 217.407C288.201 217.205 288.143 216.685 287.999 216.223C286.57 212.846 284.612 209.718 282.197 206.958ZM276.222 218.359C276.482 217.161 279.772 207.983 280.898 207.146C282.644 208.142 286.151 214.261 287.089 216.57C285.79 217.089 276.973 219.326 276.222 218.359ZM158.719 248.969C158.574 249.07 155.428 251.062 155.284 251.206C155.25 251.22 155.22 251.244 155.2 251.275C155.179 251.306 155.168 251.342 155.168 251.379C155.168 251.416 155.179 251.452 155.2 251.483C155.22 251.514 155.25 251.538 155.284 251.552C156.092 251.783 158.791 252.086 159.613 252.173C179.356 247.223 179.486 247.223 179.241 247.223C179.373 247.205 179.494 247.136 179.577 247.031C179.661 246.926 179.7 246.793 179.688 246.66C179.688 246.415 179.298 244.712 179.183 244.192L158.719 248.969ZM196.963 112.112C197.367 112.112 198.161 112.3 198.319 112.314C199.195 112.405 200.064 112.56 200.917 112.776L202.216 113.007C202.265 113.02 202.318 113.014 202.363 112.992C202.409 112.969 202.445 112.932 202.466 112.885C202.487 112.839 202.49 112.786 202.476 112.737C202.462 112.688 202.431 112.646 202.389 112.618C201.636 111.98 200.723 111.56 199.748 111.405C198.783 111.198 197.778 111.284 196.862 111.651C196.831 111.657 196.803 111.67 196.777 111.688C196.752 111.705 196.73 111.728 196.713 111.754C196.697 111.78 196.685 111.809 196.68 111.84C196.674 111.87 196.675 111.902 196.681 111.932C196.688 111.962 196.701 111.991 196.718 112.017C196.736 112.042 196.759 112.064 196.785 112.081C196.811 112.097 196.84 112.109 196.871 112.114C196.901 112.12 196.932 112.119 196.963 112.112ZM185.533 113.382C185.922 113.296 186.76 113.166 186.976 113.137C187.851 112.946 188.738 112.821 189.631 112.762L191.075 112.603C191.132 112.603 191.187 112.58 191.228 112.54C191.268 112.499 191.291 112.444 191.291 112.387C191.291 112.329 191.268 112.274 191.228 112.234C191.187 112.193 191.132 112.17 191.075 112.17C190.144 111.776 189.124 111.644 188.124 111.789C187.124 111.934 186.183 112.35 185.403 112.993C185.369 112.993 185.335 113.001 185.304 113.017C185.274 113.032 185.247 113.055 185.227 113.083C185.207 113.111 185.194 113.143 185.189 113.177C185.184 113.211 185.187 113.245 185.198 113.278C185.208 113.31 185.227 113.34 185.251 113.364C185.276 113.388 185.306 113.406 185.338 113.416C185.371 113.426 185.406 113.428 185.44 113.423C185.473 113.417 185.505 113.403 185.533 113.382ZM199.965 115.894C199.785 115.894 199.612 115.965 199.485 116.092C199.358 116.219 199.286 116.392 199.286 116.572V117.871C199.311 118.051 199.407 118.213 199.551 118.323C199.696 118.433 199.879 118.48 200.058 118.455C200.238 118.43 200.401 118.335 200.511 118.19C200.62 118.045 200.668 117.863 200.643 117.683V116.572C200.645 116.482 200.629 116.393 200.595 116.31C200.562 116.227 200.512 116.151 200.449 116.088C200.385 116.024 200.31 115.975 200.227 115.941C200.143 115.908 200.054 115.892 199.965 115.894ZM87.9595 241.19C89.9655 241.84 94.6414 243.586 96.7917 243.326C97.0515 243.326 97.3401 243.066 97.5278 242.605C98.9709 239.358 97.9319 222.848 97.4123 219.658C97.0515 217.363 88.7532 214.52 86.7472 216.151C85.4484 217.205 86.0978 229.428 86.2421 231.131C86.6173 235.244 86.2277 240.628 87.9595 241.19ZM87.3966 216.916C88.9553 215.79 96.1856 218.46 96.4165 219.802C96.7773 222.068 98.1195 241.118 96.6763 242.605C94.8146 242.879 89.8789 241.364 88.0172 240.786C86.7039 240.353 87.1513 234.609 86.9348 231.059C86.8338 228.664 86.6751 219.153 87.3966 216.916ZM189.949 126.79C189.913 126.772 189.874 126.763 189.833 126.763C189.793 126.763 189.754 126.772 189.718 126.79C189.357 126.919 189.141 127.324 189.083 127.915C189.036 129.444 189.55 130.938 190.526 132.115C190.755 132.427 191.045 132.691 191.377 132.889C191.71 133.087 192.08 133.216 192.463 133.269C192.847 133.321 193.238 133.296 193.611 133.195C193.985 133.093 194.335 132.917 194.639 132.678C195.509 131.962 196.193 131.046 196.631 130.008C196.67 129.927 196.691 129.838 196.691 129.748C196.691 129.658 196.67 129.569 196.631 129.488C196.183 128.796 195.116 129.777 189.949 126.79ZM189.819 127.28C191.387 128.615 193.222 129.6 195.202 130.167C192.114 135.42 189.011 128.334 189.819 127.28ZM193.355 123.889C194.278 124.062 196.833 123.744 197.381 122.806C197.656 122.359 197.381 122.215 196.775 120.367C196.229 118.763 195.588 117.192 194.856 115.663C194.596 115.259 194.264 115.663 194.452 115.908C194.853 118.121 195.491 120.283 196.357 122.359C195.312 122.848 194.243 123.281 193.153 123.658C193.151 123.686 193.155 123.715 193.164 123.742C193.173 123.769 193.187 123.794 193.206 123.815C193.225 123.837 193.247 123.854 193.273 123.867C193.299 123.88 193.326 123.887 193.355 123.889ZM246.579 273.965C251.991 270.53 247.777 267.37 244.198 268.871C243.318 267.269 243.116 267.139 241.312 267.225C231.945 267.702 189.646 277.486 189.242 277.645C187.106 278.525 192.532 291.269 194.683 292.943C195.173 293.318 195.015 293.39 200.311 292.351C200.657 295.497 202.028 301.01 205.232 301.183C206.725 300.91 208.179 300.454 209.562 299.827C212.238 302.489 215.087 304.972 218.091 307.259C221.41 309.482 242.625 284.702 245.8 281.816C246.709 281.513 247.517 281.311 247.416 279.059C250.158 278.554 252.28 276.866 250.822 274.441C249.841 272.969 248.138 273.2 246.579 273.965ZM247.084 270.04C247.676 270.256 247.979 270.487 247.792 271.079C247.403 271.983 246.833 272.798 246.117 273.474C245.735 272.3 245.287 271.149 244.775 270.025C245.522 269.756 246.341 269.761 247.084 270.04ZM231.729 269.563C232.263 272.089 232.624 273.46 233.302 275.783L223.301 277.674C222.725 275.586 222.056 273.525 221.295 271.497C223.185 271.136 230.185 269.823 231.729 269.563ZM216.936 288.83C217.466 290.643 218.248 292.372 219.26 293.967C216.489 295.31 213.877 296.536 211.654 297.546C210.857 295.126 209.736 292.825 208.321 290.706L216.936 288.83ZM212.852 288.83C212.364 286.322 211.748 283.841 211.005 281.397L222.55 278.901C223.18 281.345 223.941 283.754 224.831 286.117C220.862 286.954 216.72 287.892 212.852 288.772V288.83ZM217.658 288.902C217.499 288.671 216.518 289.017 227.14 286.578C227.327 287.651 227.725 288.676 228.309 289.595L219.852 293.736C219.35 292.012 218.611 290.366 217.658 288.844V288.902ZM227.76 286.42C233.244 285.15 238.281 283.937 241.759 283.014L229.016 289.234C228.78 288.209 228.359 287.236 227.775 286.362L227.76 286.42ZM225.321 285.972C224.858 283.51 224.271 281.073 223.561 278.67L233.417 276.245C233.417 276.317 234.081 278.54 234.384 279.492C234.529 279.925 235.755 283.418 235.828 283.475C232.84 284.139 225.552 285.857 225.307 285.914L225.321 285.972ZM220.862 271.641C221.338 274.268 221.785 275.971 222.305 277.934L210.76 280.474C210.081 278.179 209.619 276.678 208.624 274.08C210.875 273.561 219.13 271.916 220.876 271.584L220.862 271.641ZM208.147 274.167C208.71 277.053 209.129 278.569 209.735 280.705C208.768 280.921 200.874 282.898 200.874 282.898C200.585 282.898 200.701 283.346 200.989 283.288C200.989 283.288 209.547 281.7 209.98 281.599C209.98 281.599 210.601 284.082 212.376 288.945L203.067 291.023C201.736 285.989 200.063 281.052 198.06 276.245L208.147 274.167ZM195.087 292.452C192.893 290.807 187.871 278.684 189.386 278.02C189.386 278.02 192.691 277.299 197.656 276.26C198.893 281.317 200.544 286.265 202.591 291.052C195 292.755 195.332 292.582 195.101 292.394L195.087 292.452ZM205.189 300.13C202.75 300.13 201.292 294.862 200.859 292.467C200.859 292.192 200.094 292.466 207.642 290.893C208.018 290.821 207.426 290.72 209.23 294.473C209.747 295.652 210.386 296.774 211.135 297.821C209.236 298.73 207.267 299.483 205.247 300.072L205.189 300.13ZM218.639 306.307C215.705 304.251 212.887 302.034 210.197 299.668C212.679 298.643 215.493 297.33 217.918 296.175C219.816 298.382 221.967 300.358 224.325 302.064C223.344 302.901 220.01 305.989 218.697 306.249L218.639 306.307ZM224.744 301.631C222.838 299.503 220.704 297.591 218.38 295.93L227.443 291.471C228.706 292.767 230.167 293.853 231.772 294.689C229.503 297.038 227.178 299.333 224.802 301.573L224.744 301.631ZM232.263 294.227C231.059 292.998 229.689 291.944 228.193 291.095C234.399 287.964 237.964 286.059 243.751 282.855C241.182 285.121 234.659 291.788 232.321 294.169L232.263 294.227ZM246.031 280.661C245.41 281.109 236.91 283.187 236.174 283.36C235.255 278.639 233.907 274.011 232.147 269.534C234.947 269.058 240.489 268.091 242.553 268.322C242.832 268.65 243.074 269.009 243.274 269.39C242.29 270.059 241.474 270.949 240.893 271.988C240.749 272.349 241.124 272.536 241.312 272.363C242.034 271.599 242.877 270.96 243.808 270.472C244.463 271.826 245.032 273.219 245.511 274.643C244.229 275.52 243.073 276.569 242.077 277.761C241.889 277.991 241.947 278.165 242.077 278.237C242.423 278.439 242.452 277.919 245.858 275.899C246.202 277.067 246.396 278.275 246.435 279.492C246.363 279.752 246.32 280.416 246.089 280.604L246.031 280.661ZM249.624 276.794C248.98 277.532 248.168 278.106 247.258 278.468C247.125 277.439 246.917 276.421 246.637 275.423C247.575 274.946 249.033 274.34 249.523 275.221C249.708 275.423 249.823 275.679 249.852 275.952C249.88 276.225 249.821 276.499 249.682 276.736L249.624 276.794Z" fill="#3C50E0"/>
</svg>
