<svg width="122" height="33" viewBox="0 0 122 33" fill="none" xmlns="http://www.w3.org/2000/svg">
<g clip-path="url(#clip0_1344_548)">
<path d="M0 29.8519C0 31.5962 1.33537 32.7275 3.39387 32.7275L13.3101 32.7276C19.2256 32.7276 24.0648 31.0317 27.3547 28.0627H0V29.8519ZM13.3101 0.815153L3.39387 0.814941C1.33537 0.814941 0 1.94639 0 3.6907V5.47995H27.3547C24.0648 2.51094 19.2257 0.815153 13.3101 0.815153ZM21.9639 21.3185C21.9639 22.7296 23.0489 23.6452 24.7214 23.6452H30.6634C31.337 22.2289 31.7896 20.672 31.9999 18.9917H24.7215C23.0487 18.9917 21.964 19.9072 21.964 21.3185M13.728 12.2357C13.728 13.647 14.813 14.5624 16.4855 14.5624H32C31.7896 12.8822 31.3371 11.3251 30.6635 9.90887H16.4856C14.8129 9.90887 13.728 10.8244 13.728 12.2357ZM16.4839 21.3185C16.4839 19.9071 15.3989 18.9917 13.7262 18.9917H0V23.6452H13.7261C15.3987 23.6452 16.4836 22.7297 16.4836 21.3184M8.24763 12.2356C8.24763 10.8242 7.16262 9.90877 5.49 9.90877H0V14.5623H5.49C7.16275 14.5623 8.24763 13.6468 8.24763 12.2356Z" fill="#090A18"/>
</g>
<path d="M53.7781 23.8149H49.342V10.724H53.8675C55.1673 10.724 56.2837 10.9861 57.217 11.5103C58.1545 12.0301 58.8746 12.778 59.3775 13.7539C59.8803 14.7297 60.1317 15.8973 60.1317 17.2567C60.1317 18.6203 59.8782 19.7922 59.3711 20.7723C58.8683 21.7524 58.1417 22.5046 57.1914 23.0287C56.2454 23.5529 55.1076 23.8149 53.7781 23.8149ZM51.7134 21.7631H53.663C54.5749 21.7631 55.3356 21.5969 55.945 21.2645C56.5543 20.9279 57.0124 20.4272 57.3192 19.7624C57.6261 19.0934 57.7795 18.2581 57.7795 17.2567C57.7795 16.2553 57.6261 15.4243 57.3192 14.7638C57.0124 14.099 56.5586 13.6026 55.9577 13.2745C55.3612 12.9421 54.6197 12.7759 53.7333 12.7759H51.7134V21.7631ZM66.6293 24.0067C65.6449 24.0067 64.7947 23.8022 64.0788 23.3931C63.3672 22.9797 62.8196 22.3959 62.4361 21.6416C62.0526 20.8831 61.8608 19.9904 61.8608 18.9634C61.8608 17.9534 62.0526 17.0671 62.4361 16.3043C62.8239 15.5372 63.3651 14.9407 64.0597 14.5145C64.7543 14.0841 65.5703 13.8689 66.5078 13.8689C67.1129 13.8689 67.6839 13.9669 68.2209 14.163C68.7621 14.3547 69.2393 14.653 69.6527 15.0578C70.0703 15.4627 70.3984 15.9783 70.6371 16.6047C70.8757 17.2269 70.995 17.9684 70.995 18.8291V19.5387H62.9474V17.979H68.777C68.7727 17.5358 68.6768 17.1416 68.4893 16.7965C68.3018 16.447 68.0398 16.1722 67.7031 15.9719C67.3707 15.7716 66.983 15.6715 66.5398 15.6715C66.0668 15.6715 65.6513 15.7865 65.2933 16.0166C64.9354 16.2425 64.6563 16.5408 64.456 16.9115C64.2599 17.278 64.1598 17.6807 64.1555 18.1196V19.4811C64.1555 20.0522 64.2599 20.5422 64.4688 20.9513C64.6776 21.3561 64.9695 21.6672 65.3445 21.8845C65.7195 22.0976 66.1584 22.2041 66.6612 22.2041C66.9979 22.2041 67.3026 22.1573 67.5753 22.0635C67.848 21.9655 68.0845 21.8228 68.2848 21.6353C68.4851 21.4478 68.6364 21.2155 68.7386 20.9385L70.8991 21.1814C70.7628 21.7524 70.5028 22.251 70.1193 22.6772C69.7401 23.099 69.2543 23.4272 68.6619 23.6615C68.0696 23.8916 67.392 24.0067 66.6293 24.0067ZM80.7125 16.5919L78.6032 16.822C78.5435 16.609 78.4391 16.4087 78.29 16.2212C78.1451 16.0337 77.949 15.8824 77.7019 15.7674C77.4547 15.6523 77.1522 15.5948 76.7942 15.5948C76.3127 15.5948 75.9078 15.6992 75.5797 15.908C75.2559 16.1168 75.0961 16.3874 75.1003 16.7198C75.0961 17.0053 75.2005 17.2375 75.4135 17.4165C75.6309 17.5955 75.9888 17.7425 76.4874 17.8576L78.1621 18.2155C79.0911 18.4158 79.7814 18.7333 80.2331 19.1679C80.6891 19.6026 80.9192 20.1715 80.9235 20.8746C80.9192 21.4925 80.7381 22.038 80.3801 22.511C80.0265 22.9797 79.5343 23.3462 78.9036 23.6104C78.2729 23.8746 77.5485 24.0067 76.7303 24.0067C75.5286 24.0067 74.5613 23.7553 73.8283 23.2524C73.0953 22.7453 72.6586 22.0401 72.5179 21.1367L74.7743 20.9193C74.8766 21.3625 75.0939 21.697 75.4263 21.9229C75.7587 22.1487 76.1912 22.2617 76.7239 22.2617C77.2736 22.2617 77.7147 22.1487 78.0471 21.9229C78.3837 21.697 78.552 21.4179 78.552 21.0855C78.552 20.8043 78.4434 20.572 78.226 20.3888C78.013 20.2056 77.6806 20.0649 77.2289 19.9669L75.5542 19.6154C74.6124 19.4193 73.9157 19.0891 73.464 18.6246C73.0123 18.1559 72.7885 17.5635 72.7928 16.8476C72.7885 16.2425 72.9526 15.7184 73.285 15.2752C73.6216 14.8277 74.0882 14.4826 74.6848 14.2397C75.2857 13.9925 75.9782 13.8689 76.7623 13.8689C77.9128 13.8689 78.8184 14.1139 79.4789 14.604C80.1436 15.0941 80.5549 15.7567 80.7125 16.5919ZM87.1142 24.0067C86.1341 24.0067 85.2924 23.7915 84.5893 23.3611C83.8904 22.9307 83.3514 22.3362 82.9721 21.5777C82.5971 20.8149 82.4096 19.9371 82.4096 18.9442C82.4096 17.947 82.6014 17.0671 82.9849 16.3043C83.3684 15.5372 83.9096 14.9407 84.6085 14.5145C85.3116 14.0841 86.1426 13.8689 87.1014 13.8689C87.8983 13.8689 88.6035 14.0159 89.2172 14.31C89.8351 14.5997 90.3272 15.011 90.6937 15.5436C91.0602 16.072 91.269 16.6899 91.3201 17.3973H89.1085C89.019 16.9243 88.8059 16.5301 88.4693 16.2148C88.1369 15.8952 87.6916 15.7354 87.1333 15.7354C86.6603 15.7354 86.2449 15.8632 85.8869 16.1189C85.5289 16.3703 85.2498 16.7326 85.0495 17.2056C84.8535 17.6786 84.7555 18.2453 84.7555 18.9059C84.7555 19.5749 84.8535 20.1502 85.0495 20.6317C85.2456 21.109 85.5204 21.4776 85.8741 21.7375C86.2321 21.9932 86.6518 22.121 87.1333 22.121C87.4743 22.121 87.7789 22.0571 88.0474 21.9293C88.3201 21.7972 88.5481 21.6076 88.7314 21.3604C88.9146 21.1132 89.0403 20.8128 89.1085 20.4591H91.3201C91.2647 21.1537 91.0602 21.7695 90.7065 22.3064C90.3528 22.8391 89.8713 23.2567 89.2619 23.5593C88.6525 23.8576 87.9366 24.0067 87.1142 24.0067ZM93.2202 23.8149V13.9968H95.4638V15.6331H95.5661C95.745 15.0664 96.0518 14.6296 96.4865 14.3228C96.9254 14.0117 97.4261 13.8561 97.9886 13.8561C98.1165 13.8561 98.2592 13.8625 98.4169 13.8753C98.5788 13.8838 98.7131 13.8987 98.8196 13.9201V16.0486C98.7216 16.0145 98.5661 15.9847 98.353 15.9591C98.1442 15.9293 97.9418 15.9144 97.7457 15.9144C97.3239 15.9144 96.9446 16.006 96.608 16.1892C96.2756 16.3682 96.0135 16.6175 95.8217 16.9371C95.63 17.2567 95.5341 17.6253 95.5341 18.0429V23.8149H93.2202ZM100.357 23.8149V13.9968H102.671V23.8149H100.357ZM101.52 12.6033C101.154 12.6033 100.838 12.4818 100.574 12.2389C100.31 11.9918 100.178 11.6956 100.178 11.3505C100.178 11.001 100.31 10.7049 100.574 10.462C100.838 10.2148 101.154 10.0912 101.52 10.0912C101.891 10.0912 102.206 10.2148 102.466 10.462C102.73 10.7049 102.863 11.001 102.863 11.3505C102.863 11.6956 102.73 11.9918 102.466 12.2389C102.206 12.4818 101.891 12.6033 101.52 12.6033ZM105.05 27.4968V13.9968H107.326V15.6203H107.46C107.579 15.3817 107.748 15.1282 107.965 14.8597C108.182 14.587 108.476 14.3547 108.847 14.163C109.218 13.9669 109.691 13.8689 110.266 13.8689C111.025 13.8689 111.709 14.0628 112.318 14.4506C112.932 14.8341 113.417 15.403 113.775 16.1573C114.138 16.9073 114.319 17.8277 114.319 18.9186C114.319 19.9968 114.142 20.913 113.788 21.6672C113.434 22.4215 112.953 22.9968 112.344 23.3931C111.734 23.7894 111.044 23.9875 110.273 23.9875C109.71 23.9875 109.243 23.8938 108.873 23.7063C108.502 23.5188 108.204 23.2929 107.978 23.0287C107.756 22.7603 107.584 22.5067 107.46 22.2681H107.364V27.4968H105.05ZM107.319 18.9059C107.319 19.5408 107.409 20.0969 107.588 20.5742C107.771 21.0514 108.033 21.4243 108.374 21.6928C108.719 21.957 109.137 22.0891 109.627 22.0891C110.138 22.0891 110.567 21.9527 110.912 21.68C111.257 21.403 111.517 21.0259 111.692 20.5486C111.871 20.0671 111.96 19.5195 111.96 18.9059C111.96 18.2965 111.873 17.7553 111.698 17.2823C111.523 16.8093 111.263 16.4385 110.918 16.1701C110.573 15.9016 110.143 15.7674 109.627 15.7674C109.133 15.7674 108.713 15.8973 108.368 16.1573C108.023 16.4172 107.76 16.7816 107.581 17.2503C107.407 17.7191 107.319 18.2709 107.319 18.9059ZM121.203 13.9968V15.7865H115.559V13.9968H121.203ZM116.952 11.6445H119.266V20.8618C119.266 21.1729 119.313 21.4115 119.407 21.5777C119.505 21.7397 119.633 21.8505 119.79 21.9101C119.948 21.9698 120.123 21.9996 120.314 21.9996C120.459 21.9996 120.591 21.9889 120.711 21.9676C120.834 21.9463 120.928 21.9272 120.992 21.9101L121.382 23.7191C121.258 23.7617 121.081 23.8085 120.851 23.8597C120.626 23.9108 120.349 23.9407 120.02 23.9492C119.441 23.9662 118.919 23.8789 118.454 23.6871C117.99 23.4911 117.621 23.1885 117.349 22.7794C117.08 22.3703 116.948 21.859 116.952 21.2453V11.6445Z" fill="#090A18"/>
<defs>
<clipPath id="clip0_1344_548">
<rect width="32" height="32" fill="white" transform="translate(0 0.814941)"/>
</clipPath>
</defs>
</svg>
