<svg width="106" height="33" viewBox="0 0 106 33" fill="none" xmlns="http://www.w3.org/2000/svg">
<path d="M6.95026 7.46446C7.84626 8.19193 8.18119 8.13646 9.86439 8.02339L25.7215 7.07193C26.0585 7.07193 25.7791 6.73699 25.666 6.68153L23.0313 4.77646C22.5279 4.38393 21.8559 3.93593 20.5673 4.04899L5.21159 5.16899C4.65266 5.22446 4.53959 5.50393 4.76359 5.72793L6.95026 7.46446ZM7.90172 11.1594V27.8442C7.90172 28.7402 8.34972 29.0773 9.35879 29.0218L26.7881 28.0127C27.7951 27.9573 27.9081 27.3407 27.9081 26.6133V10.0394C27.9081 9.31406 27.6287 8.91939 27.0121 8.97486L8.79772 10.0394C8.12572 10.0949 7.90172 10.4319 7.90172 11.1594ZM25.1071 12.0554C25.218 12.5589 25.1071 13.0623 24.6015 13.1199L23.7609 13.2863V25.6063C23.0335 25.9967 22.3593 26.2207 21.7983 26.2207C20.9023 26.2207 20.6783 25.9413 20.0063 25.1007L14.5129 16.4778V24.8213L16.2516 25.2138C16.2516 25.2138 16.2516 26.2207 14.85 26.2207L10.9844 26.4447C10.8713 26.2207 10.9844 25.6618 11.3769 25.5487L12.3839 25.2714V14.2378L10.9865 14.1269C10.8735 13.6234 11.1529 12.8959 11.938 12.8383L16.0852 12.561L21.8025 21.2949V13.5679L20.3455 13.3994C20.2324 12.7829 20.6804 12.3349 21.2415 12.2794L25.1071 12.0554ZM3.92306 3.65646L19.8953 2.48099C21.8559 2.31033 22.3615 2.42553 23.5924 3.32153L28.6911 6.90553C29.5337 7.51993 29.8132 7.68846 29.8132 8.36046V28.0127C29.8132 29.2458 29.3652 29.9754 27.7951 30.0842L9.24786 31.2042C8.07026 31.2618 7.50919 31.0933 6.89266 30.3082L3.13799 25.4378C2.46599 24.5418 2.18652 23.8698 2.18652 23.0847V5.61486C2.18652 4.60793 2.63452 3.76739 3.92306 3.65646Z" fill="#090A18"/>
<path d="M60.1769 10.724V23.8149H58.0676L51.8992 14.898H51.7906V23.8149H49.4191V10.724H51.5413L57.7032 19.6473H57.8183V10.724H60.1769ZM66.9413 24.0067C65.9825 24.0067 65.1515 23.7958 64.4484 23.3739C63.7453 22.952 63.1998 22.3618 62.8121 21.6033C62.4285 20.8448 62.2368 19.9584 62.2368 18.9442C62.2368 17.93 62.4285 17.0415 62.8121 16.2787C63.1998 15.5159 63.7453 14.9236 64.4484 14.5017C65.1515 14.0799 65.9825 13.8689 66.9413 13.8689C67.9001 13.8689 68.7311 14.0799 69.4342 14.5017C70.1373 14.9236 70.6807 15.5159 71.0642 16.2787C71.452 17.0415 71.6459 17.93 71.6459 18.9442C71.6459 19.9584 71.452 20.8448 71.0642 21.6033C70.6807 22.3618 70.1373 22.952 69.4342 23.3739C68.7311 23.7958 67.9001 24.0067 66.9413 24.0067ZM66.9541 22.153C67.474 22.153 67.9086 22.0103 68.2581 21.7247C68.6075 21.435 68.8675 21.0472 69.0379 20.5614C69.2126 20.0756 69.3 19.5344 69.3 18.9378C69.3 18.337 69.2126 17.7936 69.0379 17.3078C68.8675 16.8178 68.6075 16.4279 68.2581 16.1381C67.9086 15.8483 67.474 15.7034 66.9541 15.7034C66.4214 15.7034 65.9782 15.8483 65.6246 16.1381C65.2751 16.4279 65.0131 16.8178 64.8383 17.3078C64.6679 17.7936 64.5827 18.337 64.5827 18.9378C64.5827 19.5344 64.6679 20.0756 64.8383 20.5614C65.0131 21.0472 65.2751 21.435 65.6246 21.7247C65.9782 22.0103 66.4214 22.153 66.9541 22.153ZM78.5125 13.9968V15.7865H72.8683V13.9968H78.5125ZM74.2618 11.6445H76.5757V20.8618C76.5757 21.1729 76.6226 21.4115 76.7164 21.5777C76.8144 21.7397 76.9422 21.8505 77.0999 21.9101C77.2575 21.9698 77.4323 21.9996 77.624 21.9996C77.7689 21.9996 77.901 21.9889 78.0203 21.9676C78.1439 21.9463 78.2377 21.9272 78.3016 21.9101L78.6915 23.7191C78.5679 23.7617 78.3911 23.8085 78.161 23.8597C77.9351 23.9108 77.6581 23.9407 77.33 23.9492C76.7504 23.9662 76.2284 23.8789 75.7639 23.6871C75.2994 23.4911 74.9308 23.1885 74.6581 22.7794C74.3896 22.3703 74.2575 21.859 74.2618 21.2453V11.6445ZM80.4477 23.8149V13.9968H82.7616V23.8149H80.4477ZM81.6111 12.6033C81.2446 12.6033 80.9292 12.4818 80.665 12.2389C80.4008 11.9918 80.2687 11.6956 80.2687 11.3505C80.2687 11.001 80.4008 10.7049 80.665 10.462C80.9292 10.2148 81.2446 10.0912 81.6111 10.0912C81.9818 10.0912 82.2971 10.2148 82.5571 10.462C82.8213 10.7049 82.9534 11.001 82.9534 11.3505C82.9534 11.6956 82.8213 11.9918 82.5571 12.2389C82.2971 12.4818 81.9818 12.6033 81.6111 12.6033ZM89.4237 24.0067C88.4649 24.0067 87.634 23.7958 86.9308 23.3739C86.2277 22.952 85.6823 22.3618 85.2945 21.6033C84.911 20.8448 84.7192 19.9584 84.7192 18.9442C84.7192 17.93 84.911 17.0415 85.2945 16.2787C85.6823 15.5159 86.2277 14.9236 86.9308 14.5017C87.634 14.0799 88.4649 13.8689 89.4237 13.8689C90.3825 13.8689 91.2135 14.0799 91.9166 14.5017C92.6198 14.9236 93.1631 15.5159 93.5466 16.2787C93.9344 17.0415 94.1283 17.93 94.1283 18.9442C94.1283 19.9584 93.9344 20.8448 93.5466 21.6033C93.1631 22.3618 92.6198 22.952 91.9166 23.3739C91.2135 23.7958 90.3825 24.0067 89.4237 24.0067ZM89.4365 22.153C89.9564 22.153 90.3911 22.0103 90.7405 21.7247C91.0899 21.435 91.3499 21.0472 91.5203 20.5614C91.695 20.0756 91.7824 19.5344 91.7824 18.9378C91.7824 18.337 91.695 17.7936 91.5203 17.3078C91.3499 16.8178 91.0899 16.4279 90.7405 16.1381C90.3911 15.8483 89.9564 15.7034 89.4365 15.7034C88.9039 15.7034 88.4607 15.8483 88.107 16.1381C87.7575 16.4279 87.4955 16.8178 87.3208 17.3078C87.1503 17.7936 87.0651 18.337 87.0651 18.9378C87.0651 19.5344 87.1503 20.0756 87.3208 20.5614C87.4955 21.0472 87.7575 21.435 88.107 21.7247C88.4607 22.0103 88.9039 22.153 89.4365 22.153ZM98.4062 18.0621V23.8149H96.0922V13.9968H98.3039V15.6651H98.4189C98.6448 15.1154 99.0049 14.6786 99.4992 14.3547C99.9978 14.0309 100.614 13.8689 101.347 13.8689C102.024 13.8689 102.614 14.0138 103.117 14.3036C103.624 14.5934 104.016 15.0131 104.293 15.5628C104.574 16.1125 104.713 16.7794 104.709 17.5635V23.8149H102.395V17.9215C102.395 17.2652 102.224 16.7517 101.883 16.381C101.547 16.0103 101.08 15.8249 100.484 15.8249C100.079 15.8249 99.7187 15.9144 99.4033 16.0934C99.0922 16.2681 98.8472 16.5216 98.6682 16.854C98.4935 17.1864 98.4062 17.5891 98.4062 18.0621Z" fill="#090A18"/>
</svg>
