<svg width="126" height="32" viewBox="0 0 126 32" fill="none" xmlns="http://www.w3.org/2000/svg">
<path d="M26.0003 2.66667H6.00033C5.11627 2.66667 4.26842 3.01786 3.6433 3.64298C3.01818 4.2681 2.66699 5.11595 2.66699 6V26C2.66699 26.8841 3.01818 27.7319 3.6433 28.357C4.26842 28.9821 5.11627 29.3333 6.00033 29.3333H26.0003C26.8844 29.3333 27.7322 28.9821 28.3573 28.357C28.9825 27.7319 29.3337 26.8841 29.3337 26V6C29.3337 5.11595 28.9825 4.2681 28.3573 3.64298C27.7322 3.01786 26.8844 2.66667 26.0003 2.66667ZM19.5603 7.56C19.5585 7.44219 19.5804 7.32522 19.6247 7.21602C19.6689 7.10682 19.7347 7.00762 19.818 6.92431C19.9013 6.841 20.0005 6.77526 20.1097 6.731C20.2189 6.68675 20.3358 6.66487 20.4537 6.66667C20.6849 6.67337 20.9049 6.76824 21.0685 6.93184C21.2321 7.09544 21.327 7.3154 21.3337 7.54667V19.4133C21.3071 19.6298 21.2022 19.829 21.0389 19.9735C20.8756 20.118 20.6651 20.1977 20.447 20.1977C20.2289 20.1977 20.0184 20.118 19.8551 19.9735C19.6918 19.829 19.5869 19.6298 19.5603 19.4133V7.56ZM15.107 7.10667C15.107 6.86974 15.2011 6.64252 15.3686 6.47498C15.5362 6.30745 15.7634 6.21333 16.0003 6.21333C16.2373 6.21333 16.4645 6.30745 16.632 6.47498C16.7995 6.64252 16.8937 6.86974 16.8937 7.10667V20C16.8937 20.2369 16.7995 20.4641 16.632 20.6317C16.4645 20.7992 16.2373 20.8933 16.0003 20.8933C15.7634 20.8933 15.5362 20.7992 15.3686 20.6317C15.2011 20.4641 15.107 20.2369 15.107 20V7.10667ZM10.667 7.56C10.6936 7.34357 10.7984 7.14433 10.9617 6.99985C11.1251 6.85536 11.3356 6.7756 11.5537 6.7756C11.7717 6.7756 11.9823 6.85536 12.1456 6.99985C12.3089 7.14433 12.4137 7.34357 12.4403 7.56V19.4267C12.4403 19.5434 12.4171 19.6589 12.3721 19.7665C12.327 19.8742 12.261 19.9718 12.1779 20.0537C12.0947 20.1356 11.9962 20.2001 11.8878 20.2435C11.7795 20.287 11.6637 20.3084 11.547 20.3067C11.3157 20.3 11.0958 20.2051 10.9322 20.0415C10.7686 19.8779 10.6737 19.6579 10.667 19.4267V7.56ZM6.22699 9.33333C6.25358 9.1169 6.35842 8.91766 6.52174 8.77318C6.68507 8.62869 6.8956 8.54893 7.11366 8.54893C7.33172 8.54893 7.54225 8.62869 7.70557 8.77318C7.8689 8.91766 7.97373 9.1169 8.00033 9.33333V17.3333C7.99682 17.5679 7.90116 17.7918 7.73401 17.9564C7.56685 18.1211 7.34163 18.2134 7.10699 18.2133C6.87467 18.2099 6.65284 18.1161 6.48854 17.9518C6.32425 17.7875 6.23043 17.5657 6.22699 17.3333V9.33333ZM25.467 22.8933C22.7257 24.8917 19.3901 25.9065 16.0003 25.7733C12.6105 25.9065 9.275 24.8917 6.53366 22.8933C6.39445 22.7305 6.31836 22.5231 6.31928 22.3089C6.32019 22.0947 6.39804 21.888 6.53863 21.7264C6.67923 21.5648 6.87321 21.4591 7.08522 21.4285C7.29724 21.398 7.51317 21.4447 7.69366 21.56C10.1228 23.2565 13.0396 24.1132 16.0003 24C18.9632 24.1143 21.8816 23.2523 24.307 21.5467C24.4875 21.4313 24.7034 21.3847 24.9154 21.4152C25.1274 21.4458 25.3214 21.5515 25.462 21.7131C25.6026 21.8747 25.6805 22.0814 25.6814 22.2956C25.6823 22.5098 25.6062 22.7172 25.467 22.88V22.8933ZM25.7737 17.3333C25.7471 17.5498 25.6422 17.749 25.4789 17.8935C25.3156 18.038 25.1051 18.1177 24.887 18.1177C24.6689 18.1177 24.4584 18.038 24.2951 17.8935C24.1318 17.749 24.0269 17.5498 24.0003 17.3333V9.33333C24.0038 9.09872 24.0995 8.87491 24.2666 8.71025C24.4338 8.54559 24.659 8.45331 24.8937 8.45333C25.127 8.45333 25.3509 8.54605 25.5159 8.71108C25.6809 8.87611 25.7737 9.09994 25.7737 9.33333V17.3333Z" fill="#797979"/>
<path d="M51.8941 9.90909V23H49.5226V9.90909H51.8941ZM56.6737 17.2472V23H54.3598V13.1818H56.5715V14.8501H56.6865C56.9124 14.3004 57.2725 13.8636 57.7668 13.5398C58.2654 13.2159 58.8811 13.054 59.6141 13.054C60.2916 13.054 60.8818 13.1989 61.3847 13.4886C61.8918 13.7784 62.2838 14.1982 62.5608 14.7479C62.8421 15.2976 62.9806 15.9645 62.9763 16.7486V23H60.6624V17.1065C60.6624 16.4503 60.4919 15.9368 60.151 15.5661C59.8144 15.1953 59.3477 15.0099 58.7512 15.0099C58.3463 15.0099 57.9862 15.0994 57.6709 15.2784C57.3598 15.4531 57.1148 15.7067 56.9358 16.0391C56.7611 16.3714 56.6737 16.7741 56.6737 17.2472ZM70.2313 13.1818V14.9716H64.5871V13.1818H70.2313ZM65.9806 10.8295H68.2945V20.0469C68.2945 20.358 68.3414 20.5966 68.4351 20.7628C68.5331 20.9247 68.661 21.0355 68.8186 21.0952C68.9763 21.1548 69.151 21.1847 69.3428 21.1847C69.4877 21.1847 69.6198 21.174 69.7391 21.1527C69.8627 21.1314 69.9564 21.1122 70.0203 21.0952L70.4102 22.9041C70.2867 22.9467 70.1098 22.9936 69.8797 23.0447C69.6539 23.0959 69.3769 23.1257 69.0487 23.1342C68.4692 23.1513 67.9472 23.0639 67.4827 22.8722C67.0182 22.6761 66.6496 22.3736 66.3769 21.9645C66.1084 21.5554 65.9763 21.044 65.9806 20.4304V10.8295ZM76.4076 23.1918C75.4232 23.1918 74.5731 22.9872 73.8572 22.5781C73.1455 22.1648 72.5979 21.581 72.2144 20.8267C71.8309 20.0682 71.6391 19.1754 71.6391 18.1484C71.6391 17.1385 71.8309 16.2521 72.2144 15.4893C72.6022 14.7223 73.1434 14.1257 73.838 13.6996C74.5326 13.2692 75.3486 13.054 76.2861 13.054C76.8912 13.054 77.4623 13.152 77.9992 13.348C78.5404 13.5398 79.0177 13.8381 79.431 14.2429C79.8486 14.6477 80.1768 15.1634 80.4154 15.7898C80.654 16.4119 80.7733 17.1534 80.7733 18.0142V18.7237H72.7258V17.1641H78.5553C78.551 16.7209 78.4552 16.3267 78.2677 15.9815C78.0802 15.6321 77.8181 15.3572 77.4814 15.157C77.1491 14.9567 76.7613 14.8565 76.3181 14.8565C75.8451 14.8565 75.4296 14.9716 75.0716 15.2017C74.7137 15.4276 74.4346 15.7259 74.2343 16.0966C74.0383 16.4631 73.9381 16.8658 73.9339 17.3047V18.6662C73.9339 19.2372 74.0383 19.7273 74.2471 20.1364C74.4559 20.5412 74.7478 20.8523 75.1228 21.0696C75.4978 21.2827 75.9367 21.3892 76.4395 21.3892C76.7762 21.3892 77.0809 21.3423 77.3536 21.2486C77.6263 21.1506 77.8628 21.0078 78.0631 20.8203C78.2634 20.6328 78.4147 20.4006 78.517 20.1236L80.6775 20.3665C80.5411 20.9375 80.2812 21.4361 79.8976 21.8622C79.5184 22.2841 79.0326 22.6122 78.4403 22.8466C77.8479 23.0767 77.1704 23.1918 76.4076 23.1918ZM82.7309 23V13.1818H84.9745V14.8182H85.0768C85.2558 14.2514 85.5626 13.8146 85.9972 13.5078C86.4362 13.1967 86.9369 13.0412 87.4994 13.0412C87.6272 13.0412 87.77 13.0476 87.9276 13.0604C88.0896 13.0689 88.2238 13.0838 88.3303 13.1051V15.2337C88.2323 15.1996 88.0768 15.1697 87.8637 15.1442C87.6549 15.1143 87.4525 15.0994 87.2565 15.0994C86.8346 15.0994 86.4553 15.1911 86.1187 15.3743C85.7863 15.5533 85.5242 15.8026 85.3325 16.1222C85.1407 16.4418 85.0448 16.8104 85.0448 17.228V23H82.7309ZM93.746 23.1918C92.7659 23.1918 91.9243 22.9766 91.2211 22.5462C90.5223 22.1158 89.9832 21.5213 89.604 20.7628C89.229 20 89.0415 19.1222 89.0415 18.1293C89.0415 17.1321 89.2332 16.2521 89.6167 15.4893C90.0003 14.7223 90.5415 14.1257 91.2403 13.6996C91.9434 13.2692 92.7744 13.054 93.7332 13.054C94.5301 13.054 95.2354 13.201 95.849 13.495C96.4669 13.7848 96.9591 14.196 97.3256 14.7287C97.692 15.2571 97.9008 15.875 97.952 16.5824H95.7403C95.6508 16.1094 95.4378 15.7152 95.1011 15.3999C94.7687 15.0803 94.3234 14.9205 93.7652 14.9205C93.2922 14.9205 92.8767 15.0483 92.5187 15.304C92.1608 15.5554 91.8817 15.9176 91.6814 16.3906C91.4854 16.8636 91.3873 17.4304 91.3873 18.0909C91.3873 18.7599 91.4854 19.3352 91.6814 19.8168C91.8774 20.294 92.1523 20.6626 92.5059 20.9226C92.8639 21.1783 93.2836 21.3061 93.7652 21.3061C94.1061 21.3061 94.4108 21.2422 94.6792 21.1143C94.952 20.9822 95.18 20.7926 95.3632 20.5455C95.5464 20.2983 95.6721 19.9979 95.7403 19.6442H97.952C97.8966 20.3388 97.692 20.9545 97.3383 21.4915C96.9846 22.0241 96.5031 22.4418 95.8937 22.7443C95.2844 23.0426 94.5684 23.1918 93.746 23.1918ZM104.135 23.1918C103.176 23.1918 102.345 22.9808 101.642 22.5589C100.939 22.1371 100.393 21.5469 100.005 20.7884C99.6219 20.0298 99.4301 19.1435 99.4301 18.1293C99.4301 17.1151 99.6219 16.2266 100.005 15.4638C100.393 14.701 100.939 14.1087 101.642 13.6868C102.345 13.2649 103.176 13.054 104.135 13.054C105.093 13.054 105.924 13.2649 106.628 13.6868C107.331 14.1087 107.874 14.701 108.258 15.4638C108.645 16.2266 108.839 17.1151 108.839 18.1293C108.839 19.1435 108.645 20.0298 108.258 20.7884C107.874 21.5469 107.331 22.1371 106.628 22.5589C105.924 22.9808 105.093 23.1918 104.135 23.1918ZM104.147 21.3381C104.667 21.3381 105.102 21.1953 105.451 20.9098C105.801 20.62 106.061 20.2322 106.231 19.7464C106.406 19.2607 106.493 18.7195 106.493 18.1229C106.493 17.522 106.406 16.9787 106.231 16.4929C106.061 16.0028 105.801 15.6129 105.451 15.3232C105.102 15.0334 104.667 14.8885 104.147 14.8885C103.615 14.8885 103.172 15.0334 102.818 15.3232C102.468 15.6129 102.206 16.0028 102.032 16.4929C101.861 16.9787 101.776 17.522 101.776 18.1229C101.776 18.7195 101.861 19.2607 102.032 19.7464C102.206 20.2322 102.468 20.62 102.818 20.9098C103.172 21.1953 103.615 21.3381 104.147 21.3381ZM110.803 23V13.1818H113.015V14.8501H113.13C113.334 14.2876 113.673 13.8487 114.146 13.5334C114.619 13.2138 115.184 13.054 115.84 13.054C116.505 13.054 117.065 13.2159 117.521 13.5398C117.981 13.8594 118.305 14.2962 118.493 14.8501H118.595C118.812 14.3047 119.179 13.87 119.695 13.5462C120.214 13.218 120.83 13.054 121.542 13.054C122.445 13.054 123.182 13.3395 123.753 13.9105C124.324 14.4815 124.61 15.3146 124.61 16.4098V23H122.29V16.7678C122.29 16.1584 122.128 15.7131 121.804 15.4318C121.48 15.1463 121.084 15.0036 120.615 15.0036C120.057 15.0036 119.62 15.1783 119.305 15.5277C118.994 15.8729 118.838 16.3224 118.838 16.8764V23H116.569V16.6719C116.569 16.1648 116.415 15.7599 116.109 15.4574C115.806 15.1548 115.41 15.0036 114.92 15.0036C114.587 15.0036 114.285 15.0888 114.012 15.2592C113.739 15.4254 113.522 15.6619 113.36 15.9688C113.198 16.2713 113.117 16.625 113.117 17.0298V23H110.803Z" fill="#797979"/>
</svg>
