<svg width="24" height="25" viewBox="0 0 24 25" fill="none" xmlns="http://www.w3.org/2000/svg">
<path d="M12 2.24536C6.49 2.24536 2 6.73536 2 12.2454C2 17.7554 6.49 22.2454 12 22.2454C17.51 22.2454 22 17.7554 22 12.2454C22 6.73536 17.51 2.24536 12 2.24536ZM15.36 14.5454C15.65 14.8354 15.65 15.3154 15.36 15.6054C15.21 15.7554 15.02 15.8254 14.83 15.8254C14.64 15.8254 14.45 15.7554 14.3 15.6054L12 13.3054L9.7 15.6054C9.55 15.7554 9.36 15.8254 9.17 15.8254C8.98 15.8254 8.79 15.7554 8.64 15.6054C8.35 15.3154 8.35 14.8354 8.64 14.5454L10.94 12.2454L8.64 9.94536C8.35 9.65536 8.35 9.17536 8.64 8.88536C8.93 8.59536 9.41 8.59536 9.7 8.88536L12 11.1854L14.3 8.88536C14.59 8.59536 15.07 8.59536 15.36 8.88536C15.65 9.17536 15.65 9.65536 15.36 9.94536L13.06 12.2454L15.36 14.5454Z" fill="#596780"/>
</svg>
