<svg width="32" height="33" viewBox="0 0 32 33" fill="none" xmlns="http://www.w3.org/2000/svg">
<path d="M29.3331 7.85869V20.632C29.3331 24.312 26.3464 27.2987 22.6664 27.2987H9.3331C8.71977 27.2987 8.1331 27.2187 7.55977 27.0587C6.7331 26.832 6.46643 25.7787 7.07977 25.1654L21.2531 10.992C21.5464 10.6987 21.9864 10.632 22.3998 10.712C22.8264 10.792 23.2931 10.672 23.6264 10.352L27.0531 6.91202C28.3064 5.65869 29.3331 6.07202 29.3331 7.85869Z" fill="#009429"/>
<path d="M19.5203 10.0587L5.56033 24.0187C4.92033 24.6587 3.85366 24.4987 3.42699 23.6987C2.93366 22.7921 2.66699 21.7387 2.66699 20.6321V7.85872C2.66699 6.07205 3.69366 5.65872 4.94699 6.91205L8.38699 10.3654C8.90699 10.8721 9.76033 10.8721 10.2803 10.3654L15.0537 5.57872C15.5737 5.05872 16.427 5.05872 16.947 5.57872L19.5337 8.16539C20.0403 8.68539 20.0403 9.53872 19.5203 10.0587Z" fill="#009429"/>
</svg>
