<svg width="20" height="21" viewBox="0 0 20 21" fill="none" xmlns="http://www.w3.org/2000/svg">
<path d="M13.5672 8.44844C13.6253 8.50648 13.6714 8.57541 13.7029 8.65129C13.7343 8.72716 13.7505 8.80849 13.7505 8.89062C13.7505 8.97276 13.7343 9.05409 13.7029 9.12996C13.6714 9.20584 13.6253 9.27477 13.5672 9.33281L9.19219 13.7078C9.13415 13.7659 9.06522 13.812 8.98934 13.8435C8.91347 13.8749 8.83214 13.8911 8.75 13.8911C8.66787 13.8911 8.58654 13.8749 8.51067 13.8435C8.43479 13.812 8.36586 13.7659 8.30782 13.7078L6.43282 11.8328C6.31554 11.7155 6.24966 11.5565 6.24966 11.3906C6.24966 11.2248 6.31554 11.0657 6.43282 10.9484C6.55009 10.8312 6.70915 10.7653 6.875 10.7653C7.04086 10.7653 7.19992 10.8312 7.31719 10.9484L8.75 12.382L12.6828 8.44844C12.7409 8.39033 12.8098 8.34423 12.8857 8.31278C12.9615 8.28132 13.0429 8.26513 13.125 8.26513C13.2071 8.26513 13.2885 8.28132 13.3643 8.31278C13.4402 8.34423 13.5091 8.39033 13.5672 8.44844ZM18.125 10.7656C18.125 12.3726 17.6485 13.9435 16.7557 15.2796C15.8629 16.6158 14.594 17.6572 13.1093 18.2721C11.6247 18.8871 9.99099 19.048 8.4149 18.7345C6.8388 18.421 5.39106 17.6472 4.25476 16.5109C3.11846 15.3746 2.34463 13.9268 2.03112 12.3507C1.71762 10.7746 1.87852 9.14097 2.49348 7.65632C3.10844 6.17167 4.14985 4.90272 5.486 4.00993C6.82214 3.11715 8.39303 2.64063 10 2.64062C12.1542 2.6429 14.2195 3.49965 15.7427 5.02289C17.266 6.54613 18.1227 8.61144 18.125 10.7656ZM16.875 10.7656C16.875 9.40588 16.4718 8.07667 15.7164 6.94608C14.9609 5.81549 13.8872 4.93431 12.631 4.41395C11.3747 3.8936 9.99238 3.75745 8.65876 4.02273C7.32514 4.288 6.10013 4.94278 5.13864 5.90427C4.17716 6.86575 3.52238 8.09076 3.2571 9.42438C2.99183 10.758 3.12798 12.1403 3.64833 13.3966C4.16868 14.6528 5.04987 15.7265 6.18046 16.482C7.31105 17.2374 8.64026 17.6406 10 17.6406C11.8227 17.6386 13.5702 16.9136 14.8591 15.6247C16.1479 14.3358 16.8729 12.5884 16.875 10.7656Z" fill="white"/>
</svg>
