<svg width="24" height="25" viewBox="0 0 24 25" fill="none" xmlns="http://www.w3.org/2000/svg">
<path d="M12 2.24536C6.49 2.24536 2 6.73536 2 12.2454C2 17.7554 6.49 22.2454 12 22.2454C17.51 22.2454 22 17.7554 22 12.2454C22 6.73536 17.51 2.24536 12 2.24536ZM16.78 9.94536L11.11 15.6154C10.97 15.7554 10.78 15.8354 10.58 15.8354C10.38 15.8354 10.19 15.7554 10.05 15.6154L7.22 12.7854C6.93 12.4954 6.93 12.0154 7.22 11.7254C7.51 11.4354 7.99 11.4354 8.28 11.7254L10.58 14.0254L15.72 8.88536C16.01 8.59536 16.49 8.59536 16.78 8.88536C17.07 9.17536 17.07 9.64536 16.78 9.94536Z" fill="#009429"/>
</svg>
