<svg width="32" height="33" viewBox="0 0 32 33" fill="none" xmlns="http://www.w3.org/2000/svg">
<path d="M25.0664 13.4587C23.5597 13.4587 22.2131 14.1921 21.3731 15.3121C20.5331 14.1921 19.1864 13.4587 17.6797 13.4587C15.1331 13.4587 13.0664 15.5387 13.0664 18.0987C13.0664 19.0854 13.2264 20.0054 13.4931 20.8454C14.7997 24.9921 18.8531 27.4854 20.8531 28.1654C21.1331 28.2587 21.5997 28.2587 21.8797 28.1654C23.8797 27.4854 27.9331 25.0054 29.2397 20.8454C29.5197 19.9921 29.6664 19.0854 29.6664 18.0987C29.6797 15.5387 27.6131 13.4587 25.0664 13.4587Z" fill="#009429"/>
<path d="M27.667 11.3653C27.667 11.672 27.3603 11.872 27.067 11.792C25.267 11.3253 23.2937 11.712 21.8003 12.7787C21.507 12.992 21.107 12.992 20.827 12.7787C19.7737 12.0053 18.4937 11.5787 17.147 11.5787C13.707 11.5787 10.907 14.392 10.907 17.8587C10.907 21.6187 12.707 24.432 14.5203 26.312C14.6137 26.4053 14.5337 26.5653 14.4137 26.512C10.7737 25.272 2.66699 20.1253 2.66699 11.3653C2.66699 7.49866 5.77366 4.37866 9.61366 4.37866C11.8937 4.37866 13.907 5.472 15.1737 7.16533C16.4537 5.472 18.467 4.37866 20.7337 4.37866C24.5603 4.37866 27.667 7.49866 27.667 11.3653Z" fill="#009429"/>
</svg>
