<svg width="23" height="22" viewBox="0 0 23 22" fill="none" xmlns="http://www.w3.org/2000/svg">
<g id="Group 3">
<path id="Vector" d="M22.3716 6.27618V0.205933C18.4748 0.205933 14.6754 1.5171 11.9477 3.79952L11.217 4.38227L10.4864 3.79952C7.70993 1.5171 3.95928 0.205933 0.0625 0.205933V6.27618C0.0625 7.92729 0.647023 9.48127 1.62122 10.7924C0.647023 12.1036 0.0625 13.6576 0.0625 15.3087V21.379C3.95928 21.379 7.75864 20.0678 10.4864 17.7854L11.217 17.2026C9.31735 16.0857 8.14832 14.0947 8.14832 11.8608V9.72408C8.14832 7.53879 9.31735 5.49919 11.217 4.38227C13.1167 5.49919 14.2857 7.53879 14.2857 9.72408V11.8608C14.2857 14.0461 13.1167 16.0857 11.217 17.2026L11.9477 17.7854C14.7241 20.0678 18.4748 21.379 22.3716 21.379V15.3087C22.3716 13.6576 21.787 12.1036 20.8129 10.7924C21.787 9.48127 22.3716 7.92729 22.3716 6.27618Z" fill="#1463FF"/>
</g>
</svg>
