<svg width="24" height="24" viewBox="0 0 24 24" fill="none" xmlns="http://www.w3.org/2000/svg">
<rect width="24" height="24" rx="8" fill="url(#paint0_linear_1263_1438)"/>
<g clip-path="url(#clip0_1263_1438)">
<path fill-rule="evenodd" clip-rule="evenodd" d="M12.5 7.32C12.5 6.59098 11.909 6 11.18 6H7.82C7.09098 6 6.5 6.59098 6.5 7.32V10.7232C6.5 11.4522 7.09098 12.0431 7.82 12.0431H11.18C11.909 12.0431 12.5 12.6341 12.5 13.3631V16.68C12.5 17.409 13.091 18 13.82 18H17.18C17.909 18 18.5 17.409 18.5 16.68V13.2768C18.5 12.5478 17.909 11.9568 17.18 11.9568H13.82C13.091 11.9568 12.5 11.3658 12.5 10.6368V7.32Z" fill="white"/>
</g>
<defs>
<linearGradient id="paint0_linear_1263_1438" x1="12" y1="0" x2="12" y2="24" gradientUnits="userSpaceOnUse">
<stop stop-color="#1C1C1C" stop-opacity="0.9"/>
<stop offset="1" stop-color="#1C1C1C"/>
</linearGradient>
<clipPath id="clip0_1263_1438">
<rect width="12" height="12" fill="white" transform="translate(6.5 6)"/>
</clipPath>
</defs>
</svg>
