<svg width="124" height="24" viewBox="0 0 124 24" fill="none" xmlns="http://www.w3.org/2000/svg">
<rect width="24" height="24" rx="8" fill="url(#paint0_linear_1344_1079)"/>
<g clip-path="url(#clip0_1344_1079)">
<path fill-rule="evenodd" clip-rule="evenodd" d="M12.5 7.31988C12.5 6.59086 11.909 5.99988 11.18 5.99988H7.82C7.09098 5.99988 6.5 6.59086 6.5 7.31988V10.723C6.5 11.4521 7.09098 12.043 7.82 12.043H11.18C11.909 12.043 12.5 12.634 12.5 13.363V16.6799C12.5 17.4089 13.091 17.9999 13.82 17.9999H17.18C17.909 17.9999 18.5 17.4089 18.5 16.6799V13.2767C18.5 12.5477 17.909 11.9567 17.18 11.9567H13.82C13.091 11.9567 12.5 11.3657 12.5 10.6367V7.31988Z" fill="white"/>
</g>
<path d="M29.134 18V5.4H35.056C35.908 5.4 36.652 5.544 37.288 5.832C37.936 6.12 38.434 6.528 38.782 7.056C39.142 7.572 39.322 8.172 39.322 8.856C39.322 9.408 39.178 9.918 38.89 10.386C38.614 10.842 38.236 11.214 37.756 11.502C38.368 11.79 38.854 12.18 39.214 12.672C39.574 13.164 39.754 13.722 39.754 14.346C39.754 15.066 39.568 15.702 39.196 16.254C38.836 16.806 38.32 17.238 37.648 17.55C36.988 17.85 36.22 18 35.344 18H29.134ZM31.744 10.548H34.894C35.458 10.548 35.902 10.416 36.226 10.152C36.562 9.876 36.73 9.51 36.73 9.054C36.73 8.598 36.562 8.238 36.226 7.974C35.902 7.698 35.458 7.56 34.894 7.56H31.744V10.548ZM31.744 15.84H35.146C35.746 15.84 36.226 15.696 36.586 15.408C36.946 15.108 37.126 14.712 37.126 14.22C37.126 13.716 36.946 13.32 36.586 13.032C36.226 12.732 35.746 12.582 35.146 12.582H31.744V15.84ZM44.3375 18.18C43.6175 18.18 42.9755 18.024 42.4115 17.712C41.8595 17.388 41.4215 16.944 41.0975 16.38C40.7855 15.816 40.6295 15.168 40.6295 14.436V8.622H43.0955V14.076C43.0955 14.676 43.2695 15.156 43.6175 15.516C43.9775 15.876 44.4575 16.056 45.0575 16.056C45.4655 16.056 45.8315 15.978 46.1555 15.822C46.4915 15.654 46.7675 15.42 46.9835 15.12V8.622H49.4495V18H46.9835V17.244C46.2635 17.868 45.3815 18.18 44.3375 18.18ZM50.8315 18V8.622H53.2975V18H50.8315ZM52.0555 7.506C51.6715 7.506 51.3415 7.368 51.0655 7.092C50.7895 6.816 50.6515 6.486 50.6515 6.102C50.6515 5.706 50.7895 5.376 51.0655 5.112C51.3415 4.836 51.6715 4.698 52.0555 4.698C52.4515 4.698 52.7815 4.836 53.0455 5.112C53.3215 5.376 53.4595 5.706 53.4595 6.102C53.4595 6.486 53.3215 6.816 53.0455 7.092C52.7815 7.368 52.4515 7.506 52.0555 7.506ZM54.686 18V5.4L57.152 4.986V18H54.686ZM62.8785 18.126C61.9905 18.126 61.1865 17.91 60.4665 17.478C59.7465 17.046 59.1705 16.47 58.7385 15.75C58.3185 15.018 58.1085 14.202 58.1085 13.302C58.1085 12.402 58.3185 11.592 58.7385 10.872C59.1705 10.14 59.7525 9.564 60.4845 9.144C61.2165 8.712 62.0385 8.496 62.9505 8.496C63.4185 8.496 63.8685 8.562 64.3005 8.694C64.7325 8.814 65.1345 8.994 65.5065 9.234V5.4L67.9725 4.986V18H65.5425V17.226C64.7745 17.826 63.8865 18.126 62.8785 18.126ZM63.2745 16.02C63.7305 16.02 64.1445 15.942 64.5165 15.786C64.9005 15.63 65.2305 15.408 65.5065 15.12V11.466C65.2305 11.19 64.9005 10.974 64.5165 10.818C64.1325 10.662 63.7185 10.584 63.2745 10.584C62.7585 10.584 62.2905 10.704 61.8705 10.944C61.4625 11.172 61.1385 11.496 60.8985 11.916C60.6585 12.324 60.5385 12.786 60.5385 13.302C60.5385 13.818 60.6585 14.28 60.8985 14.688C61.1385 15.096 61.4625 15.42 61.8705 15.66C62.2905 15.9 62.7585 16.02 63.2745 16.02ZM73.9636 18.18C73.0276 18.18 72.1756 17.964 71.4076 17.532C70.6516 17.1 70.0516 16.518 69.6076 15.786C69.1636 15.054 68.9416 14.232 68.9416 13.32C68.9416 12.408 69.1516 11.586 69.5716 10.854C70.0036 10.122 70.5856 9.54 71.3176 9.108C72.0496 8.676 72.8656 8.46 73.7656 8.46C74.6656 8.46 75.4636 8.682 76.1596 9.126C76.8556 9.57 77.4016 10.17 77.7976 10.926C78.2056 11.682 78.4096 12.54 78.4096 13.5V14.148H71.4616C71.5696 14.52 71.7436 14.856 71.9836 15.156C72.2356 15.456 72.5416 15.69 72.9016 15.858C73.2736 16.026 73.6696 16.11 74.0896 16.11C74.5096 16.11 74.8936 16.044 75.2416 15.912C75.6016 15.78 75.9076 15.594 76.1596 15.354L77.7796 16.83C77.2036 17.298 76.6096 17.64 75.9976 17.856C75.3976 18.072 74.7196 18.18 73.9636 18.18ZM71.4256 12.384H75.9796C75.8956 12.012 75.7396 11.688 75.5116 11.412C75.2956 11.124 75.0316 10.902 74.7196 10.746C74.4196 10.578 74.0836 10.494 73.7116 10.494C73.3276 10.494 72.9796 10.572 72.6676 10.728C72.3676 10.884 72.1096 11.106 71.8936 11.394C71.6776 11.67 71.5216 12 71.4256 12.384ZM79.3804 18V8.622H81.8464V9.666C82.1464 9.258 82.5064 8.946 82.9264 8.73C83.3464 8.514 83.8204 8.406 84.3484 8.406C84.8044 8.418 85.1464 8.49 85.3744 8.622V10.782C85.1944 10.698 84.9964 10.638 84.7804 10.602C84.5644 10.554 84.3424 10.53 84.1144 10.53C83.6344 10.53 83.1964 10.65 82.8004 10.89C82.4044 11.13 82.0864 11.472 81.8464 11.916V18H79.3804ZM86.1881 18V5.4L88.6541 4.986V12.564L92.7041 8.622H95.4941L91.0661 12.924L95.7641 18H92.6141L88.6541 13.716V18H86.1881ZM95.8786 18V8.622H98.3446V18H95.8786ZM97.1026 7.506C96.7186 7.506 96.3886 7.368 96.1126 7.092C95.8366 6.816 95.6986 6.486 95.6986 6.102C95.6986 5.706 95.8366 5.376 96.1126 5.112C96.3886 4.836 96.7186 4.698 97.1026 4.698C97.4986 4.698 97.8286 4.836 98.0926 5.112C98.3686 5.376 98.5066 5.706 98.5066 6.102C98.5066 6.486 98.3686 6.816 98.0926 7.092C97.8286 7.368 97.4986 7.506 97.1026 7.506ZM104.179 18.144C103.135 18.144 102.343 17.91 101.803 17.442C101.275 16.962 101.011 16.266 101.011 15.354V10.674H99.0851V8.622H101.011V6.228L103.477 5.67V8.622H106.159V10.674H103.477V14.85C103.477 15.282 103.573 15.594 103.765 15.786C103.957 15.966 104.293 16.056 104.773 16.056C105.013 16.056 105.229 16.044 105.421 16.02C105.625 15.984 105.847 15.924 106.087 15.84V17.874C105.835 17.958 105.523 18.024 105.151 18.072C104.779 18.12 104.455 18.144 104.179 18.144ZM108.1 18.18C107.704 18.18 107.362 18.036 107.074 17.748C106.786 17.46 106.642 17.118 106.642 16.722C106.642 16.314 106.786 15.966 107.074 15.678C107.362 15.39 107.704 15.246 108.1 15.246C108.496 15.246 108.838 15.39 109.126 15.678C109.414 15.966 109.558 16.314 109.558 16.722C109.558 17.118 109.414 17.46 109.126 17.748C108.838 18.036 108.496 18.18 108.1 18.18ZM113.735 18.162C113.063 18.162 112.469 18.042 111.953 17.802C111.437 17.55 111.035 17.208 110.747 16.776C110.459 16.344 110.315 15.846 110.315 15.282C110.315 14.382 110.651 13.686 111.323 13.194C112.007 12.69 112.943 12.438 114.131 12.438C114.947 12.438 115.715 12.564 116.435 12.816V12.132C116.435 11.592 116.267 11.184 115.931 10.908C115.595 10.632 115.103 10.494 114.455 10.494C114.059 10.494 113.633 10.56 113.177 10.692C112.721 10.812 112.193 11.004 111.593 11.268L110.693 9.45C111.437 9.114 112.145 8.862 112.817 8.694C113.501 8.526 114.185 8.442 114.869 8.442C116.129 8.442 117.107 8.748 117.803 9.36C118.511 9.96 118.865 10.812 118.865 11.916V18H116.435V17.334C116.051 17.622 115.637 17.832 115.193 17.964C114.749 18.096 114.263 18.162 113.735 18.162ZM112.655 15.228C112.655 15.588 112.811 15.876 113.123 16.092C113.435 16.296 113.849 16.398 114.365 16.398C114.773 16.398 115.151 16.35 115.499 16.254C115.847 16.146 116.159 15.99 116.435 15.786V14.418C116.135 14.298 115.823 14.208 115.499 14.148C115.175 14.088 114.827 14.058 114.455 14.058C113.891 14.058 113.447 14.166 113.123 14.382C112.811 14.586 112.655 14.868 112.655 15.228ZM120.191 18V8.622H122.657V18H120.191ZM121.415 7.506C121.031 7.506 120.701 7.368 120.425 7.092C120.149 6.816 120.011 6.486 120.011 6.102C120.011 5.706 120.149 5.376 120.425 5.112C120.701 4.836 121.031 4.698 121.415 4.698C121.811 4.698 122.141 4.836 122.405 5.112C122.681 5.376 122.819 5.706 122.819 6.102C122.819 6.486 122.681 6.816 122.405 7.092C122.141 7.368 121.811 7.506 121.415 7.506Z" fill="#3E3E3E"/>
<defs>
<linearGradient id="paint0_linear_1344_1079" x1="12" y1="0" x2="12" y2="24" gradientUnits="userSpaceOnUse">
<stop stop-color="#0F6FFF" stop-opacity="0.9"/>
<stop offset="1" stop-color="#0F6FFF"/>
</linearGradient>
<clipPath id="clip0_1344_1079">
<rect width="12" height="12" fill="white" transform="translate(6.5 5.99988)"/>
</clipPath>
</defs>
</svg>
