<svg width="124" height="25" viewBox="0 0 124 25" fill="none" xmlns="http://www.w3.org/2000/svg">
<rect y="0.5" width="24" height="24" rx="8" fill="#3C50E0"/>
<g clip-path="url(#clip0_1953_514)">
<path fill-rule="evenodd" clip-rule="evenodd" d="M12.5 7.81988C12.5 7.09086 11.909 6.49988 11.18 6.49988H7.82C7.09098 6.49988 6.5 7.09086 6.5 7.81988V11.223C6.5 11.9521 7.09098 12.543 7.82 12.543H11.18C11.909 12.543 12.5 13.134 12.5 13.863V17.1799C12.5 17.9089 13.091 18.4999 13.82 18.4999H17.18C17.909 18.4999 18.5 17.9089 18.5 17.1799V13.7767C18.5 13.0477 17.909 12.4567 17.18 12.4567H13.82C13.091 12.4567 12.5 11.8657 12.5 11.1367V7.81988Z" fill="white"/>
</g>
<path d="M29.134 18.5V5.9H35.056C35.908 5.9 36.652 6.044 37.288 6.332C37.936 6.62 38.434 7.028 38.782 7.556C39.142 8.072 39.322 8.672 39.322 9.356C39.322 9.908 39.178 10.418 38.89 10.886C38.614 11.342 38.236 11.714 37.756 12.002C38.368 12.29 38.854 12.68 39.214 13.172C39.574 13.664 39.754 14.222 39.754 14.846C39.754 15.566 39.568 16.202 39.196 16.754C38.836 17.306 38.32 17.738 37.648 18.05C36.988 18.35 36.22 18.5 35.344 18.5H29.134ZM31.744 11.048H34.894C35.458 11.048 35.902 10.916 36.226 10.652C36.562 10.376 36.73 10.01 36.73 9.554C36.73 9.098 36.562 8.738 36.226 8.474C35.902 8.198 35.458 8.06 34.894 8.06H31.744V11.048ZM31.744 16.34H35.146C35.746 16.34 36.226 16.196 36.586 15.908C36.946 15.608 37.126 15.212 37.126 14.72C37.126 14.216 36.946 13.82 36.586 13.532C36.226 13.232 35.746 13.082 35.146 13.082H31.744V16.34ZM44.3375 18.68C43.6175 18.68 42.9755 18.524 42.4115 18.212C41.8595 17.888 41.4215 17.444 41.0975 16.88C40.7855 16.316 40.6295 15.668 40.6295 14.936V9.122H43.0955V14.576C43.0955 15.176 43.2695 15.656 43.6175 16.016C43.9775 16.376 44.4575 16.556 45.0575 16.556C45.4655 16.556 45.8315 16.478 46.1555 16.322C46.4915 16.154 46.7675 15.92 46.9835 15.62V9.122H49.4495V18.5H46.9835V17.744C46.2635 18.368 45.3815 18.68 44.3375 18.68ZM50.8315 18.5V9.122H53.2975V18.5H50.8315ZM52.0555 8.006C51.6715 8.006 51.3415 7.868 51.0655 7.592C50.7895 7.316 50.6515 6.986 50.6515 6.602C50.6515 6.206 50.7895 5.876 51.0655 5.612C51.3415 5.336 51.6715 5.198 52.0555 5.198C52.4515 5.198 52.7815 5.336 53.0455 5.612C53.3215 5.876 53.4595 6.206 53.4595 6.602C53.4595 6.986 53.3215 7.316 53.0455 7.592C52.7815 7.868 52.4515 8.006 52.0555 8.006ZM54.686 18.5V5.9L57.152 5.486V18.5H54.686ZM62.8785 18.626C61.9905 18.626 61.1865 18.41 60.4665 17.978C59.7465 17.546 59.1705 16.97 58.7385 16.25C58.3185 15.518 58.1085 14.702 58.1085 13.802C58.1085 12.902 58.3185 12.092 58.7385 11.372C59.1705 10.64 59.7525 10.064 60.4845 9.644C61.2165 9.212 62.0385 8.996 62.9505 8.996C63.4185 8.996 63.8685 9.062 64.3005 9.194C64.7325 9.314 65.1345 9.494 65.5065 9.734V5.9L67.9725 5.486V18.5H65.5425V17.726C64.7745 18.326 63.8865 18.626 62.8785 18.626ZM63.2745 16.52C63.7305 16.52 64.1445 16.442 64.5165 16.286C64.9005 16.13 65.2305 15.908 65.5065 15.62V11.966C65.2305 11.69 64.9005 11.474 64.5165 11.318C64.1325 11.162 63.7185 11.084 63.2745 11.084C62.7585 11.084 62.2905 11.204 61.8705 11.444C61.4625 11.672 61.1385 11.996 60.8985 12.416C60.6585 12.824 60.5385 13.286 60.5385 13.802C60.5385 14.318 60.6585 14.78 60.8985 15.188C61.1385 15.596 61.4625 15.92 61.8705 16.16C62.2905 16.4 62.7585 16.52 63.2745 16.52ZM73.9636 18.68C73.0276 18.68 72.1756 18.464 71.4076 18.032C70.6516 17.6 70.0516 17.018 69.6076 16.286C69.1636 15.554 68.9416 14.732 68.9416 13.82C68.9416 12.908 69.1516 12.086 69.5716 11.354C70.0036 10.622 70.5856 10.04 71.3176 9.608C72.0496 9.176 72.8656 8.96 73.7656 8.96C74.6656 8.96 75.4636 9.182 76.1596 9.626C76.8556 10.07 77.4016 10.67 77.7976 11.426C78.2056 12.182 78.4096 13.04 78.4096 14V14.648H71.4616C71.5696 15.02 71.7436 15.356 71.9836 15.656C72.2356 15.956 72.5416 16.19 72.9016 16.358C73.2736 16.526 73.6696 16.61 74.0896 16.61C74.5096 16.61 74.8936 16.544 75.2416 16.412C75.6016 16.28 75.9076 16.094 76.1596 15.854L77.7796 17.33C77.2036 17.798 76.6096 18.14 75.9976 18.356C75.3976 18.572 74.7196 18.68 73.9636 18.68ZM71.4256 12.884H75.9796C75.8956 12.512 75.7396 12.188 75.5116 11.912C75.2956 11.624 75.0316 11.402 74.7196 11.246C74.4196 11.078 74.0836 10.994 73.7116 10.994C73.3276 10.994 72.9796 11.072 72.6676 11.228C72.3676 11.384 72.1096 11.606 71.8936 11.894C71.6776 12.17 71.5216 12.5 71.4256 12.884ZM79.3804 18.5V9.122H81.8464V10.166C82.1464 9.758 82.5064 9.446 82.9264 9.23C83.3464 9.014 83.8204 8.906 84.3484 8.906C84.8044 8.918 85.1464 8.99 85.3744 9.122V11.282C85.1944 11.198 84.9964 11.138 84.7804 11.102C84.5644 11.054 84.3424 11.03 84.1144 11.03C83.6344 11.03 83.1964 11.15 82.8004 11.39C82.4044 11.63 82.0864 11.972 81.8464 12.416V18.5H79.3804ZM86.1881 18.5V5.9L88.6541 5.486V13.064L92.7041 9.122H95.4941L91.0661 13.424L95.7641 18.5H92.6141L88.6541 14.216V18.5H86.1881ZM95.8786 18.5V9.122H98.3446V18.5H95.8786ZM97.1026 8.006C96.7186 8.006 96.3886 7.868 96.1126 7.592C95.8366 7.316 95.6986 6.986 95.6986 6.602C95.6986 6.206 95.8366 5.876 96.1126 5.612C96.3886 5.336 96.7186 5.198 97.1026 5.198C97.4986 5.198 97.8286 5.336 98.0926 5.612C98.3686 5.876 98.5066 6.206 98.5066 6.602C98.5066 6.986 98.3686 7.316 98.0926 7.592C97.8286 7.868 97.4986 8.006 97.1026 8.006ZM104.179 18.644C103.135 18.644 102.343 18.41 101.803 17.942C101.275 17.462 101.011 16.766 101.011 15.854V11.174H99.0851V9.122H101.011V6.728L103.477 6.17V9.122H106.159V11.174H103.477V15.35C103.477 15.782 103.573 16.094 103.765 16.286C103.957 16.466 104.293 16.556 104.773 16.556C105.013 16.556 105.229 16.544 105.421 16.52C105.625 16.484 105.847 16.424 106.087 16.34V18.374C105.835 18.458 105.523 18.524 105.151 18.572C104.779 18.62 104.455 18.644 104.179 18.644ZM108.1 18.68C107.704 18.68 107.362 18.536 107.074 18.248C106.786 17.96 106.642 17.618 106.642 17.222C106.642 16.814 106.786 16.466 107.074 16.178C107.362 15.89 107.704 15.746 108.1 15.746C108.496 15.746 108.838 15.89 109.126 16.178C109.414 16.466 109.558 16.814 109.558 17.222C109.558 17.618 109.414 17.96 109.126 18.248C108.838 18.536 108.496 18.68 108.1 18.68ZM113.735 18.662C113.063 18.662 112.469 18.542 111.953 18.302C111.437 18.05 111.035 17.708 110.747 17.276C110.459 16.844 110.315 16.346 110.315 15.782C110.315 14.882 110.651 14.186 111.323 13.694C112.007 13.19 112.943 12.938 114.131 12.938C114.947 12.938 115.715 13.064 116.435 13.316V12.632C116.435 12.092 116.267 11.684 115.931 11.408C115.595 11.132 115.103 10.994 114.455 10.994C114.059 10.994 113.633 11.06 113.177 11.192C112.721 11.312 112.193 11.504 111.593 11.768L110.693 9.95C111.437 9.614 112.145 9.362 112.817 9.194C113.501 9.026 114.185 8.942 114.869 8.942C116.129 8.942 117.107 9.248 117.803 9.86C118.511 10.46 118.865 11.312 118.865 12.416V18.5H116.435V17.834C116.051 18.122 115.637 18.332 115.193 18.464C114.749 18.596 114.263 18.662 113.735 18.662ZM112.655 15.728C112.655 16.088 112.811 16.376 113.123 16.592C113.435 16.796 113.849 16.898 114.365 16.898C114.773 16.898 115.151 16.85 115.499 16.754C115.847 16.646 116.159 16.49 116.435 16.286V14.918C116.135 14.798 115.823 14.708 115.499 14.648C115.175 14.588 114.827 14.558 114.455 14.558C113.891 14.558 113.447 14.666 113.123 14.882C112.811 15.086 112.655 15.368 112.655 15.728ZM120.191 18.5V9.122H122.657V18.5H120.191ZM121.415 8.006C121.031 8.006 120.701 7.868 120.425 7.592C120.149 7.316 120.011 6.986 120.011 6.602C120.011 6.206 120.149 5.876 120.425 5.612C120.701 5.336 121.031 5.198 121.415 5.198C121.811 5.198 122.141 5.336 122.405 5.612C122.681 5.876 122.819 6.206 122.819 6.602C122.819 6.986 122.681 7.316 122.405 7.592C122.141 7.868 121.811 8.006 121.415 8.006Z" fill="#3E3E3E"/>
<defs>
<clipPath id="clip0_1953_514">
<rect width="12" height="12" fill="white" transform="translate(6.5 6.49988)"/>
</clipPath>
</defs>
</svg>
