<svg width="129" height="48" viewBox="0 0 129 48" fill="none" xmlns="http://www.w3.org/2000/svg">
<path d="M34.3718 19.4837V13.4135C30.475 13.4135 26.6757 14.7247 23.9479 17.0071L23.2173 17.5898L22.4866 17.0071C19.7102 14.7247 15.9595 13.4135 12.0627 13.4135V19.4837C12.0627 21.1348 12.6473 22.6888 13.6215 24C12.6473 25.3112 12.0627 26.8652 12.0627 28.5163V34.5865C15.9595 34.5865 19.7589 33.2753 22.4866 30.9929L23.2173 30.4102C21.3176 29.2933 20.1486 27.3022 20.1486 25.0684V22.9316C20.1486 20.7463 21.3176 18.7067 23.2173 17.5898C25.117 18.7067 26.286 20.7463 26.286 22.9316V25.0684C26.286 27.2536 25.117 29.2933 23.2173 30.4102L23.9479 30.9929C26.7244 33.2753 30.475 34.5865 34.3718 34.5865V28.5163C34.3718 26.8652 33.7873 25.3112 32.8131 24C33.7873 22.6888 34.3718 21.1348 34.3718 19.4837Z" fill="#26AB75"/>
<path d="M48.9939 32.7442C47.3476 32.7442 45.9092 32.37 44.6787 31.6217C43.4482 30.8734 42.492 29.8341 41.8103 28.5038C41.1285 27.1569 40.7876 25.5938 40.7876 23.8145C40.7876 22.0186 41.1368 20.4389 41.8352 19.0754C42.5502 17.6952 43.5563 16.6226 44.8533 15.8577C46.167 15.0762 47.7218 14.6854 49.5177 14.6854C51.563 14.6854 53.2591 15.1759 54.6061 16.157C55.953 17.1381 56.826 18.4934 57.2251 20.2227H53.6582C53.3922 19.4079 52.9099 18.776 52.2115 18.3271C51.5131 17.8615 50.6152 17.6287 49.5177 17.6287C47.7717 17.6287 46.4247 18.1857 45.4769 19.2998C44.5291 20.3973 44.0551 21.9106 44.0551 23.8395C44.0551 25.7684 44.5207 27.265 45.452 28.3292C46.3998 29.3769 47.6802 29.9007 49.2932 29.9007C50.8729 29.9007 52.0619 29.4766 52.8601 28.6286C53.6749 27.7639 54.1654 26.6331 54.3317 25.2363H49.9168V22.8418H57.5494V32.4449H54.6061L54.3566 30.1501C53.7913 30.9815 53.0845 31.6217 52.2365 32.0707C51.3884 32.5197 50.3075 32.7442 48.9939 32.7442ZM65.8438 32.7442C64.5967 32.7442 63.4909 32.4781 62.5264 31.946C61.5619 31.4139 60.8053 30.6656 60.2566 29.7011C59.7078 28.7366 59.4335 27.6225 59.4335 26.3587C59.4335 25.0783 59.6995 23.9393 60.2316 22.9415C60.7804 21.9438 61.5287 21.1706 62.4765 20.6218C63.441 20.0565 64.5717 19.7738 65.8688 19.7738C67.0827 19.7738 68.1552 20.0398 69.0864 20.5719C70.0177 21.1041 70.741 21.8357 71.2565 22.7669C71.7886 23.6815 72.0547 24.7042 72.0547 25.8349C72.0547 26.0179 72.0464 26.2091 72.0297 26.4086C72.0297 26.6082 72.0214 26.816 72.0048 27.0322H62.6012C62.6678 27.9967 63.0003 28.7533 63.599 29.302C64.2142 29.8508 64.9542 30.1251 65.8189 30.1251C66.4674 30.1251 67.0079 29.9838 67.4402 29.7011C67.8892 29.4018 68.2218 29.0193 68.4379 28.5537H71.6805C71.4477 29.3353 71.0569 30.0503 70.5082 30.6988C69.9761 31.3307 69.3109 31.8296 68.5128 32.1954C67.7312 32.5613 66.8416 32.7442 65.8438 32.7442ZM65.8688 22.3678C65.0872 22.3678 64.3971 22.5923 63.7985 23.0413C63.1999 23.4737 62.8174 24.1388 62.6511 25.0368H68.8121C68.7622 24.222 68.4629 23.5734 67.9141 23.0912C67.3654 22.609 66.6836 22.3678 65.8688 22.3678ZM73.9941 32.4449V20.0731H76.8127L77.0621 22.1683C77.4446 21.4366 77.9933 20.8546 78.7084 20.4223C79.44 19.9899 80.2964 19.7738 81.2775 19.7738C82.8074 19.7738 83.9963 20.256 84.8444 21.2205C85.6924 22.1849 86.1165 23.5984 86.1165 25.4608V32.4449H82.9238V25.7601C82.9238 24.6959 82.7076 23.8811 82.2752 23.3157C81.8429 22.7503 81.1694 22.4676 80.2548 22.4676C79.3569 22.4676 78.6169 22.7836 78.0349 23.4155C77.4695 24.0473 77.1868 24.9287 77.1868 26.0594V32.4449H73.9941ZM87.376 32.4449L93.7615 14.9847H97.3533L103.739 32.4449H100.346L98.9496 28.4041H92.1402L90.7184 32.4449H87.376ZM93.0132 25.9098H98.0766L95.5324 18.6513L93.0132 25.9098ZM105.242 32.4449V14.9847H108.435V32.4449H105.242Z" fill="black"/>
</svg>
