<svg width="133" height="32" viewBox="0 0 133 32" fill="none" xmlns="http://www.w3.org/2000/svg">
<rect x="0.174805" width="32" height="32" rx="8" fill="white"/>
<g clip-path="url(#clip0_234_2791)">
<path fill-rule="evenodd" clip-rule="evenodd" d="M16.1748 9.66033C16.1748 8.68831 15.3868 7.90033 14.4148 7.90033H9.9348C8.96278 7.90033 8.1748 8.68831 8.1748 9.66033V14.1979C8.1748 15.1699 8.96278 15.9578 9.9348 15.9578H14.4148C15.3868 15.9578 16.1748 16.7458 16.1748 17.7178V22.1403C16.1748 23.1123 16.9628 23.9003 17.9348 23.9003H22.4148C23.3868 23.9003 24.1748 23.1123 24.1748 22.1403V17.6027C24.1748 16.6307 23.3868 15.8428 22.4148 15.8428H17.9348C16.9628 15.8428 16.1748 15.0548 16.1748 14.0828V9.66033Z" fill="#171821"/>
</g>
<path d="M37.3088 22V9.4H43.2308C44.0828 9.4 44.8268 9.544 45.4628 9.832C46.1108 10.12 46.6088 10.528 46.9568 11.056C47.3168 11.572 47.4968 12.172 47.4968 12.856C47.4968 13.408 47.3528 13.918 47.0648 14.386C46.7888 14.842 46.4108 15.214 45.9308 15.502C46.5428 15.79 47.0288 16.18 47.3888 16.672C47.7488 17.164 47.9288 17.722 47.9288 18.346C47.9288 19.066 47.7428 19.702 47.3708 20.254C47.0108 20.806 46.4948 21.238 45.8228 21.55C45.1628 21.85 44.3948 22 43.5188 22H37.3088ZM39.9188 14.548H43.0688C43.6328 14.548 44.0768 14.416 44.4008 14.152C44.7368 13.876 44.9048 13.51 44.9048 13.054C44.9048 12.598 44.7368 12.238 44.4008 11.974C44.0768 11.698 43.6328 11.56 43.0688 11.56H39.9188V14.548ZM39.9188 19.84H43.3208C43.9208 19.84 44.4008 19.696 44.7608 19.408C45.1208 19.108 45.3008 18.712 45.3008 18.22C45.3008 17.716 45.1208 17.32 44.7608 17.032C44.4008 16.732 43.9208 16.582 43.3208 16.582H39.9188V19.84ZM52.5123 22.18C51.7923 22.18 51.1503 22.024 50.5863 21.712C50.0343 21.388 49.5963 20.944 49.2723 20.38C48.9603 19.816 48.8043 19.168 48.8043 18.436V12.622H51.2703V18.076C51.2703 18.676 51.4443 19.156 51.7923 19.516C52.1523 19.876 52.6323 20.056 53.2323 20.056C53.6403 20.056 54.0063 19.978 54.3303 19.822C54.6663 19.654 54.9423 19.42 55.1583 19.12V12.622H57.6243V22H55.1583V21.244C54.4383 21.868 53.5563 22.18 52.5123 22.18ZM59.0063 22V12.622H61.4723V22H59.0063ZM60.2303 11.506C59.8463 11.506 59.5163 11.368 59.2403 11.092C58.9643 10.816 58.8263 10.486 58.8263 10.102C58.8263 9.706 58.9643 9.376 59.2403 9.112C59.5163 8.836 59.8463 8.698 60.2303 8.698C60.6263 8.698 60.9563 8.836 61.2203 9.112C61.4963 9.376 61.6343 9.706 61.6343 10.102C61.6343 10.486 61.4963 10.816 61.2203 11.092C60.9563 11.368 60.6263 11.506 60.2303 11.506ZM62.8608 22V9.4L65.3268 8.986V22H62.8608ZM71.0533 22.126C70.1653 22.126 69.3613 21.91 68.6413 21.478C67.9213 21.046 67.3453 20.47 66.9133 19.75C66.4933 19.018 66.2833 18.202 66.2833 17.302C66.2833 16.402 66.4933 15.592 66.9133 14.872C67.3453 14.14 67.9273 13.564 68.6593 13.144C69.3913 12.712 70.2133 12.496 71.1253 12.496C71.5933 12.496 72.0433 12.562 72.4753 12.694C72.9073 12.814 73.3093 12.994 73.6813 13.234V9.4L76.1473 8.986V22H73.7173V21.226C72.9493 21.826 72.0613 22.126 71.0533 22.126ZM71.4493 20.02C71.9053 20.02 72.3193 19.942 72.6913 19.786C73.0753 19.63 73.4053 19.408 73.6813 19.12V15.466C73.4053 15.19 73.0753 14.974 72.6913 14.818C72.3073 14.662 71.8933 14.584 71.4493 14.584C70.9333 14.584 70.4653 14.704 70.0453 14.944C69.6373 15.172 69.3133 15.496 69.0733 15.916C68.8333 16.324 68.7133 16.786 68.7133 17.302C68.7133 17.818 68.8333 18.28 69.0733 18.688C69.3133 19.096 69.6373 19.42 70.0453 19.66C70.4653 19.9 70.9333 20.02 71.4493 20.02ZM82.1384 22.18C81.2024 22.18 80.3504 21.964 79.5824 21.532C78.8264 21.1 78.2264 20.518 77.7824 19.786C77.3384 19.054 77.1164 18.232 77.1164 17.32C77.1164 16.408 77.3264 15.586 77.7464 14.854C78.1784 14.122 78.7604 13.54 79.4924 13.108C80.2244 12.676 81.0404 12.46 81.9404 12.46C82.8404 12.46 83.6384 12.682 84.3344 13.126C85.0304 13.57 85.5764 14.17 85.9724 14.926C86.3804 15.682 86.5844 16.54 86.5844 17.5V18.148H79.6364C79.7444 18.52 79.9184 18.856 80.1584 19.156C80.4104 19.456 80.7164 19.69 81.0764 19.858C81.4484 20.026 81.8444 20.11 82.2644 20.11C82.6844 20.11 83.0684 20.044 83.4164 19.912C83.7764 19.78 84.0824 19.594 84.3344 19.354L85.9544 20.83C85.3784 21.298 84.7844 21.64 84.1724 21.856C83.5724 22.072 82.8944 22.18 82.1384 22.18ZM79.6004 16.384H84.1544C84.0704 16.012 83.9144 15.688 83.6864 15.412C83.4704 15.124 83.2064 14.902 82.8944 14.746C82.5944 14.578 82.2584 14.494 81.8864 14.494C81.5024 14.494 81.1544 14.572 80.8424 14.728C80.5424 14.884 80.2844 15.106 80.0684 15.394C79.8524 15.67 79.6964 16 79.6004 16.384ZM87.5552 22V12.622H90.0212V13.666C90.3212 13.258 90.6812 12.946 91.1012 12.73C91.5212 12.514 91.9952 12.406 92.5232 12.406C92.9792 12.418 93.3212 12.49 93.5492 12.622V14.782C93.3692 14.698 93.1712 14.638 92.9552 14.602C92.7392 14.554 92.5172 14.53 92.2892 14.53C91.8092 14.53 91.3712 14.65 90.9752 14.89C90.5792 15.13 90.2612 15.472 90.0212 15.916V22H87.5552ZM94.3629 22V9.4L96.8289 8.986V16.564L100.879 12.622H103.669L99.2409 16.924L103.939 22H100.789L96.8289 17.716V22H94.3629ZM104.053 22V12.622H106.519V22H104.053ZM105.277 11.506C104.893 11.506 104.563 11.368 104.287 11.092C104.011 10.816 103.873 10.486 103.873 10.102C103.873 9.706 104.011 9.376 104.287 9.112C104.563 8.836 104.893 8.698 105.277 8.698C105.673 8.698 106.003 8.836 106.267 9.112C106.543 9.376 106.681 9.706 106.681 10.102C106.681 10.486 106.543 10.816 106.267 11.092C106.003 11.368 105.673 11.506 105.277 11.506ZM112.354 22.144C111.31 22.144 110.518 21.91 109.978 21.442C109.45 20.962 109.186 20.266 109.186 19.354V14.674H107.26V12.622H109.186V10.228L111.652 9.67V12.622H114.334V14.674H111.652V18.85C111.652 19.282 111.748 19.594 111.94 19.786C112.132 19.966 112.468 20.056 112.948 20.056C113.188 20.056 113.404 20.044 113.596 20.02C113.8 19.984 114.022 19.924 114.262 19.84V21.874C114.01 21.958 113.698 22.024 113.326 22.072C112.954 22.12 112.63 22.144 112.354 22.144ZM116.275 22.18C115.879 22.18 115.537 22.036 115.249 21.748C114.961 21.46 114.817 21.118 114.817 20.722C114.817 20.314 114.961 19.966 115.249 19.678C115.537 19.39 115.879 19.246 116.275 19.246C116.671 19.246 117.013 19.39 117.301 19.678C117.589 19.966 117.733 20.314 117.733 20.722C117.733 21.118 117.589 21.46 117.301 21.748C117.013 22.036 116.671 22.18 116.275 22.18ZM121.91 22.162C121.238 22.162 120.644 22.042 120.128 21.802C119.612 21.55 119.21 21.208 118.922 20.776C118.634 20.344 118.49 19.846 118.49 19.282C118.49 18.382 118.826 17.686 119.498 17.194C120.182 16.69 121.118 16.438 122.306 16.438C123.122 16.438 123.89 16.564 124.61 16.816V16.132C124.61 15.592 124.442 15.184 124.106 14.908C123.77 14.632 123.278 14.494 122.63 14.494C122.234 14.494 121.808 14.56 121.352 14.692C120.896 14.812 120.368 15.004 119.768 15.268L118.868 13.45C119.612 13.114 120.32 12.862 120.992 12.694C121.676 12.526 122.36 12.442 123.044 12.442C124.304 12.442 125.282 12.748 125.978 13.36C126.686 13.96 127.04 14.812 127.04 15.916V22H124.61V21.334C124.226 21.622 123.812 21.832 123.368 21.964C122.924 22.096 122.438 22.162 121.91 22.162ZM120.83 19.228C120.83 19.588 120.986 19.876 121.298 20.092C121.61 20.296 122.024 20.398 122.54 20.398C122.948 20.398 123.326 20.35 123.674 20.254C124.022 20.146 124.334 19.99 124.61 19.786V18.418C124.31 18.298 123.998 18.208 123.674 18.148C123.35 18.088 123.002 18.058 122.63 18.058C122.066 18.058 121.622 18.166 121.298 18.382C120.986 18.586 120.83 18.868 120.83 19.228ZM128.366 22V12.622H130.832V22H128.366ZM129.59 11.506C129.206 11.506 128.876 11.368 128.6 11.092C128.324 10.816 128.186 10.486 128.186 10.102C128.186 9.706 128.324 9.376 128.6 9.112C128.876 8.836 129.206 8.698 129.59 8.698C129.986 8.698 130.316 8.836 130.58 9.112C130.856 9.376 130.994 9.706 130.994 10.102C130.994 10.486 130.856 10.816 130.58 11.092C130.316 11.368 129.986 11.506 129.59 11.506Z" fill="white"/>
<defs>
<clipPath id="clip0_234_2791">
<rect width="16" height="16" fill="white" transform="translate(8.1748 7.90033)"/>
</clipPath>
</defs>
</svg>
