<svg width="94" height="15" viewBox="0 0 94 15" fill="none" xmlns="http://www.w3.org/2000/svg">
<path d="M0.134 14V1.4H6.056C6.908 1.4 7.652 1.544 8.288 1.832C8.936 2.12 9.434 2.528 9.782 3.056C10.142 3.572 10.322 4.172 10.322 4.856C10.322 5.408 10.178 5.918 9.89 6.386C9.614 6.842 9.236 7.214 8.756 7.502C9.368 7.79 9.854 8.18 10.214 8.672C10.574 9.164 10.754 9.722 10.754 10.346C10.754 11.066 10.568 11.702 10.196 12.254C9.836 12.806 9.32 13.238 8.648 13.55C7.988 13.85 7.22 14 6.344 14H0.134ZM2.744 6.548H5.894C6.458 6.548 6.902 6.416 7.226 6.152C7.562 5.876 7.73 5.51 7.73 5.054C7.73 4.598 7.562 4.238 7.226 3.974C6.902 3.698 6.458 3.56 5.894 3.56H2.744V6.548ZM2.744 11.84H6.146C6.746 11.84 7.226 11.696 7.586 11.408C7.946 11.108 8.126 10.712 8.126 10.22C8.126 9.716 7.946 9.32 7.586 9.032C7.226 8.732 6.746 8.582 6.146 8.582H2.744V11.84ZM15.3375 14.18C14.6175 14.18 13.9755 14.024 13.4115 13.712C12.8595 13.388 12.4215 12.944 12.0975 12.38C11.7855 11.816 11.6295 11.168 11.6295 10.436V4.622H14.0955V10.076C14.0955 10.676 14.2695 11.156 14.6175 11.516C14.9775 11.876 15.4575 12.056 16.0575 12.056C16.4655 12.056 16.8315 11.978 17.1555 11.822C17.4915 11.654 17.7675 11.42 17.9835 11.12V4.622H20.4495V14H17.9835V13.244C17.2635 13.868 16.3815 14.18 15.3375 14.18ZM21.8315 14V4.622H24.2975V14H21.8315ZM23.0555 3.506C22.6715 3.506 22.3415 3.368 22.0655 3.092C21.7895 2.816 21.6515 2.486 21.6515 2.102C21.6515 1.706 21.7895 1.376 22.0655 1.112C22.3415 0.836 22.6715 0.698 23.0555 0.698C23.4515 0.698 23.7815 0.836 24.0455 1.112C24.3215 1.376 24.4595 1.706 24.4595 2.102C24.4595 2.486 24.3215 2.816 24.0455 3.092C23.7815 3.368 23.4515 3.506 23.0555 3.506ZM25.686 14V1.4L28.152 0.985999V14H25.686ZM33.8785 14.126C32.9905 14.126 32.1865 13.91 31.4665 13.478C30.7465 13.046 30.1705 12.47 29.7385 11.75C29.3185 11.018 29.1085 10.202 29.1085 9.302C29.1085 8.402 29.3185 7.592 29.7385 6.872C30.1705 6.14 30.7525 5.564 31.4845 5.144C32.2165 4.712 33.0385 4.496 33.9505 4.496C34.4185 4.496 34.8685 4.562 35.3005 4.694C35.7325 4.814 36.1345 4.994 36.5065 5.234V1.4L38.9725 0.985999V14H36.5425V13.226C35.7745 13.826 34.8865 14.126 33.8785 14.126ZM34.2745 12.02C34.7305 12.02 35.1445 11.942 35.5165 11.786C35.9005 11.63 36.2305 11.408 36.5065 11.12V7.466C36.2305 7.19 35.9005 6.974 35.5165 6.818C35.1325 6.662 34.7185 6.584 34.2745 6.584C33.7585 6.584 33.2905 6.704 32.8705 6.944C32.4625 7.172 32.1385 7.496 31.8985 7.916C31.6585 8.324 31.5385 8.786 31.5385 9.302C31.5385 9.818 31.6585 10.28 31.8985 10.688C32.1385 11.096 32.4625 11.42 32.8705 11.66C33.2905 11.9 33.7585 12.02 34.2745 12.02ZM44.9636 14.18C44.0276 14.18 43.1756 13.964 42.4076 13.532C41.6516 13.1 41.0516 12.518 40.6076 11.786C40.1636 11.054 39.9416 10.232 39.9416 9.32C39.9416 8.408 40.1516 7.586 40.5716 6.854C41.0036 6.122 41.5856 5.54 42.3176 5.108C43.0496 4.676 43.8656 4.46 44.7656 4.46C45.6656 4.46 46.4636 4.682 47.1596 5.126C47.8556 5.57 48.4016 6.17 48.7976 6.926C49.2056 7.682 49.4096 8.54 49.4096 9.5V10.148H42.4616C42.5696 10.52 42.7436 10.856 42.9836 11.156C43.2356 11.456 43.5416 11.69 43.9016 11.858C44.2736 12.026 44.6696 12.11 45.0896 12.11C45.5096 12.11 45.8936 12.044 46.2416 11.912C46.6016 11.78 46.9076 11.594 47.1596 11.354L48.7796 12.83C48.2036 13.298 47.6096 13.64 46.9976 13.856C46.3976 14.072 45.7196 14.18 44.9636 14.18ZM42.4256 8.384H46.9796C46.8956 8.012 46.7396 7.688 46.5116 7.412C46.2956 7.124 46.0316 6.902 45.7196 6.746C45.4196 6.578 45.0836 6.494 44.7116 6.494C44.3276 6.494 43.9796 6.572 43.6676 6.728C43.3676 6.884 43.1096 7.106 42.8936 7.394C42.6776 7.67 42.5216 8 42.4256 8.384ZM50.3804 14V4.622H52.8464V5.666C53.1464 5.258 53.5064 4.946 53.9264 4.73C54.3464 4.514 54.8204 4.406 55.3484 4.406C55.8044 4.418 56.1464 4.49 56.3744 4.622V6.782C56.1944 6.698 55.9964 6.638 55.7804 6.602C55.5644 6.554 55.3424 6.53 55.1144 6.53C54.6344 6.53 54.1964 6.65 53.8004 6.89C53.4044 7.13 53.0864 7.472 52.8464 7.916V14H50.3804ZM57.1881 14V1.4L59.6541 0.985999V8.564L63.7041 4.622H66.4941L62.0661 8.924L66.7641 14H63.6141L59.6541 9.716V14H57.1881ZM66.8786 14V4.622H69.3446V14H66.8786ZM68.1026 3.506C67.7186 3.506 67.3886 3.368 67.1126 3.092C66.8366 2.816 66.6986 2.486 66.6986 2.102C66.6986 1.706 66.8366 1.376 67.1126 1.112C67.3886 0.836 67.7186 0.698 68.1026 0.698C68.4986 0.698 68.8286 0.836 69.0926 1.112C69.3686 1.376 69.5066 1.706 69.5066 2.102C69.5066 2.486 69.3686 2.816 69.0926 3.092C68.8286 3.368 68.4986 3.506 68.1026 3.506ZM75.1791 14.144C74.1351 14.144 73.3431 13.91 72.8031 13.442C72.2751 12.962 72.0111 12.266 72.0111 11.354V6.674H70.0851V4.622H72.0111V2.228L74.4771 1.67V4.622H77.1591V6.674H74.4771V10.85C74.4771 11.282 74.5731 11.594 74.7651 11.786C74.9571 11.966 75.2931 12.056 75.7731 12.056C76.0131 12.056 76.2291 12.044 76.4211 12.02C76.6251 11.984 76.8471 11.924 77.0871 11.84V13.874C76.8351 13.958 76.5231 14.024 76.1511 14.072C75.7791 14.12 75.4551 14.144 75.1791 14.144ZM79.1 14.18C78.704 14.18 78.362 14.036 78.074 13.748C77.786 13.46 77.642 13.118 77.642 12.722C77.642 12.314 77.786 11.966 78.074 11.678C78.362 11.39 78.704 11.246 79.1 11.246C79.496 11.246 79.838 11.39 80.126 11.678C80.414 11.966 80.558 12.314 80.558 12.722C80.558 13.118 80.414 13.46 80.126 13.748C79.838 14.036 79.496 14.18 79.1 14.18ZM84.7348 14.162C84.0628 14.162 83.4688 14.042 82.9528 13.802C82.4368 13.55 82.0348 13.208 81.7468 12.776C81.4588 12.344 81.3148 11.846 81.3148 11.282C81.3148 10.382 81.6508 9.686 82.3228 9.194C83.0068 8.69 83.9428 8.438 85.1308 8.438C85.9468 8.438 86.7148 8.564 87.4348 8.816V8.132C87.4348 7.592 87.2668 7.184 86.9308 6.908C86.5948 6.632 86.1028 6.494 85.4548 6.494C85.0588 6.494 84.6328 6.56 84.1768 6.692C83.7208 6.812 83.1928 7.004 82.5928 7.268L81.6928 5.45C82.4368 5.114 83.1448 4.862 83.8168 4.694C84.5008 4.526 85.1848 4.442 85.8688 4.442C87.1288 4.442 88.1068 4.748 88.8028 5.36C89.5108 5.96 89.8648 6.812 89.8648 7.916V14H87.4348V13.334C87.0508 13.622 86.6368 13.832 86.1928 13.964C85.7488 14.096 85.2628 14.162 84.7348 14.162ZM83.6548 11.228C83.6548 11.588 83.8108 11.876 84.1228 12.092C84.4348 12.296 84.8488 12.398 85.3648 12.398C85.7728 12.398 86.1508 12.35 86.4988 12.254C86.8468 12.146 87.1588 11.99 87.4348 11.786V10.418C87.1348 10.298 86.8228 10.208 86.4988 10.148C86.1748 10.088 85.8268 10.058 85.4548 10.058C84.8908 10.058 84.4468 10.166 84.1228 10.382C83.8108 10.586 83.6548 10.868 83.6548 11.228ZM91.1912 14V4.622H93.6572V14H91.1912ZM92.4152 3.506C92.0312 3.506 91.7012 3.368 91.4252 3.092C91.1492 2.816 91.0112 2.486 91.0112 2.102C91.0112 1.706 91.1492 1.376 91.4252 1.112C91.7012 0.836 92.0312 0.698 92.4152 0.698C92.8112 0.698 93.1412 0.836 93.4052 1.112C93.6812 1.376 93.8192 1.706 93.8192 2.102C93.8192 2.486 93.6812 2.816 93.4052 3.092C93.1412 3.368 92.8112 3.506 92.4152 3.506Z" fill="#3E3E3E"/>
</svg>
