<svg width="1146" height="133" viewBox="0 0 1146 133" fill="none" xmlns="http://www.w3.org/2000/svg">
<path d="M0.86 162.814V8.81444H73.24C83.6533 8.81444 92.7467 10.5744 100.52 14.0944C108.44 17.6144 114.527 22.6011 118.78 29.0544C123.18 35.3611 125.38 42.6945 125.38 51.0544C125.38 57.8011 123.62 64.0345 120.1 69.7545C116.727 75.3278 112.107 79.8744 106.24 83.3944C113.72 86.9144 119.66 91.6811 124.06 97.6945C128.46 103.708 130.66 110.528 130.66 118.154C130.66 126.954 128.387 134.728 123.84 141.474C119.44 148.221 113.133 153.501 104.92 157.314C96.8533 160.981 87.4667 162.814 76.76 162.814H0.86ZM32.76 71.7344H71.26C78.1533 71.7344 83.58 70.1211 87.54 66.8944C91.6467 63.5211 93.7 59.0478 93.7 53.4745C93.7 47.9011 91.6467 43.5011 87.54 40.2744C83.58 36.9011 78.1533 35.2144 71.26 35.2144H32.76V71.7344ZM32.76 136.414H74.34C81.6733 136.414 87.54 134.654 91.94 131.134C96.34 127.468 98.54 122.628 98.54 116.614C98.54 110.454 96.34 105.614 91.94 102.094C87.54 98.4278 81.6733 96.5944 74.34 96.5944H32.76V136.414ZM186.681 165.014C177.881 165.014 170.034 163.108 163.141 159.294C156.394 155.334 151.041 149.908 147.081 143.014C143.268 136.121 141.361 128.201 141.361 119.254V48.1944H171.501V114.854C171.501 122.188 173.628 128.054 177.881 132.454C182.281 136.854 188.148 139.054 195.481 139.054C200.468 139.054 204.941 138.101 208.901 136.194C213.008 134.141 216.381 131.281 219.021 127.614V48.1944H249.161V162.814H219.021V153.574C210.221 161.201 199.441 165.014 186.681 165.014ZM266.051 162.814V48.1944H296.191V162.814H266.051ZM281.011 34.5545C276.318 34.5545 272.284 32.8678 268.911 29.4945C265.538 26.1211 263.851 22.0878 263.851 17.3945C263.851 12.5545 265.538 8.52112 268.911 5.29445C272.284 1.92112 276.318 0.234448 281.011 0.234448C285.851 0.234448 289.884 1.92112 293.111 5.29445C296.484 8.52112 298.171 12.5545 298.171 17.3945C298.171 22.0878 296.484 26.1211 293.111 29.4945C289.884 32.8678 285.851 34.5545 281.011 34.5545ZM313.162 162.814V8.81444L343.302 3.75444V162.814H313.162ZM413.293 164.354C402.44 164.354 392.613 161.714 383.813 156.434C375.013 151.154 367.973 144.114 362.693 135.314C357.56 126.368 354.993 116.394 354.993 105.394C354.993 94.3944 357.56 84.4944 362.693 75.6944C367.973 66.7478 375.086 59.7078 384.033 54.5745C392.98 49.2945 403.026 46.6545 414.173 46.6545C419.893 46.6545 425.393 47.4611 430.673 49.0744C435.953 50.5411 440.866 52.7411 445.413 55.6744V8.81444L475.553 3.75444V162.814H445.853V153.354C436.466 160.688 425.613 164.354 413.293 164.354ZM418.133 138.614C423.706 138.614 428.766 137.661 433.313 135.754C438.006 133.848 442.04 131.134 445.413 127.614V82.9545C442.04 79.5811 438.006 76.9411 433.313 75.0344C428.62 73.1278 423.56 72.1744 418.133 72.1744C411.826 72.1744 406.106 73.6411 400.973 76.5744C395.986 79.3611 392.026 83.3211 389.093 88.4544C386.16 93.4411 384.693 99.0878 384.693 105.394C384.693 111.701 386.16 117.348 389.093 122.334C392.026 127.321 395.986 131.281 400.973 134.214C406.106 137.148 411.826 138.614 418.133 138.614ZM548.777 165.014C537.337 165.014 526.924 162.374 517.537 157.094C508.297 151.814 500.964 144.701 495.537 135.754C490.11 126.808 487.397 116.761 487.397 105.614C487.397 94.4678 489.964 84.4211 495.097 75.4744C500.377 66.5278 507.49 59.4144 516.437 54.1344C525.384 48.8544 535.357 46.2144 546.357 46.2144C557.357 46.2144 567.11 48.9278 575.617 54.3544C584.124 59.7811 590.797 67.1144 595.637 76.3545C600.624 85.5945 603.117 96.0811 603.117 107.814V115.734H518.197C519.517 120.281 521.644 124.388 524.577 128.054C527.657 131.721 531.397 134.581 535.797 136.634C540.344 138.688 545.184 139.714 550.317 139.714C555.45 139.714 560.144 138.908 564.397 137.294C568.797 135.681 572.537 133.408 575.617 130.474L595.417 148.514C588.377 154.234 581.117 158.414 573.637 161.054C566.304 163.694 558.017 165.014 548.777 165.014ZM517.757 94.1745H573.417C572.39 89.6278 570.484 85.6678 567.697 82.2944C565.057 78.7744 561.83 76.0611 558.017 74.1544C554.35 72.1011 550.244 71.0744 545.697 71.0744C541.004 71.0744 536.75 72.0278 532.937 73.9345C529.27 75.8411 526.117 78.5544 523.477 82.0745C520.837 85.4478 518.93 89.4811 517.757 94.1745ZM614.983 162.814V48.1944H645.123V60.9544C648.79 55.9678 653.19 52.1544 658.323 49.5144C663.456 46.8744 669.25 45.5544 675.703 45.5544C681.276 45.7011 685.456 46.5811 688.243 48.1944V74.5944C686.043 73.5678 683.623 72.8344 680.983 72.3945C678.343 71.8078 675.63 71.5144 672.843 71.5144C666.976 71.5144 661.623 72.9811 656.783 75.9145C651.943 78.8478 648.056 83.0278 645.123 88.4544V162.814H614.983ZM698.188 162.814V8.81444L728.328 3.75444V96.3744L777.828 48.1944H811.928L757.808 100.774L815.228 162.814H776.728L728.328 110.454V162.814H698.188ZM816.627 162.814V48.1944H846.767V162.814H816.627ZM831.587 34.5545C826.894 34.5545 822.86 32.8678 819.487 29.4945C816.114 26.1211 814.427 22.0878 814.427 17.3945C814.427 12.5545 816.114 8.52112 819.487 5.29445C822.86 1.92112 826.894 0.234448 831.587 0.234448C836.427 0.234448 840.46 1.92112 843.687 5.29445C847.06 8.52112 848.747 12.5545 848.747 17.3945C848.747 22.0878 847.06 26.1211 843.687 29.4945C840.46 32.8678 836.427 34.5545 831.587 34.5545ZM918.078 164.574C905.318 164.574 895.638 161.714 889.038 155.994C882.584 150.128 879.358 141.621 879.358 130.474V73.2745H855.818V48.1944H879.358V18.9344L909.498 12.1144V48.1944H942.278V73.2745H909.498V124.314C909.498 129.594 910.671 133.408 913.018 135.754C915.364 137.954 919.471 139.054 925.338 139.054C928.271 139.054 930.911 138.908 933.258 138.614C935.751 138.174 938.464 137.441 941.398 136.414V161.274C938.318 162.301 934.504 163.108 929.958 163.694C925.411 164.281 921.451 164.574 918.078 164.574ZM966 165.014C961.16 165.014 956.98 163.254 953.46 159.734C949.94 156.214 948.18 152.034 948.18 147.194C948.18 142.208 949.94 137.954 953.46 134.434C956.98 130.914 961.16 129.154 966 129.154C970.84 129.154 975.02 130.914 978.54 134.434C982.06 137.954 983.82 142.208 983.82 147.194C983.82 152.034 982.06 156.214 978.54 159.734C975.02 163.254 970.84 165.014 966 165.014ZM1034.87 164.794C1026.66 164.794 1019.4 163.328 1013.09 160.394C1006.78 157.314 1001.87 153.134 998.35 147.854C994.83 142.574 993.07 136.488 993.07 129.594C993.07 118.594 997.177 110.088 1005.39 104.074C1013.75 97.9144 1025.19 94.8344 1039.71 94.8344C1049.68 94.8344 1059.07 96.3744 1067.87 99.4544V91.0945C1067.87 84.4944 1065.82 79.5078 1061.71 76.1344C1057.6 72.7611 1051.59 71.0744 1043.67 71.0744C1038.83 71.0744 1033.62 71.8811 1028.05 73.4944C1022.48 74.9611 1016.02 77.3078 1008.69 80.5345L997.69 58.3144C1006.78 54.2078 1015.44 51.1278 1023.65 49.0744C1032.01 47.0211 1040.37 45.9944 1048.73 45.9944C1064.13 45.9944 1076.08 49.7344 1084.59 57.2144C1093.24 64.5478 1097.57 74.9611 1097.57 88.4544V162.814H1067.87V154.674C1063.18 158.194 1058.12 160.761 1052.69 162.374C1047.26 163.988 1041.32 164.794 1034.87 164.794ZM1021.67 128.934C1021.67 133.334 1023.58 136.854 1027.39 139.494C1031.2 141.988 1036.26 143.234 1042.57 143.234C1047.56 143.234 1052.18 142.648 1056.43 141.474C1060.68 140.154 1064.5 138.248 1067.87 135.754V119.034C1064.2 117.568 1060.39 116.468 1056.43 115.734C1052.47 115.001 1048.22 114.634 1043.67 114.634C1036.78 114.634 1031.35 115.954 1027.39 118.594C1023.58 121.088 1021.67 124.534 1021.67 128.934ZM1113.78 162.814V48.1944H1143.92V162.814H1113.78ZM1128.74 34.5545C1124.05 34.5545 1120.01 32.8678 1116.64 29.4945C1113.27 26.1211 1111.58 22.0878 1111.58 17.3945C1111.58 12.5545 1113.27 8.52112 1116.64 5.29445C1120.01 1.92112 1124.05 0.234448 1128.74 0.234448C1133.58 0.234448 1137.61 1.92112 1140.84 5.29445C1144.21 8.52112 1145.9 12.5545 1145.9 17.3945C1145.9 22.0878 1144.21 26.1211 1140.84 29.4945C1137.61 32.8678 1133.58 34.5545 1128.74 34.5545Z" fill="white" fill-opacity="0.08"/>
</svg>
