<svg width="167" height="72" viewBox="0 0 167 72" fill="none" xmlns="http://www.w3.org/2000/svg">
<g clip-path="url(#clip0_2137_1827)">
<path fill-rule="evenodd" clip-rule="evenodd" d="M139.884 23.9626C139.96 24.4132 140.028 24.801 140.065 25.0058C140.294 26.2512 140.486 29.4135 141.368 31.5642C142.04 33.2052 143.114 34.264 144.748 33.8827C146.233 33.536 147.157 32.0557 147.602 30.0092C148.559 25.6048 147.405 18.5684 146.507 16.5328C146.409 16.3106 146.15 16.2099 145.928 16.308C145.707 16.4056 145.606 16.6643 145.704 16.8865C146.565 18.8402 147.663 25.5947 146.744 29.8231C146.385 31.4757 145.747 32.748 144.548 33.0278C143.364 33.3044 142.667 32.4213 142.18 31.2317C141.322 29.1388 141.151 26.06 140.929 24.8472C140.789 24.087 140.339 21.1726 140.24 20.9321C140.117 20.6309 139.862 20.6391 139.778 20.6481C139.713 20.655 139.392 20.7102 139.377 21.109C139.166 26.7949 134.907 35.3741 128.642 41.117C122.432 46.8096 114.222 49.713 105.997 44.0661C105.797 43.9293 105.523 43.9802 105.386 44.1793C105.249 44.3793 105.3 44.6528 105.5 44.7896C114.119 50.7062 122.729 47.7282 129.235 41.7647C134.718 36.7388 138.684 29.59 139.884 23.9626Z" fill="#0D121F"/>
<path fill-rule="evenodd" clip-rule="evenodd" d="M106.216 44.6631C107.248 44.5782 108.277 44.5264 109.303 44.3613C112.035 43.9218 114.781 42.8864 116.997 41.2124C117.191 41.0655 117.228 40.7903 117.083 40.5972C116.936 40.4036 116.661 40.3659 116.468 40.5113C114.365 42.1014 111.756 43.0774 109.164 43.4941C107.99 43.6826 106.809 43.7205 105.627 43.8332C105.569 43.8396 105.054 43.8729 104.947 43.9098C104.698 43.9942 104.649 44.1882 104.638 44.2809C104.627 44.3582 104.633 44.4533 104.684 44.5594C104.725 44.6463 104.843 44.7925 105.042 44.9546C105.679 45.4756 107.338 46.4778 107.593 46.6712C110.516 48.8869 112.863 51.4388 115.401 54.0638C115.57 54.2374 115.848 54.2425 116.022 54.0743C116.196 53.9062 116.2 53.6283 116.032 53.4542C113.462 50.7958 111.082 48.2148 108.124 45.9726C107.949 45.8391 106.94 45.1533 106.216 44.6631Z" fill="#0D121F"/>
</g>
<rect x="0.911133" y="31.0004" width="89" height="29" rx="14.5" fill="#009429" fill-opacity="0.2"/>
<path d="M17.6571 51.1684C18.3385 51.1684 18.9358 51.047 19.4491 50.8044C19.9718 50.5524 20.3778 50.207 20.6671 49.7684C20.9658 49.3297 21.1151 48.8257 21.1151 48.2564C21.1151 46.8937 20.2845 45.9557 18.6231 45.4424L16.8731 44.9244C16.3785 44.7657 16.0098 44.537 15.7671 44.2384C15.5245 43.9304 15.4031 43.5897 15.4031 43.2164C15.4031 42.731 15.5758 42.3484 15.9211 42.0684C16.2665 41.779 16.7191 41.6344 17.2791 41.6344C17.8858 41.6344 18.4131 41.7884 18.8611 42.0964C19.3185 42.4044 19.6545 42.8477 19.8691 43.4264L21.0451 42.9364C20.8865 42.4604 20.6251 42.031 20.2611 41.6484C19.9065 41.2657 19.4725 40.9624 18.9591 40.7384C18.4551 40.5144 17.8905 40.4024 17.2651 40.4024C16.6398 40.4024 16.0798 40.5284 15.5851 40.7804C15.0998 41.023 14.7171 41.3637 14.4371 41.8024C14.1665 42.2317 14.0311 42.731 14.0311 43.3004C14.0311 43.9537 14.2318 44.5324 14.6331 45.0364C15.0345 45.5404 15.6131 45.909 16.3691 46.1424L18.2871 46.7304C18.7538 46.8704 19.1131 47.0664 19.3651 47.3184C19.6171 47.5704 19.7431 47.9157 19.7431 48.3544C19.7431 48.8397 19.5518 49.227 19.1691 49.5164C18.7958 49.7964 18.3011 49.9364 17.6851 49.9364C17.0131 49.9364 16.4251 49.759 15.9211 49.4044C15.4171 49.0404 15.0438 48.5224 14.8011 47.8504L13.6111 48.3404C13.7791 48.8724 14.0545 49.353 14.4371 49.7824C14.8198 50.2024 15.2865 50.5384 15.8371 50.7904C16.3878 51.0424 16.9945 51.1684 17.6571 51.1684ZM24.6968 51.1684C25.2475 51.1684 25.7422 51.0657 26.1808 50.8604C26.6195 50.6457 26.9742 50.3657 27.2448 50.0204V51.0004H28.5188V45.8764C28.5188 45.363 28.3928 44.915 28.1408 44.5324C27.8982 44.1404 27.5575 43.837 27.1188 43.6224C26.6802 43.3984 26.1715 43.2864 25.5928 43.2864C25.1448 43.2864 24.7155 43.3657 24.3048 43.5244C23.8942 43.683 23.5348 43.9024 23.2268 44.1824C22.9188 44.453 22.6948 44.761 22.5548 45.1064L23.6888 45.6944C23.8475 45.3397 24.0902 45.0504 24.4168 44.8264C24.7435 44.6024 25.1262 44.4904 25.5648 44.4904C26.0595 44.4904 26.4562 44.621 26.7548 44.8824C27.0628 45.1344 27.2168 45.4657 27.2168 45.8764V46.2264L24.6408 46.6464C23.7915 46.7864 23.1662 47.071 22.7648 47.5004C22.3728 47.9204 22.1768 48.429 22.1768 49.0264C22.1768 49.661 22.4102 50.179 22.8768 50.5804C23.3528 50.9724 23.9595 51.1684 24.6968 51.1684ZM23.5488 48.9844C23.5488 48.6577 23.6562 48.3824 23.8708 48.1584C24.0948 47.9344 24.4495 47.7804 24.9348 47.6964L27.2168 47.3184V47.7944C27.2168 48.2144 27.1188 48.597 26.9228 48.9424C26.7268 49.2877 26.4515 49.563 26.0968 49.7684C25.7422 49.9644 25.3268 50.0624 24.8508 50.0624C24.4775 50.0624 24.1648 49.9597 23.9128 49.7544C23.6702 49.549 23.5488 49.2924 23.5488 48.9844ZM32.2209 51.0004H33.4529L36.4209 43.4544H34.9649L32.8369 49.1664L30.7229 43.4544H29.2669L32.2209 51.0004ZM40.641 51.1684C41.4156 51.1684 42.0876 50.9864 42.657 50.6224C43.2263 50.2584 43.6276 49.815 43.861 49.2924L42.769 48.7324C42.5543 49.0964 42.2743 49.395 41.929 49.6284C41.5836 49.8617 41.159 49.9784 40.655 49.9784C40.235 49.9784 39.843 49.885 39.479 49.6984C39.1243 49.5024 38.8303 49.227 38.597 48.8724C38.373 48.5177 38.2516 48.0977 38.233 47.6124H44.001C44.0476 47.3604 44.071 47.127 44.071 46.9124C44.071 46.287 43.931 45.699 43.651 45.1484C43.371 44.5977 42.965 44.1497 42.433 43.8044C41.9103 43.459 41.2756 43.2864 40.529 43.2864C39.829 43.2864 39.2036 43.4544 38.653 43.7904C38.1023 44.1264 37.6636 44.593 37.337 45.1904C37.0196 45.7784 36.861 46.4504 36.861 47.2064C36.861 47.9624 37.0243 48.639 37.351 49.2364C37.6776 49.8337 38.1256 50.305 38.695 50.6504C39.2643 50.9957 39.913 51.1684 40.641 51.1684ZM40.529 44.4484C40.9116 44.4484 41.2616 44.537 41.579 44.7144C41.8963 44.8824 42.153 45.1204 42.349 45.4284C42.545 45.7364 42.6476 46.091 42.657 46.4924H38.261C38.3543 45.8577 38.6156 45.3584 39.045 44.9944C39.4743 44.6304 39.969 44.4484 40.529 44.4484ZM50.8345 51.1684C51.4972 51.1684 52.0852 51.0237 52.5985 50.7344C53.1212 50.4357 53.5318 50.0344 53.8305 49.5304C54.1292 49.017 54.2785 48.4384 54.2785 47.7944C54.2785 47.1504 54.1338 46.581 53.8445 46.0864C53.5645 45.5917 53.1772 45.2044 52.6825 44.9244C52.1972 44.635 51.6465 44.4904 51.0305 44.4904C50.8532 44.4904 50.6852 44.5044 50.5265 44.5324C50.3678 44.551 50.2185 44.593 50.0785 44.6584L53.2145 40.5704H51.5625L48.6225 44.4344C48.1838 45.0224 47.8665 45.5824 47.6705 46.1144C47.4745 46.637 47.3765 47.1737 47.3765 47.7244C47.3765 48.387 47.5258 48.9797 47.8245 49.5024C48.1232 50.025 48.5292 50.4357 49.0425 50.7344C49.5652 51.0237 50.1625 51.1684 50.8345 51.1684ZM50.8345 49.9364C50.4425 49.9364 50.0878 49.8477 49.7705 49.6704C49.4625 49.4837 49.2152 49.2317 49.0285 48.9144C48.8512 48.5877 48.7625 48.219 48.7625 47.8084C48.7625 47.3977 48.8512 47.0337 49.0285 46.7164C49.2152 46.3897 49.4625 46.1377 49.7705 45.9604C50.0878 45.7737 50.4425 45.6804 50.8345 45.6804C51.2358 45.6804 51.5905 45.7737 51.8985 45.9604C52.2065 46.1377 52.4492 46.3897 52.6265 46.7164C52.8038 47.0337 52.8925 47.3977 52.8925 47.8084C52.8925 48.219 52.8038 48.5877 52.6265 48.9144C52.4492 49.2317 52.2018 49.4837 51.8845 49.6704C51.5765 49.8477 51.2265 49.9364 50.8345 49.9364ZM58.9214 51.1684C59.612 51.1684 60.2234 51.019 60.7554 50.7204C61.2967 50.4124 61.7214 49.997 62.0294 49.4744C62.3467 48.9517 62.5054 48.3637 62.5054 47.7104C62.5054 47.0664 62.3607 46.483 62.0714 45.9604C61.782 45.4377 61.3807 45.027 60.8674 44.7284C60.354 44.4204 59.7567 44.2664 59.0754 44.2664C58.73 44.2664 58.4034 44.3084 58.0954 44.3924C57.7874 44.4764 57.498 44.6117 57.2274 44.7984L57.6614 41.7604H62.0854V40.5704H56.6814L55.8834 46.2684L56.9894 46.5064C57.148 46.2077 57.4047 45.9604 57.7594 45.7644C58.114 45.5684 58.506 45.4704 58.9354 45.4704C59.3554 45.4704 59.7287 45.5684 60.0554 45.7644C60.382 45.951 60.6387 46.2124 60.8254 46.5484C61.0214 46.8844 61.1194 47.2717 61.1194 47.7104C61.1194 48.1304 61.0214 48.5084 60.8254 48.8444C60.6387 49.1804 60.382 49.4464 60.0554 49.6424C59.7287 49.8384 59.3507 49.9364 58.9214 49.9364C58.3987 49.9364 57.9134 49.7964 57.4654 49.5164C57.0267 49.227 56.7094 48.8257 56.5134 48.3124L55.3934 48.7884C55.5614 49.2737 55.818 49.6984 56.1634 50.0624C56.5087 50.417 56.9194 50.6924 57.3954 50.8884C57.8714 51.075 58.38 51.1684 58.9214 51.1684ZM66.6383 45.8624C67.1423 45.8624 67.5997 45.741 68.0103 45.4984C68.421 45.2464 68.7477 44.915 68.9903 44.5044C69.233 44.0937 69.3543 43.6364 69.3543 43.1324C69.3543 42.6284 69.233 42.171 68.9903 41.7604C68.7477 41.3404 68.421 41.009 68.0103 40.7664C67.5997 40.5237 67.1423 40.4024 66.6383 40.4024C66.1343 40.4024 65.6723 40.5237 65.2523 40.7664C64.8417 41.009 64.5103 41.3404 64.2583 41.7604C64.0157 42.171 63.8943 42.6284 63.8943 43.1324C63.8943 43.6364 64.0157 44.0937 64.2583 44.5044C64.5103 44.915 64.8417 45.2464 65.2523 45.4984C65.6723 45.741 66.1343 45.8624 66.6383 45.8624ZM65.0703 51.0004H66.6243L75.1363 40.5704H73.5823L65.0703 51.0004ZM66.6383 44.7144C66.3397 44.7144 66.069 44.6397 65.8263 44.4904C65.593 44.341 65.411 44.145 65.2803 43.9024C65.1497 43.6597 65.0843 43.403 65.0843 43.1324C65.0843 42.8617 65.1497 42.605 65.2803 42.3624C65.411 42.1197 65.593 41.9237 65.8263 41.7744C66.069 41.6157 66.3397 41.5364 66.6383 41.5364C66.9463 41.5364 67.2123 41.6157 67.4363 41.7744C67.6697 41.9237 67.847 42.1197 67.9683 42.3624C68.099 42.605 68.1643 42.8617 68.1643 43.1324C68.1643 43.403 68.099 43.6597 67.9683 43.9024C67.847 44.145 67.6697 44.341 67.4363 44.4904C67.2123 44.6397 66.9463 44.7144 66.6383 44.7144ZM73.4843 51.1684C73.9883 51.1684 74.4457 51.047 74.8563 50.8044C75.267 50.5524 75.5937 50.221 75.8363 49.8104C76.079 49.3997 76.2003 48.9424 76.2003 48.4384C76.2003 47.9344 76.079 47.477 75.8363 47.0664C75.5937 46.6464 75.267 46.315 74.8563 46.0724C74.4457 45.8297 73.9883 45.7084 73.4843 45.7084C72.9803 45.7084 72.5183 45.8297 72.0983 46.0724C71.6877 46.315 71.3563 46.6464 71.1043 47.0664C70.8617 47.477 70.7403 47.9344 70.7403 48.4384C70.7403 48.9424 70.8617 49.3997 71.1043 49.8104C71.3563 50.221 71.6877 50.5524 72.0983 50.8044C72.5183 51.047 72.9803 51.1684 73.4843 51.1684ZM73.4843 50.0204C73.1857 50.0204 72.915 49.9457 72.6723 49.7964C72.439 49.647 72.257 49.451 72.1263 49.2084C71.9957 48.9657 71.9303 48.709 71.9303 48.4384C71.9303 48.1677 71.9957 47.911 72.1263 47.6684C72.257 47.4257 72.439 47.2297 72.6723 47.0804C72.915 46.9217 73.1857 46.8424 73.4843 46.8424C73.7923 46.8424 74.0583 46.9217 74.2823 47.0804C74.5157 47.2297 74.693 47.4257 74.8143 47.6684C74.945 47.911 75.0103 48.1677 75.0103 48.4384C75.0103 48.709 74.945 48.9657 74.8143 49.2084C74.693 49.451 74.5157 49.647 74.2823 49.7964C74.0583 49.9457 73.7923 50.0204 73.4843 50.0204Z" fill="#0D121F"/>
<defs>
<clipPath id="clip0_2137_1827">
<rect width="57.0685" height="50.03" fill="white" transform="translate(166.089 45.3687) rotate(153.036)"/>
</clipPath>
</defs>
</svg>
