<svg width="294" height="295" viewBox="0 0 294 295" fill="none" xmlns="http://www.w3.org/2000/svg">
<g clip-path="url(#clip0_234_2958)">
<rect width="294" height="294.766" rx="6.125" fill="#1E212D"/>
<path d="M196.402 91.0819C198.196 92.2122 199.617 93.8453 200.49 95.7779C201.661 98.5192 202.485 101.396 202.943 104.341C202.266 104.359 201.592 104.444 200.932 104.595C200.855 104.595 200.413 104.827 200.335 105.07C199.981 106.295 199.712 107.543 199.529 108.805L177.43 108.938C177.176 108.938 177.209 109.236 177.43 109.247C177.43 109.247 197.606 109.556 199.529 109.567C199.043 113.589 199.451 118.009 202.302 120.86C204.987 123.512 214.114 123.887 217.506 121.357C220.324 119.247 221.02 113.147 220.821 109.567C221.484 109.567 236.422 109.302 237.903 109.247C237.944 109.247 237.983 109.231 238.012 109.202C238.041 109.173 238.058 109.133 238.058 109.092C238.058 109.051 238.041 109.012 238.012 108.983C237.983 108.954 237.944 108.938 237.903 108.938C235.384 108.938 220.788 108.827 220.788 108.827C220.489 105.512 219.683 105.181 219.683 105.026C219.674 104.924 219.632 104.827 219.565 104.75C219.497 104.672 219.407 104.618 219.307 104.595C218.346 104.407 217.369 104.308 216.39 104.297C217.937 101.811 219.263 95.0486 221.694 90.5184C225.296 83.7672 238.853 90.1979 238.632 84.2313C238.367 77.6017 231.008 73.8781 223.108 77.3918C215.605 80.7066 213.65 96.1756 213.517 104.253C211.252 104.253 212.346 104.319 209.097 104.253C211.937 100.474 215.55 87.8776 214.92 79.0713C214.199 73.227 211.739 67.734 207.86 63.3039C204.457 59.4918 200.468 57.8786 197.462 60.9393C193.043 65.359 197.109 70.2981 200.888 75.3034C205.042 80.8281 206.6 83.5794 207.164 91.4465C207.428 95.7148 207.346 99.9975 206.921 104.253H205.694C206.644 101.148 205.418 94.3083 204.523 91.0929C203.241 86.5517 201.053 81.9772 197.584 78.8282C193.485 75.2892 188.501 72.9324 183.165 72.0107C179.905 71.4583 177.121 71.6682 175.607 72.5742C175.05 72.8638 174.62 73.349 174.4 73.9365C174.18 74.524 174.185 75.1723 174.414 75.7565C176.248 81.7563 189.22 86.6622 196.402 91.0819ZM223.329 78.0989C230.721 74.7841 237.527 78.2647 237.759 84.2755C237.936 88.8831 224.644 83.1706 221.02 90.2311C218.5 95.1149 217.384 101.943 215.86 104.308H215.075C216.18 99.4352 218.887 88.5958 222.069 84.7617C226.135 79.8005 233.218 82.6954 233.527 82.6181C233.649 82.6181 233.771 82.4192 233.406 82.2866C228.986 80.6845 224.489 80.7176 221.484 84.2755C217.871 88.5405 215.594 98.8164 214.644 104.341H213.694C213.992 96.6066 216.158 81.248 223.329 78.0989ZM207.727 91.4355C207.285 83.6346 205.849 80.7729 201.484 74.8615C197.904 70.055 194.07 65.4695 198.026 61.4586C200.722 58.7184 204.236 60.3537 207.285 63.8011C211.019 68.1238 213.375 73.4651 214.048 79.1376C214.766 88.0875 211.119 100.938 208.523 104.264H207.937C209.119 99.2043 209.884 94.0565 210.224 88.872C210.479 84.4523 210.401 81.3806 209.12 77.5354C208.066 74.6077 206.605 71.8438 204.777 69.3257C203.905 68.0837 202.945 66.9058 201.904 65.801C201.878 65.7688 201.84 65.7483 201.798 65.7442C201.757 65.74 201.716 65.7525 201.683 65.7789C201.651 65.8053 201.631 65.8434 201.626 65.8848C201.622 65.9263 201.635 65.9677 201.661 65.9999C201.938 66.2891 202.196 66.5954 202.435 66.917C205.882 71.3367 209.285 77.7895 209.55 83.491C209.816 89.1925 208.678 98.7059 207.628 104.341H207.318C207.806 100.058 207.943 95.7413 207.727 91.4355ZM218.987 105.534C220.81 107.203 220.235 118.285 216.931 120.76C213.628 123.235 205.02 122.65 202.678 120.385C198.987 116.838 199.363 110.197 200.623 105.269C200.701 105.373 200.809 105.45 200.932 105.49C201.781 105.686 202.647 105.805 203.518 105.844C202.436 109.854 202.625 114.1 204.059 117.998C204.112 118.109 204.206 118.195 204.323 118.237C204.439 118.278 204.566 118.272 204.678 118.219C204.789 118.166 204.875 118.071 204.916 117.955C204.958 117.839 204.951 117.712 204.899 117.6C203.506 114.816 203.131 108.628 203.937 105.921C207.385 106.076 216.611 106.142 218.987 105.534ZM197.109 79.3917C204.6 86.0213 206.523 100.706 205.363 104.286H204.678C204.521 101.215 203.986 98.1762 203.087 95.2364C200.7 87.5019 196.7 82.7507 190.568 79.1707C187.364 77.3383 183.936 75.9306 180.369 74.983C180.328 74.9727 180.285 74.9792 180.248 75.001C180.212 75.0227 180.186 75.058 180.176 75.099C180.166 75.14 180.172 75.1835 180.194 75.2197C180.215 75.256 180.251 75.2821 180.292 75.2924C184.456 76.6126 188.408 78.5253 192.026 80.9717C196.039 83.643 199.172 87.4412 201.031 91.8885C202.796 95.8197 203.915 100.01 204.346 104.297H203.308C202.899 101.264 202.112 98.2946 200.965 95.4574C200.069 93.4172 198.599 91.6819 196.733 90.4631C189.43 85.966 176.844 81.038 175.165 75.5134C173.607 70.4417 188.623 71.7897 197.109 79.3917ZM101.565 136.285C86.8475 131.169 73.6546 128.882 65.445 126.815C65.3433 126.787 65.2369 126.779 65.1322 126.793C65.0274 126.806 64.9265 126.841 64.8354 126.894C64.7444 126.948 64.665 127.019 64.6022 127.104C64.5394 127.189 64.4943 127.286 64.4698 127.388C64.4452 127.491 64.4416 127.598 64.4593 127.702C64.4769 127.806 64.5154 127.905 64.5724 127.994C64.6294 128.083 64.7038 128.16 64.7911 128.219C64.8784 128.279 64.9767 128.32 65.0803 128.34C70.3619 129.611 78.3396 131.069 86.9691 133.069C101.223 136.384 101.532 137.368 101.764 136.683C101.789 136.603 101.782 136.518 101.745 136.443C101.708 136.369 101.643 136.312 101.565 136.285ZM218.191 145.224C218.191 145.198 218.186 145.172 218.176 145.148C218.166 145.123 218.151 145.101 218.133 145.083C218.114 145.065 218.092 145.05 218.068 145.04C218.044 145.03 218.018 145.025 217.992 145.025C208.302 145.025 198.877 147.235 193.54 147.732C193.475 147.737 193.412 147.756 193.354 147.786C193.296 147.817 193.245 147.858 193.204 147.909C193.163 147.959 193.132 148.018 193.114 148.08C193.096 148.143 193.09 148.209 193.098 148.273C193.104 148.339 193.122 148.402 193.152 148.461C193.183 148.519 193.224 148.57 193.274 148.613C193.325 148.655 193.383 148.686 193.445 148.706C193.508 148.725 193.574 148.732 193.639 148.726C197.551 148.34 204.324 146.859 210.666 146.041C217.705 145.224 218.202 145.721 218.191 145.224ZM184.811 168.217C184.821 168.199 184.826 168.179 184.828 168.159C184.83 168.139 184.828 168.118 184.822 168.098C184.816 168.079 184.806 168.061 184.792 168.045C184.779 168.03 184.763 168.017 184.745 168.007L184.468 167.864L184.402 168.195C184.59 168.284 184.734 168.427 184.811 168.217Z" fill="#A8A8A8"/>
<path d="M251.924 170.979C249.084 170.394 242.068 170.626 239.173 170.88C241.56 162.725 244.024 152.096 245.018 146.24C245.378 144.619 245.534 142.96 245.482 141.301C245.446 141.152 245.379 141.012 245.286 140.89C245.193 140.769 245.075 140.668 244.941 140.594C240.521 137.82 194.213 143.908 190.987 145.511C190.026 145.986 189.164 148.383 188.777 149.466C185.915 144.759 186.214 143.643 183.02 136.207C181.031 131.364 178.507 126.757 175.496 122.473C175.573 121.887 178.634 99.0261 175.352 92.9158C173.142 88.8275 161.176 87.3911 156.568 87.0044C156.568 86.7613 155.994 82.5846 155.751 80.6952C159.64 77.4467 161.275 71.469 157.054 70.4635C154.06 69.7564 142.237 67.5023 133.431 69.7785C127.906 71.2149 123.487 74.4413 123.111 80.8278C122.963 83.2529 123.111 85.687 123.553 88.0762C117.84 88.706 108.006 89.6452 102.99 91.5346C96.5373 93.9655 99.2554 122.197 99.9405 124.484C99.5648 125.412 99.2112 126.351 98.8908 127.224C82.814 123.125 46.8263 115.479 45.2242 115.622C44.8068 115.617 44.3948 115.715 44.0246 115.908C43.6545 116.101 43.3378 116.382 43.1027 116.727C42.6718 116.827 42.5171 117.434 42.4397 117.832C41.3348 123.71 43.3347 158.814 43.6883 164.77C44.2739 166.913 61.3009 171.565 63.5108 172.173C63.6213 175.079 64.2069 189.509 64.3285 192.47C63.3672 192.295 62.4156 192.07 61.4777 191.796C59.511 190.99 51.9753 198.326 52.6383 197.719C49.7544 200.282 81.1345 208.713 83.6427 208.006C86.1509 207.299 91.1121 202.558 90.2723 199.918C90.0401 199.448 89.6485 199.076 89.1674 198.868C86.7918 197.619 80.5047 196.083 77.886 195.454C78.1401 190.106 78.1401 181.333 78.1291 176.007C81.234 176.78 98.8576 181.045 102.04 180.99C102.268 180.993 102.493 180.936 102.692 180.824C103.708 180.681 104.902 180.427 105.001 179.388C105.001 179.079 105.255 176.382 105.576 172.383C113.365 175.355 122.813 175.134 124.492 174.449C124.945 174.23 125.328 173.89 125.597 173.465C125.674 173.565 125.708 173.543 126.293 173.631C128.503 173.985 132.039 174.316 134.028 173.278C136.845 173.731 145.011 174.383 145.618 171.653C145.696 171.289 145.806 170.548 145.917 169.653C154.093 170.095 183.131 169.897 183.241 169.897L182.567 172.935C182.55 172.91 182.527 172.89 182.5 172.876C182.473 172.863 182.443 172.856 182.413 172.858C182.413 172.769 182.413 172.791 182.413 172.858C177.888 172.501 173.348 172.383 168.811 172.504C167.198 172.582 162.944 172.78 162.866 174.349C162.301 175.683 162.219 177.172 162.634 178.559C162.878 179.432 164.933 180.846 165.695 181.366C161.375 180.935 158.856 181.101 157.552 181.565C157.242 181.619 156.953 181.758 156.717 181.966C156.481 182.175 156.308 182.445 156.216 182.746C156.124 183.047 156.118 183.368 156.198 183.672C156.278 183.977 156.44 184.253 156.668 184.471C158.148 186.504 161.231 187.189 161.563 189.852C162.192 194.901 149.353 200.614 144.668 202.614C147.022 199.52 153.331 189.785 150.27 187.432C146.867 184.813 117.686 183.664 115.001 184.349C113.111 184.835 99.2223 195.1 99.4764 198.713C99.6532 201.067 113.321 203.376 115.863 203.818C118.724 204.304 139.144 207.486 141.585 205.928C142.103 205.719 142.574 205.408 142.969 205.013C143.364 204.618 143.675 204.148 143.884 203.63C148.115 202.176 152.187 200.295 156.038 198.017C162.115 194.249 165.518 189.586 159.507 185.664C158.789 185.2 156.822 183.786 157.11 182.99C157.729 181.233 166.27 181.885 166.391 181.885C170.358 184.471 177.949 188.459 182.424 189.62C187.153 190.868 209.252 188.448 214.588 187.774C215.196 189.984 215.782 192.039 216.168 193.299C215.34 193.365 212.975 193.575 212.312 194.095C211.948 194.382 211.959 194.868 212.544 195.199C212.544 198.901 212.091 209.972 213.196 214.967C213.616 216.834 214.102 217.608 216.036 218.282C219.693 219.464 226.721 219.044 230.4 218.061C232.687 217.442 232.986 216.956 233.35 215.74C234.61 211.608 234.544 199.409 234.455 195.078C234.526 195.027 234.583 194.959 234.623 194.882C234.663 194.804 234.684 194.718 234.684 194.63C234.684 194.543 234.663 194.457 234.623 194.379C234.583 194.301 234.526 194.234 234.455 194.183C233.638 193.804 232.757 193.579 231.859 193.52C232.013 192.282 232.842 185.366 232.963 184.15C233.541 183.804 234.056 183.363 234.488 182.846C235.164 182.025 235.603 181.036 235.759 179.985C236.864 178.537 238.455 173.134 238.974 171.366C243.902 171.576 251.129 171.289 251.803 171.366C251.854 171.382 251.909 171.377 251.957 171.352C252.005 171.328 252.041 171.285 252.057 171.233C252.073 171.182 252.068 171.127 252.043 171.079C252.018 171.031 251.975 170.995 251.924 170.979ZM102.57 194.824C103.311 194.006 104.183 193.155 105.112 192.294C109.056 188.647 114.073 184.979 115.166 184.703C117.818 184.018 146.944 185.808 149.906 188.017C150.403 188.393 150.502 189.122 150.403 189.995C150.005 193.465 146.381 199.188 144.27 201.984C141.884 199.929 105.73 195.255 102.57 194.824ZM156.712 87.7999C160.933 88.1977 172.767 89.5568 174.8 93.2472C177.673 98.4404 175.905 116.153 175.198 121.976C174.579 121.147 173.938 120.362 173.286 119.644C169.54 115.534 163.11 113.468 157.662 112.418C154.163 111.809 150.633 111.392 147.088 111.169C146.978 111.169 147.154 111.335 146.281 109.545C144.978 106.86 144.9 106.904 145.033 106.827C146.482 106.75 147.917 106.505 149.309 106.098C153.044 104.993 155.265 102.783 156.314 97.4129C156.884 94.23 157.003 90.9828 156.668 87.7668L156.712 87.7999ZM147.198 111.512C147.895 111.611 148.082 111.6 148.138 111.633C148.138 111.91 150.557 124.893 142.27 125.489C135.42 126.053 130.912 116.44 128.481 110.02C129.365 109.877 130.072 109.777 130.547 109.711C130.779 114.749 138.028 123.887 142.05 123.246C146.569 122.506 148.79 115.633 147.198 111.512ZM130.702 91.181C130.801 90.6881 131.022 90.2277 131.344 89.8417C131.666 89.4558 132.08 89.1565 132.547 88.9712C134.757 88.4297 134.757 91.181 136.514 91.0263C138.724 90.8827 136.26 85.7558 138.16 82.6288C140.226 79.1814 148.602 86.1536 155.375 80.9825C156.193 86.8055 157.088 91.3357 155.839 97.2803C154.734 102.496 152.679 104.418 149.132 105.457C147.675 105.792 146.199 106.043 144.712 106.208C144.594 106.275 144.494 106.371 144.423 106.487C144.351 106.603 144.31 106.735 144.304 106.871C144.304 107.258 145.409 109.236 146.436 111.545C147.972 115.169 145.972 121.755 141.928 122.384C139.055 122.837 133.431 116.396 131.829 111.843C131.122 109.832 131.332 109.755 132.58 101.899C134.337 102.02 134.702 98.5841 134.79 96.8051C134.808 96.428 134.677 96.0588 134.425 95.7775C133.63 94.9047 132.978 95.9212 131.431 93.9876C131.094 93.6124 130.851 93.1616 130.724 92.6732C130.597 92.1848 130.59 91.673 130.702 91.181ZM123.708 88.8717C125.188 95.6339 129.078 100.33 131.752 101.634C131.265 104.739 130.713 108.197 130.569 109.247C124.194 109.567 117.906 110.871 111.929 113.114C109.275 114.13 106.801 115.567 104.603 117.368C103.388 111.07 106.515 98.7609 106.128 95.2693C105.951 93.7887 105.531 92.2197 104.084 91.8992C109.034 90.3413 118.205 89.4573 123.708 88.8717ZM103.421 92.1865C103.685 92.1955 103.945 92.2579 104.184 92.3699C104.423 92.482 104.637 92.6414 104.813 92.8384C105.311 93.5901 105.562 94.4785 105.531 95.3798C105.775 98.6946 102.338 110.915 104.272 117.688C102.409 119.435 100.999 121.608 100.161 124.02C99.2775 118.639 97.808 94.1422 103.421 92.1865ZM63.7207 142.527C63.8091 142.008 64.7594 141.776 65.2787 141.688C69.1128 141.058 77.0794 143.246 76.9026 145.908C76.6374 149.853 77.8529 197.652 76.8142 199.409C75.5767 201.52 68.8145 200.348 66.1185 198.47C64.892 197.619 64.9141 196.89 64.9472 197.034C64.008 159.411 63.5661 143.389 63.7207 142.527ZM89.3331 200.282C89.8966 202.161 85.4658 206.481 83.4107 207.055C81.3555 207.63 51.0582 199.785 53.036 197.995C52.1189 198.824 57.964 193.443 60.5385 192.581C60.7438 192.479 60.9783 192.451 61.2015 192.503C61.4998 192.636 62.6711 192.934 64.3616 193.332C64.4611 195.664 64.5274 197.045 64.5274 197.045C65.1793 200.293 75.5767 202.746 77.3888 199.752C77.6662 198.691 77.8146 197.6 77.8308 196.503C79.5213 196.923 88.195 199.034 89.3331 200.282ZM102.04 180.051C99.1339 180.161 81.0461 175.918 78.1291 175.233C78.0738 162.284 77.8087 147.765 77.9412 145.975C78.2064 141.909 67.8643 139.699 64.218 140.892C63.8566 140.971 63.5246 141.15 63.2591 141.407C62.9937 141.665 62.8053 141.992 62.7153 142.351C62.4722 143.82 63.4224 169.974 63.4777 171.543C61.6766 171.057 44.8043 166.56 44.1082 164.759C43.9203 160.692 42.1193 121.379 43.401 117.655C49.4119 119.158 100.747 129.511 104.36 132.019C105.266 134.505 103.2 176.537 102.04 180.051ZM104.636 179.399C104.636 180.139 103.653 180.393 102.924 180.504C104.117 177.642 106.493 134.097 105.277 131.533C104.062 128.97 48.6274 118.197 43.4452 116.749C43.6757 116.5 43.9563 116.302 44.2686 116.169C44.5809 116.035 44.9178 115.97 45.2573 115.976C46.7932 115.865 103.476 128.528 106.769 130.34C107.321 131.931 106.769 143.013 106.692 144.837C106.493 149.234 104.681 178.802 104.636 179.399ZM134.47 171.919C133.177 173.642 128.591 173.432 126.437 173.233H125.906C126.889 171.257 127.447 169.096 127.542 166.891C128.647 166.582 132.691 165.643 133.309 166.637C133.497 166.924 132.901 167.267 132.591 167.433C131.774 167.812 130.918 168.101 130.039 168.294C129.908 168.319 129.793 168.395 129.719 168.505C129.644 168.615 129.616 168.75 129.641 168.88C129.666 169.01 129.742 169.126 129.852 169.2C129.961 169.275 130.096 169.303 130.227 169.278C131.332 169.123 134.348 168.703 135.42 169.068C134.978 169.681 134.344 170.128 133.619 170.338C132.586 170.331 131.554 170.417 130.536 170.593C130.389 170.62 130.258 170.701 130.167 170.819C130.076 170.938 130.032 171.085 130.043 171.234C130.054 171.383 130.119 171.523 130.226 171.627C130.334 171.73 130.475 171.791 130.624 171.797C131.747 171.83 132.867 171.677 133.939 171.344C134.219 171.356 134.493 171.423 134.746 171.543C134.675 171.692 134.569 171.821 134.437 171.919H134.47ZM144.922 171.532C144.876 171.704 144.788 171.862 144.667 171.993C144.545 172.124 144.394 172.223 144.226 172.283C142.182 173.388 137.022 173.189 134.724 172.957C135.575 172.305 136.072 171.245 135.21 170.659C136.912 169.554 136.735 168.372 135.619 168.029C134.896 167.854 134.149 167.802 133.409 167.874C134.105 167.355 134.359 166.77 133.939 166.14C133.332 165.278 131.729 165.388 130.735 165.554C130.262 161.18 130.018 156.783 130.006 152.383C132.956 154.527 142.735 154.593 146.149 152.56C146.315 156.273 145.199 169.919 144.878 171.532H144.922ZM135.442 169.024C135.442 169.024 135.409 169.046 135.409 169.024H135.442ZM159.154 169.267C161.198 163.289 161.485 150.626 161.364 144.295C163.076 147.046 172.413 160.239 172.479 160.35C172.706 160.697 172.973 161.016 173.275 161.3C175.501 163.335 178 165.049 180.7 166.394C183.584 167.919 183.816 167.841 183.794 167.963L183.407 169.62C183.219 169.609 160.844 169.267 159.121 169.267H159.154ZM163.916 174.228C166.292 172.57 182.446 173.322 182.623 173.211V173.333C181.076 180.736 180.479 183.41 180.291 184.382C180.391 183.951 180.998 181.067 181.695 177.874C182.181 175.532 182.799 172.747 183.429 169.797C183.717 168.449 183.904 167.587 183.915 167.521C180.888 165.919 176.269 163.156 173.85 160.715C173.242 160.096 161.496 143.82 161.386 143.632C161.275 143.444 161.275 138.594 161.154 138.373C161.131 138.348 161.1 138.33 161.067 138.323C161.034 138.316 160.999 138.319 160.967 138.333C160.936 138.346 160.909 138.368 160.891 138.397C160.873 138.426 160.865 138.46 160.867 138.494C160.756 138.494 160.867 162.118 158.822 169.234L146.094 169.355C146.171 168.736 146.248 168.018 146.337 167.245C151.464 167.897 153.795 162.272 152.436 157.687C151.629 155.168 149.552 154.781 147.176 155.996C147.287 154.525 147.287 153.048 147.176 151.577C147.279 151.323 147.297 151.043 147.227 150.778C147.157 150.513 147.004 150.278 146.79 150.107C145.143 148.56 140.536 148.395 138.293 148.395C136.05 148.395 131.431 148.571 129.796 150.107C129.653 150.218 129.539 150.362 129.464 150.527C128.625 152.041 130.238 165.311 130.437 165.598C129.474 165.79 128.526 166.045 127.597 166.361V164.593C127.531 160.737 115.2 158.593 114.78 156.394C114.636 155.643 114.404 153.963 114.139 151.974C112.647 141.058 112.868 141.478 112.625 141.478C112.584 141.478 112.545 141.494 112.516 141.523C112.487 141.552 112.47 141.591 112.47 141.632C112.47 141.931 113.664 153.952 114.095 156.505C114.526 159.057 126.768 161.532 126.824 164.593C126.824 166.979 126.293 172.902 124.227 173.753C122.978 174.283 113.321 174.769 105.62 172.062C105.786 169.919 108.857 131.544 107.377 129.843C106.813 129.191 100.195 127.533 99.3549 127.323C102.67 119.81 105.123 113.622 128.172 110.009C128.812 112.155 129.594 114.255 130.514 116.296C132.856 121.302 136.823 126.705 142.315 126.241C148.624 125.699 149.64 118.86 148.635 112.617C148.569 112.175 148.502 111.887 148.447 111.633C151.479 111.937 154.492 112.401 157.474 113.026C162.679 114.131 169.076 116.23 172.645 120.186C176.501 124.428 179.871 130.981 182.236 136.218C185.639 143.754 185.617 145.698 188.545 150.041C186.486 156.538 184.76 163.135 183.374 169.808C182.932 171.874 182.269 175.023 181.639 177.885C180.722 182.305 180.17 185.1 180.225 184.515C180.126 185.111 180.225 185.089 180.225 185.233C176.623 183.626 173.147 181.75 169.828 179.62C168.667 178.846 162.745 175.057 163.916 174.206V174.228ZM147.088 158.251C147.088 157.676 147.154 157.146 147.176 156.593C149.176 155.787 150.955 155.908 151.497 157.996C152.602 161.786 150.856 166.836 146.403 166.836C146.403 166.305 146.591 164.792 146.613 164.626C151.696 165.311 151.662 156.007 147.088 158.251ZM146.657 164.151C146.812 162.405 146.944 160.56 147.055 158.825C147.584 158.662 148.15 158.662 148.679 158.825C149.994 159.3 149.784 163.864 146.602 164.151H146.657ZM182.799 188.669C178.548 187.279 174.434 185.496 170.513 183.344C169.408 182.758 163.684 179.642 163.297 178.438C162.963 177.362 162.929 176.216 163.198 175.123C164.679 178.007 174.07 182.857 177.087 184.283C178.468 184.934 179.893 185.488 181.352 185.94C186.457 187.763 208.357 184.835 213.738 184.172C213.804 184.404 214.268 186.183 214.445 186.824C209.76 187.366 187.197 189.83 182.744 188.669H182.799ZM232.168 216.458C230.555 217.829 220.875 218.978 216.312 217.563C214.655 217.044 214.323 216.514 213.925 214.834C213.563 213.012 213.334 211.165 213.24 209.31C215.505 210.702 219.66 211.055 222.323 211.133C226.334 211.221 230.278 211.133 233.505 209.31C233.439 210.481 233.063 215.696 232.168 216.458ZM233.538 208.879C231.359 209.811 229.014 210.296 226.643 210.304C223.483 210.459 216.08 210.437 213.218 208.912C213.097 206.834 213.019 204.614 212.986 202.547C214.091 203.873 219.98 204.47 222.334 204.547C226.533 204.636 230.433 204.547 233.792 202.558C233.792 202.448 233.759 205.067 233.549 208.879H233.538ZM233.792 202.172C228.267 204.956 214.555 203.696 212.975 202.172V195.376C216.489 196.625 230.378 196.536 233.858 195.376C233.836 196.647 233.847 199.232 233.803 202.172H233.792ZM231.582 194.735C231.622 194.746 231.664 194.742 231.701 194.724C231.738 194.706 231.766 194.674 231.781 194.636C231.781 194.636 231.781 194.437 231.847 194.084C232.56 194.181 233.262 194.34 233.947 194.559C231.527 195.664 216.964 195.763 213.329 194.691C213.304 194.684 213.282 194.668 213.267 194.647C213.252 194.626 213.243 194.601 213.243 194.575C213.243 194.549 213.252 194.524 213.267 194.503C213.282 194.482 213.304 194.467 213.329 194.459C214.342 194.184 215.377 193.999 216.423 193.907C216.496 194.214 216.607 194.511 216.754 194.791C216.842 194.879 216.986 194.89 216.975 194.669C216.964 194.448 213.34 180.139 212.787 176.99C213.352 177.179 213.955 177.226 214.542 177.128C215.13 177.029 215.684 176.789 216.157 176.427C217.373 179.83 221.251 195.144 221.483 195.144C221.525 195.141 221.565 195.123 221.593 195.092C221.622 195.061 221.638 195.021 221.638 194.979L221.317 193.487H222.842C222.842 193.697 222.964 194.769 222.975 194.846C222.986 194.923 223.306 195.111 223.284 194.702C223.284 193.708 222.356 177.233 222.334 176.935C222.493 176.858 222.66 176.799 222.831 176.758C222.953 177.355 226.842 193.111 227.14 194.338C227.14 194.448 227.14 194.636 227.35 194.592C227.56 194.548 227.472 194.349 227.35 193.63L229.041 193.752V193.94C229.041 194.117 229.317 194.072 229.35 193.94C229.35 194.061 231.405 172.858 231.56 171.167C231.851 171.388 232.186 171.544 232.542 171.626C232.899 171.708 233.268 171.714 233.626 171.642C233.604 171.808 231.339 194.658 231.571 194.735H231.582ZM221.638 172.769C221.507 171.707 221.043 170.713 220.312 169.93C221.826 170.383 222.146 170.714 222.522 171.753C222.821 172.58 222.901 173.471 222.754 174.338C222.604 174.884 222.604 175.461 222.754 176.007C222.573 176.048 222.396 176.104 222.223 176.173C221.538 174.217 220.014 174.239 220.014 172.272C220.012 171.561 219.907 170.854 219.704 170.173C220.239 171.142 220.826 172.083 221.461 172.99C221.572 173.134 221.782 172.924 221.649 172.769H221.638ZM222.19 186.714C222.246 187.255 222.676 191.951 222.787 193.144H221.207C220.875 191.653 220.378 189.443 219.815 187.078L222.19 186.714ZM222.124 185.863L219.605 186.194C219.384 185.277 219.152 184.349 218.92 183.432C219.936 183.288 220.931 183.134 221.892 182.979C221.936 183.454 222.091 185.377 222.135 185.863H222.124ZM225.56 185.355C225.384 184.515 224.953 182.614 224.92 182.504C225.881 182.338 229.151 181.775 229.825 181.642C229.825 182.117 229.638 184.128 229.593 184.636C228.522 184.868 227.151 185.111 225.538 185.355H225.56ZM229.549 185.355C229.35 188.216 229.041 193.001 229.03 193.266C228.455 193.266 227.848 193.244 227.207 193.2C226.942 191.863 225.803 186.504 225.726 186.139C227.218 185.841 228.5 185.576 229.56 185.321L229.549 185.355ZM231.66 170.25C231.794 168.85 232.012 167.459 232.312 166.084C232.606 165.996 232.917 165.975 233.221 166.023C233.525 166.071 233.815 166.186 234.068 166.361C234.002 167.749 233.855 169.133 233.626 170.504C233.527 170.891 233.505 170.99 233.251 171.024C232.753 171.057 231.748 170.637 231.671 170.217L231.66 170.25ZM233.107 183.421C233.207 182.603 233.306 181.775 233.394 180.946C234.049 180.809 234.692 180.62 235.317 180.382C234.969 181.616 234.188 182.682 233.118 183.388L233.107 183.421ZM234.952 179.465C234.486 179.651 234.006 179.799 233.516 179.907C233.715 178.051 234.886 167.245 234.886 166.482C234.886 165.377 232.919 164.969 231.903 165.377C231.56 165.532 231.461 166.184 231.361 166.758C230.809 169.841 230.157 177.532 229.903 180.659L224.721 181.609C223.428 175.974 223.538 176.283 223.395 176.139C223.296 176.045 223.166 175.99 223.03 175.985C222.928 175.493 222.955 174.983 223.107 174.504C223.336 173.548 223.305 172.549 223.019 171.609C222.872 170.926 222.479 170.32 221.914 169.908C221.015 169.431 220.045 169.103 219.041 168.935C218.989 168.921 218.933 168.92 218.88 168.931C218.827 168.943 218.777 168.967 218.735 169.001C218.693 169.036 218.659 169.08 218.638 169.13C218.616 169.18 218.607 169.234 218.61 169.289C218.634 169.383 218.664 169.475 218.699 169.565C219.561 171.62 218.964 172.559 219.561 173.786C220.157 175.012 221.163 175.2 221.527 176.615C221.527 176.725 221.837 181.83 221.848 182.139L218.721 182.636C218.5 181.797 216.986 175.819 216.389 175.233C215.285 174.128 212.124 175.366 211.97 176.338C211.87 176.891 213.384 182.813 213.528 183.377C207.837 184.205 201.804 184.957 196.467 185.454C194.136 185.664 179.893 186.968 180.689 184.636C181.794 179.532 184.004 170.162 184.446 168.195V168.04C184.446 167.874 184.523 167.709 184.446 168.195C184.446 168.029 184.512 167.93 184.534 167.874L187.297 157.19C187.661 155.875 190.169 146.936 191.44 146.306C194.258 144.914 240.565 138.925 244.477 141.544C245.14 144.384 236.996 178.117 234.963 179.476L234.952 179.465Z" fill="#A8A8A8"/>
<path d="M145.442 90.5954V89.7446C145.442 89.6068 145.387 89.4748 145.29 89.3774C145.192 89.28 145.06 89.2253 144.922 89.2253C144.784 89.2252 144.65 89.2796 144.551 89.3767C144.452 89.4738 144.395 89.6058 144.392 89.7446V90.739C144.416 90.8704 144.491 90.9874 144.599 91.0655C144.708 91.1435 144.842 91.1768 144.974 91.1583C145.107 91.1398 145.227 91.071 145.31 90.9661C145.393 90.8612 145.432 90.7285 145.42 90.5954H145.442ZM216.058 158.593C215.738 158.284 215.285 157.919 214.865 158.052C214.169 158.273 213.472 160.04 213.174 160.77C212.336 162.946 211.671 165.185 211.185 167.466C211.638 168.637 219.284 167.101 220.323 166.593C220.655 166.438 220.61 166.04 220.5 165.687C219.406 163.101 217.907 160.706 216.058 158.593ZM211.484 167.322C211.682 166.405 214.202 159.378 215.064 158.737C216.401 159.499 219.086 164.184 219.804 165.952C218.809 166.35 212.058 168.062 211.484 167.322ZM121.52 190.758C121.409 190.835 119.001 192.36 118.89 192.47C118.864 192.481 118.842 192.5 118.826 192.523C118.81 192.547 118.802 192.575 118.802 192.603C118.802 192.631 118.81 192.659 118.826 192.683C118.842 192.706 118.864 192.725 118.89 192.735C119.509 192.912 121.575 193.144 122.205 193.211C137.32 189.421 137.42 189.421 137.232 189.421C137.334 189.407 137.426 189.354 137.49 189.274C137.554 189.194 137.584 189.092 137.575 188.99C137.575 188.802 137.276 187.498 137.188 187.1L121.52 190.758ZM150.801 85.9768C151.11 85.9768 151.718 86.1204 151.839 86.1314C152.51 86.201 153.175 86.3192 153.828 86.485L154.823 86.6618C154.86 86.6712 154.9 86.667 154.935 86.6499C154.97 86.6328 154.998 86.6039 155.014 86.5683C155.03 86.5327 155.033 86.4926 155.022 86.4552C155.011 86.4177 154.988 86.3852 154.955 86.3635C154.379 85.8751 153.679 85.554 152.933 85.4353C152.194 85.2769 151.425 85.3423 150.723 85.6232C150.7 85.6283 150.678 85.6378 150.659 85.6514C150.639 85.665 150.622 85.6823 150.61 85.7023C150.597 85.7223 150.588 85.7446 150.584 85.768C150.58 85.7914 150.58 85.8154 150.585 85.8386C150.59 85.8619 150.6 85.8838 150.613 85.9033C150.627 85.9228 150.644 85.9395 150.664 85.9523C150.684 85.9651 150.707 85.9739 150.73 85.9781C150.753 85.9823 150.777 85.9818 150.801 85.9768ZM142.05 86.9491C142.348 86.8828 142.989 86.7834 143.154 86.7613C143.824 86.615 144.504 86.519 145.188 86.474L146.292 86.3524C146.336 86.3524 146.379 86.335 146.41 86.3039C146.441 86.2728 146.458 86.2306 146.458 86.1867C146.458 86.1427 146.441 86.1006 146.41 86.0695C146.379 86.0384 146.336 86.0209 146.292 86.0209C145.58 85.719 144.799 85.6181 144.033 85.7291C143.268 85.8401 142.547 86.1589 141.95 86.6508C141.924 86.6508 141.898 86.657 141.875 86.669C141.851 86.6809 141.831 86.6983 141.816 86.7196C141.8 86.7409 141.79 86.7655 141.786 86.7915C141.782 86.8175 141.785 86.844 141.793 86.8689C141.801 86.8938 141.815 86.9164 141.834 86.9348C141.853 86.9532 141.876 86.9669 141.901 86.9747C141.926 86.9825 141.952 86.9843 141.978 86.9798C142.004 86.9754 142.029 86.9648 142.05 86.9491ZM153.099 88.8717C152.961 88.8717 152.829 88.9264 152.732 89.0238C152.634 89.1212 152.58 89.2533 152.58 89.391V90.3854C152.599 90.5232 152.672 90.6477 152.782 90.7316C152.893 90.8155 153.033 90.852 153.171 90.8329C153.308 90.8139 153.433 90.7409 153.517 90.63C153.601 90.5192 153.637 90.3795 153.618 90.2418V89.391C153.62 89.3224 153.607 89.2542 153.582 89.1905C153.556 89.1268 153.518 89.069 153.469 89.0204C153.421 88.9719 153.363 88.9337 153.299 88.9081C153.236 88.8826 153.168 88.8702 153.099 88.8717ZM67.345 184.802C68.8808 185.299 72.4608 186.636 74.1072 186.437C74.3061 186.437 74.527 186.238 74.6707 185.885C75.7756 183.399 74.9801 170.758 74.5823 168.316C74.3061 166.56 67.9527 164.383 66.4168 165.631C65.4224 166.438 65.9196 175.797 66.0301 177.101C66.3174 180.25 66.0191 184.371 67.345 184.802ZM66.914 166.217C68.1074 165.355 73.6431 167.399 73.8199 168.427C74.0961 170.162 75.1237 184.747 74.0188 185.885C72.5934 186.095 68.8145 184.935 67.3892 184.493C66.3837 184.161 66.7262 179.764 66.5605 177.045C66.4831 175.211 66.3616 167.93 66.914 166.217ZM145.431 97.2139C145.403 97.2003 145.373 97.1932 145.342 97.1932C145.312 97.1932 145.281 97.2003 145.254 97.2139C144.978 97.3134 144.812 97.6228 144.768 98.0758C144.732 99.2464 145.125 100.39 145.873 101.291C146.048 101.53 146.27 101.732 146.524 101.884C146.779 102.036 147.062 102.134 147.356 102.175C147.65 102.215 147.949 102.196 148.235 102.118C148.521 102.04 148.789 101.905 149.022 101.722C149.688 101.174 150.211 100.473 150.546 99.6779C150.577 99.616 150.592 99.548 150.592 99.479C150.592 99.4101 150.577 99.3421 150.546 99.2802C150.204 98.7498 149.386 99.5011 145.431 97.2139ZM145.331 97.5896C146.532 98.6118 147.937 99.3653 149.453 99.7995C147.088 103.821 144.712 98.3962 145.331 97.5896ZM148.038 94.993C148.745 95.1256 150.701 94.8825 151.121 94.1643C151.331 93.8218 151.121 93.7113 150.657 92.297C150.239 91.0683 149.748 89.8655 149.187 88.6949C148.989 88.3855 148.734 88.6949 148.878 88.8827C149.185 90.5768 149.674 92.2327 150.337 93.8218C149.537 94.196 148.718 94.5279 147.884 94.8162C147.882 94.838 147.885 94.8599 147.892 94.8805C147.899 94.9012 147.91 94.9203 147.924 94.9368C147.939 94.9532 147.956 94.9666 147.976 94.9763C147.995 94.9859 148.017 94.9916 148.038 94.993ZM188.788 209.895C192.932 207.265 189.705 204.846 186.965 205.995C186.291 204.768 186.136 204.669 184.755 204.735C177.584 205.1 145.199 212.591 144.889 212.713C143.254 213.387 147.408 223.143 149.055 224.425C149.431 224.712 149.309 224.768 153.364 223.972C153.629 226.381 154.679 230.602 157.132 230.734C158.275 230.525 159.388 230.176 160.447 229.695C162.496 231.734 164.677 233.635 166.977 235.386C169.518 237.088 185.761 218.116 188.192 215.906C188.888 215.674 189.506 215.519 189.429 213.796C191.528 213.409 193.153 212.116 192.037 210.26C191.285 209.133 189.982 209.309 188.788 209.895ZM189.175 206.89C189.628 207.055 189.86 207.232 189.716 207.685C189.419 208.378 188.983 209.002 188.435 209.519C188.142 208.621 187.798 207.739 187.407 206.879C187.979 206.673 188.606 206.676 189.175 206.89ZM177.418 206.525C177.827 208.459 178.104 209.508 178.623 211.287L170.966 212.735C170.525 211.136 170.013 209.558 169.43 208.006C170.877 207.729 176.236 206.724 177.418 206.525ZM166.093 221.276C166.498 222.664 167.097 223.988 167.872 225.209C165.75 226.237 163.75 227.176 162.049 227.95C161.438 226.097 160.58 224.335 159.496 222.712L166.093 221.276ZM162.966 221.276C162.592 219.356 162.12 217.457 161.552 215.585L170.391 213.674C170.873 215.546 171.456 217.39 172.137 219.199C169.098 219.839 165.927 220.558 162.966 221.232V221.276ZM166.645 221.331C166.524 221.154 165.772 221.42 173.905 219.552C174.048 220.373 174.353 221.158 174.8 221.862L168.325 225.033C167.94 223.713 167.375 222.452 166.645 221.287V221.331ZM174.38 219.431C178.579 218.458 182.435 217.53 185.098 216.823L175.341 221.585C175.161 220.801 174.839 220.056 174.391 219.386L174.38 219.431ZM172.513 219.088C172.158 217.203 171.708 215.337 171.165 213.497L178.711 211.641C178.711 211.696 179.22 213.398 179.452 214.127C179.562 214.458 180.501 217.132 180.556 217.177C178.269 217.685 172.689 219 172.502 219.044L172.513 219.088ZM169.098 208.116C169.463 210.127 169.805 211.431 170.203 212.934L161.364 214.878C160.844 213.121 160.491 211.972 159.728 209.983C161.452 209.586 167.772 208.326 169.109 208.072L169.098 208.116ZM159.364 210.05C159.795 212.26 160.115 213.42 160.579 215.055C159.839 215.221 153.795 216.735 153.795 216.735C153.574 216.735 153.662 217.077 153.883 217.033C153.883 217.033 160.436 215.818 160.767 215.74C160.767 215.74 161.242 217.641 162.601 221.364L155.474 222.955C154.455 219.101 153.174 215.321 151.64 211.641L159.364 210.05ZM149.364 224.049C147.685 222.79 143.84 213.508 145 213C145 213 147.53 212.447 151.331 211.652C152.278 215.524 153.542 219.312 155.11 222.977C149.298 224.281 149.552 224.149 149.375 224.005L149.364 224.049ZM157.099 229.928C155.231 229.928 154.115 225.895 153.784 224.06C153.784 223.85 153.198 224.06 158.977 222.856C159.264 222.801 158.811 222.723 160.193 225.596C160.589 226.499 161.078 227.358 161.651 228.16C160.198 228.856 158.69 229.432 157.143 229.883L157.099 229.928ZM167.397 234.657C165.15 233.083 162.992 231.386 160.933 229.574C162.833 228.789 164.988 227.784 166.844 226.9C168.298 228.589 169.944 230.103 171.75 231.408C170.999 232.049 168.446 234.414 167.441 234.612L167.397 234.657ZM172.071 231.077C170.611 229.448 168.977 227.984 167.198 226.712L174.137 223.298C175.104 224.29 176.223 225.122 177.452 225.762C175.714 227.56 173.934 229.317 172.115 231.032L172.071 231.077ZM177.827 225.408C176.906 224.468 175.857 223.66 174.711 223.011C179.463 220.613 182.192 219.154 186.623 216.701C184.656 218.436 179.661 223.541 177.872 225.364L177.827 225.408ZM188.368 215.022C187.893 215.365 181.385 216.956 180.822 217.088C180.118 213.473 179.086 209.93 177.739 206.503C179.882 206.138 184.125 205.398 185.705 205.575C185.919 205.826 186.104 206.1 186.258 206.392C185.504 206.905 184.88 207.586 184.435 208.381C184.324 208.658 184.612 208.801 184.755 208.669C185.308 208.084 185.954 207.595 186.667 207.221C187.168 208.257 187.604 209.324 187.971 210.414C186.989 211.086 186.104 211.889 185.341 212.801C185.197 212.978 185.241 213.11 185.341 213.166C185.606 213.32 185.628 212.923 188.236 211.376C188.499 212.27 188.648 213.195 188.678 214.127C188.623 214.326 188.589 214.834 188.413 214.978L188.368 215.022ZM191.12 212.061C190.626 212.626 190.005 213.065 189.308 213.342C189.206 212.555 189.047 211.776 188.832 211.011C189.551 210.646 190.667 210.182 191.042 210.856C191.184 211.011 191.272 211.208 191.294 211.416C191.316 211.625 191.27 211.836 191.164 212.017L191.12 212.061Z" fill="#A8A8A8"/>
</g>
<defs>
<clipPath id="clip0_234_2958">
<rect width="294" height="294.766" rx="6.125" fill="white"/>
</clipPath>
</defs>
</svg>
