<svg width="50" height="74" viewBox="0 0 50 74" fill="none" xmlns="http://www.w3.org/2000/svg">
<path d="M35.6584 44.4091L35.6584 45.4091L35.6584 45.4091L35.6584 44.4091ZM0.763913 8.12341C0.445868 8.57493 0.554071 9.19878 1.00558 9.51682L8.36346 14.6997C8.81497 15.0177 9.43882 14.9095 9.75687 14.458C10.0749 14.0065 9.96671 13.3826 9.5152 13.0646L2.97487 8.45761L7.58183 1.91728C7.89987 1.46577 7.79167 0.841918 7.34016 0.52387C6.88864 0.205828 6.26479 0.314027 5.94674 0.765541L0.763913 8.12341ZM21.8722 73.8121C36.5228 74.8377 45.8359 67.5382 48.5757 59.691C49.9405 55.7818 49.6709 51.6945 47.4894 48.5575C45.2957 45.4029 41.31 43.409 35.6584 43.4091L35.6584 45.4091C40.8361 45.409 44.1202 47.2155 45.8474 49.6993C47.5869 52.2007 47.8892 55.5897 46.6875 59.0318C44.294 65.8872 35.9197 72.7906 22.0119 71.817L21.8722 73.8121ZM35.6584 43.4091C30.3064 43.4091 25.784 42.8322 22.278 41.7409C18.7575 40.6451 16.3718 39.0666 15.1237 37.148C13.9075 35.2785 13.6642 32.9186 14.7826 29.9626C15.9139 26.9721 18.4256 23.4283 22.6353 19.369L21.2471 17.9293C16.9336 22.0887 14.1909 25.8743 12.912 29.2549C11.62 32.6699 11.8105 35.7227 13.4472 38.2386C15.0519 40.7053 17.9381 42.4847 21.6836 43.6505C25.4435 44.8209 30.1813 45.4091 35.6584 45.4091L35.6584 43.4091ZM22.6353 19.369C24.8037 17.2781 26.1919 15.4738 26.8773 13.9019C27.5773 12.2964 27.5797 10.8271 26.7894 9.61401C26.0458 8.47257 24.7301 7.77088 23.2872 7.32245C21.8195 6.86633 20.0581 6.62246 18.2136 6.51192C14.5198 6.29053 10.3116 6.59479 7.05204 6.94824C5.41685 7.12555 4.00951 7.31649 3.01019 7.46323C2.51038 7.53661 2.11222 7.599 1.8382 7.64318C1.70118 7.66528 1.59516 7.68283 1.52296 7.69493C1.48686 7.70097 1.45921 7.70567 1.44036 7.70888C1.43094 7.71049 1.42371 7.71172 1.41873 7.71258C1.41624 7.71301 1.41431 7.71334 1.41295 7.71358C1.41227 7.7137 1.41167 7.7138 1.41134 7.71386C1.41088 7.71394 1.41057 7.714 1.58145 8.69928C1.75234 9.68457 1.75232 9.68458 1.75243 9.68456C1.75266 9.68452 1.75292 9.68447 1.75337 9.68439C1.75428 9.68424 1.75575 9.68398 1.75778 9.68363C1.76185 9.68294 1.76815 9.68186 1.77664 9.6804C1.79362 9.67751 1.81936 9.67315 1.85352 9.66742C1.92183 9.65597 2.02378 9.6391 2.15657 9.61769C2.42217 9.57486 2.81101 9.51391 3.30074 9.44201C4.28049 9.29815 5.66235 9.11066 7.26765 8.93659C10.4891 8.58727 14.5671 8.29695 18.094 8.50833C19.8599 8.61417 21.4425 8.84352 22.6937 9.23235C23.9696 9.62887 24.7476 10.1439 25.1137 10.7057C25.433 11.1959 25.5611 11.9166 25.044 13.1025C24.5122 14.3221 23.3404 15.9107 21.2471 17.9293L22.6353 19.369Z" fill="#0F6FFF"/>
</svg>
