<svg width="144" height="33" viewBox="0 0 144 33" fill="none" xmlns="http://www.w3.org/2000/svg">
<g clip-path="url(#clip0_1344_552)">
<path d="M16 0.814941C24.837 0.814941 32 7.95704 32 16.7682C32 25.3086 25.2695 32.282 16.808 32.7016H15.192C6.73113 32.282 0 25.3088 0 16.7682C0 7.95704 7.16375 0.814941 16 0.814941Z" fill="#090A18"/>
<path d="M15.3585 7.41476C18.9513 7.17482 22.1465 8.94565 23.9246 11.7132C24.2058 12.1961 24.0693 12.8099 23.602 13.133C23.1095 13.4737 22.4615 13.3236 22.0911 12.8037C20.8065 11.0009 18.564 9.50958 16.0075 9.50958C11.1023 9.50958 7.33835 14.4163 9.31522 19.5553C10.1861 21.8194 12.2502 23.4402 14.6531 23.8164C17.6047 24.2781 20.3043 23.2315 21.8592 20.9571L20.8876 21.0931H19.211C18.6787 21.0931 18.1862 20.7351 18.0915 20.213C17.9671 19.5277 18.4922 18.9305 19.1572 18.9305H25.044V25.0871C25.044 25.2461 25.0089 25.4031 24.9411 25.547C24.8733 25.691 24.7744 25.8182 24.6516 25.9197C24.5288 26.0213 24.385 26.0946 24.2305 26.1344C24.076 26.1743 23.9146 26.1797 23.7577 26.1503C23.234 26.0559 22.8756 25.5644 22.8756 25.0342V24.0062L23.0793 22.8689C21.3577 24.8518 18.8302 26.0776 16.0075 26.0776C10.6336 26.0776 6.3126 21.6432 6.62535 16.212C6.89422 11.5446 10.6803 7.72779 15.3585 7.41476Z" fill="white"/>
</g>
<path d="M58.1958 14.9044C58.0893 14.5593 57.9423 14.2503 57.7548 13.9776C57.5716 13.7006 57.35 13.4641 57.09 13.2681C56.8343 13.072 56.5403 12.925 56.2079 12.827C55.8755 12.7247 55.5133 12.6736 55.1213 12.6736C54.4181 12.6736 53.7917 12.8505 53.242 13.2041C52.6923 13.5578 52.2598 14.0777 51.9444 14.7638C51.6333 15.4456 51.4778 16.2766 51.4778 17.2567C51.4778 18.2453 51.6333 19.0827 51.9444 19.7688C52.2555 20.4549 52.688 20.9769 53.242 21.3348C53.796 21.6885 54.4395 21.8654 55.1724 21.8654C55.8372 21.8654 56.4125 21.7375 56.8983 21.4818C57.3883 21.2262 57.7654 20.8639 58.0297 20.3952C58.2939 19.9222 58.426 19.3682 58.426 18.7333L58.9629 18.8164H55.4089V16.9627H60.7207V18.5351C60.7207 19.6559 60.4821 20.6253 60.0048 21.4435C59.5275 22.2617 58.8713 22.8924 58.036 23.3355C57.2008 23.7745 56.242 23.9939 55.1596 23.9939C53.9537 23.9939 52.8947 23.7233 51.9828 23.1821C51.0751 22.6367 50.3656 21.8632 49.8542 20.8618C49.3471 19.8561 49.0936 18.663 49.0936 17.2823C49.0936 16.2255 49.2427 15.2816 49.541 14.4506C49.8436 13.6196 50.2654 12.9144 50.8066 12.3348C51.3478 11.751 51.9828 11.3078 52.7115 11.0053C53.4402 10.6985 54.2328 10.5451 55.0893 10.5451C55.8137 10.5451 56.4892 10.6516 57.1156 10.8647C57.742 11.0735 58.2981 11.3718 58.7839 11.7595C59.274 12.1473 59.6767 12.6076 59.992 13.1402C60.3074 13.6729 60.514 14.261 60.612 14.9044H58.1958ZM62.9116 23.8149V13.9968H65.1552V15.6331H65.2575C65.4364 15.0664 65.7433 14.6296 66.1779 14.3228C66.6168 14.0117 67.1175 13.8561 67.68 13.8561C67.8079 13.8561 67.9506 13.8625 68.1083 13.8753C68.2702 13.8838 68.4045 13.8987 68.511 13.9201V16.0486C68.413 16.0145 68.2575 15.9847 68.0444 15.9591C67.8356 15.9293 67.6332 15.9144 67.4371 15.9144C67.0153 15.9144 66.636 16.006 66.2994 16.1892C65.967 16.3682 65.7049 16.6175 65.5131 16.9371C65.3214 17.2567 65.2255 17.6253 65.2255 18.0429V23.8149H62.9116ZM72.6978 24.0131C72.0756 24.0131 71.5153 23.9023 71.0167 23.6807C70.5224 23.4549 70.1303 23.1225 69.8406 22.6835C69.555 22.2446 69.4123 21.7034 69.4123 21.06C69.4123 20.506 69.5146 20.0479 69.7191 19.6857C69.9237 19.3235 70.2028 19.0337 70.5565 18.8164C70.9102 18.599 71.3086 18.435 71.7518 18.3242C72.1992 18.2091 72.6616 18.126 73.1388 18.0749C73.7141 18.0152 74.1808 17.962 74.5387 17.9151C74.8967 17.8639 75.1566 17.7872 75.3185 17.685C75.4847 17.5784 75.5678 17.4144 75.5678 17.1928V17.1544C75.5678 16.6729 75.4251 16.3 75.1396 16.0358C74.854 15.7716 74.4428 15.6395 73.9059 15.6395C73.3391 15.6395 72.8896 15.7631 72.5572 16.0103C72.229 16.2574 72.0075 16.5493 71.8924 16.886L69.7319 16.5791C69.9023 15.9826 70.1836 15.484 70.5756 15.0834C70.9677 14.6786 71.4471 14.376 72.0138 14.1757C72.5806 13.9712 73.207 13.8689 73.8931 13.8689C74.3661 13.8689 74.837 13.9243 75.3058 14.0351C75.7745 14.1459 76.2028 14.3291 76.5906 14.5848C76.9783 14.8362 77.2894 15.1793 77.5238 15.6139C77.7624 16.0486 77.8817 16.5919 77.8817 17.2439V23.8149H75.6573V22.4662H75.5806C75.44 22.7389 75.2418 22.9946 74.9862 23.2333C74.7347 23.4676 74.4173 23.6573 74.0337 23.8022C73.6545 23.9428 73.2092 24.0131 72.6978 24.0131ZM73.2987 22.3128C73.7631 22.3128 74.1658 22.2212 74.5067 22.038C74.8477 21.8505 75.1097 21.6033 75.293 21.2965C75.4805 20.9897 75.5742 20.6551 75.5742 20.2929V19.136C75.5018 19.1956 75.3782 19.251 75.2035 19.3022C75.033 19.3533 74.8413 19.398 74.6282 19.4364C74.4151 19.4747 74.2042 19.5088 73.9954 19.5387C73.7866 19.5685 73.6055 19.5941 73.4521 19.6154C73.1069 19.6622 72.7979 19.7389 72.5252 19.8455C72.2525 19.952 72.0373 20.1012 71.8796 20.2929C71.7219 20.4804 71.6431 20.7233 71.6431 21.0216C71.6431 21.4478 71.7987 21.7695 72.1097 21.9868C72.4208 22.2041 72.8171 22.3128 73.2987 22.3128ZM80.2085 23.8149V13.9968H82.4201V15.6651H82.5352C82.7397 15.1026 83.0785 14.6637 83.5515 14.3483C84.0245 14.0287 84.5891 13.8689 85.2454 13.8689C85.9102 13.8689 86.4705 14.0309 86.9265 14.3547C87.3867 14.6743 87.7106 15.1111 87.8981 15.6651H88.0004C88.2177 15.1196 88.5842 14.685 89.0998 14.3611C89.6197 14.033 90.2354 13.8689 90.9471 13.8689C91.8505 13.8689 92.5877 14.1544 93.1587 14.7255C93.7298 15.2965 94.0153 16.1296 94.0153 17.2247V23.8149H91.695V17.5827C91.695 16.9733 91.533 16.528 91.2092 16.2468C90.8853 15.9612 90.489 15.8185 90.0202 15.8185C89.462 15.8185 89.0252 15.9932 88.7099 16.3426C88.3988 16.6878 88.2433 17.1374 88.2433 17.6914V23.8149H85.9741V17.4868C85.9741 16.9797 85.8207 16.5749 85.5138 16.2723C85.2113 15.9698 84.815 15.8185 84.3249 15.8185C83.9925 15.8185 83.69 15.9037 83.4173 16.0742C83.1445 16.2404 82.9272 16.4769 82.7653 16.7837C82.6033 17.0862 82.5224 17.4399 82.5224 17.8448V23.8149H80.2085ZM96.3627 23.8149V13.9968H98.5744V15.6651H98.6895C98.894 15.1026 99.2328 14.6637 99.7058 14.3483C100.179 14.0287 100.743 13.8689 101.4 13.8689C102.064 13.8689 102.625 14.0309 103.081 14.3547C103.541 14.6743 103.865 15.1111 104.052 15.6651H104.155C104.372 15.1196 104.738 14.685 105.254 14.3611C105.774 14.033 106.39 13.8689 107.101 13.8689C108.005 13.8689 108.742 14.1544 109.313 14.7255C109.884 15.2965 110.17 16.1296 110.17 17.2247V23.8149H107.849V17.5827C107.849 16.9733 107.687 16.528 107.363 16.2468C107.04 15.9612 106.643 15.8185 106.175 15.8185C105.616 15.8185 105.18 15.9932 104.864 16.3426C104.553 16.6878 104.398 17.1374 104.398 17.6914V23.8149H102.128V17.4868C102.128 16.9797 101.975 16.5749 101.668 16.2723C101.366 15.9698 100.969 15.8185 100.479 15.8185C100.147 15.8185 99.8443 15.9037 99.5716 16.0742C99.2988 16.2404 99.0815 16.4769 98.9196 16.7837C98.7576 17.0862 98.6767 17.4399 98.6767 17.8448V23.8149H96.3627ZM115.342 24.0131C114.72 24.0131 114.16 23.9023 113.661 23.6807C113.167 23.4549 112.775 23.1225 112.485 22.6835C112.2 22.2446 112.057 21.7034 112.057 21.06C112.057 20.506 112.159 20.0479 112.364 19.6857C112.568 19.3235 112.847 19.0337 113.201 18.8164C113.555 18.599 113.953 18.435 114.396 18.3242C114.844 18.2091 115.306 18.126 115.783 18.0749C116.359 18.0152 116.825 17.962 117.183 17.9151C117.541 17.8639 117.801 17.7872 117.963 17.685C118.129 17.5784 118.212 17.4144 118.212 17.1928V17.1544C118.212 16.6729 118.07 16.3 117.784 16.0358C117.499 15.7716 117.087 15.6395 116.55 15.6395C115.984 15.6395 115.534 15.7631 115.202 16.0103C114.874 16.2574 114.652 16.5493 114.537 16.886L112.376 16.5791C112.547 15.9826 112.828 15.484 113.22 15.0834C113.612 14.6786 114.092 14.376 114.658 14.1757C115.225 13.9712 115.852 13.8689 116.538 13.8689C117.011 13.8689 117.482 13.9243 117.95 14.0351C118.419 14.1459 118.847 14.3291 119.235 14.5848C119.623 14.8362 119.934 15.1793 120.168 15.6139C120.407 16.0486 120.526 16.5919 120.526 17.2439V23.8149H118.302V22.4662H118.225C118.085 22.7389 117.886 22.9946 117.631 23.2333C117.379 23.4676 117.062 23.6573 116.678 23.8022C116.299 23.9428 115.854 24.0131 115.342 24.0131ZM115.943 22.3128C116.408 22.3128 116.81 22.2212 117.151 22.038C117.492 21.8505 117.754 21.6033 117.938 21.2965C118.125 20.9897 118.219 20.6551 118.219 20.2929V19.136C118.146 19.1956 118.023 19.251 117.848 19.3022C117.678 19.3533 117.486 19.398 117.273 19.4364C117.06 19.4747 116.849 19.5088 116.64 19.5387C116.431 19.5685 116.25 19.5941 116.097 19.6154C115.751 19.6622 115.442 19.7389 115.17 19.8455C114.897 19.952 114.682 20.1012 114.524 20.2929C114.366 20.4804 114.288 20.7233 114.288 21.0216C114.288 21.4478 114.443 21.7695 114.754 21.9868C115.065 22.2041 115.462 22.3128 115.943 22.3128ZM122.853 23.8149V13.9968H125.097V15.6331H125.199C125.378 15.0664 125.685 14.6296 126.119 14.3228C126.558 14.0117 127.059 13.8561 127.621 13.8561C127.749 13.8561 127.892 13.8625 128.05 13.8753C128.212 13.8838 128.346 13.8987 128.452 13.9201V16.0486C128.354 16.0145 128.199 15.9847 127.986 15.9591C127.777 15.9293 127.575 15.9144 127.379 15.9144C126.957 15.9144 126.577 16.006 126.241 16.1892C125.908 16.3682 125.646 16.6175 125.455 16.9371C125.263 17.2567 125.167 17.6253 125.167 18.0429V23.8149H122.853ZM132.304 10.724V23.8149H129.99V10.724H132.304ZM136.121 27.4968C135.806 27.4968 135.514 27.4712 135.246 27.4201C134.981 27.3732 134.77 27.3178 134.613 27.2539L135.15 25.4513C135.486 25.5493 135.787 25.5962 136.051 25.5919C136.315 25.5877 136.547 25.5046 136.748 25.3426C136.952 25.185 137.125 24.9208 137.265 24.55L137.464 24.0195L133.903 13.9968H136.358L138.621 21.4115H138.723L140.992 13.9968H143.453L139.522 25.0039C139.339 25.5237 139.096 25.9691 138.793 26.3398C138.491 26.7148 138.12 27.0003 137.681 27.1963C137.246 27.3966 136.726 27.4968 136.121 27.4968Z" fill="#090A18"/>
<defs>
<clipPath id="clip0_1344_552">
<rect width="32" height="32" fill="white" transform="translate(0 0.814941)"/>
</clipPath>
</defs>
</svg>
