<svg width="126" height="33" viewBox="0 0 126 33" fill="none" xmlns="http://www.w3.org/2000/svg">
<path d="M26.0003 3.48169H6.00033C5.11627 3.48169 4.26842 3.83288 3.6433 4.458C3.01818 5.08312 2.66699 5.93097 2.66699 6.81502V26.815C2.66699 27.6991 3.01818 28.5469 3.6433 29.172C4.26842 29.7972 5.11627 30.1484 6.00033 30.1484H26.0003C26.8844 30.1484 27.7322 29.7972 28.3573 29.172C28.9825 28.5469 29.3337 27.6991 29.3337 26.815V6.81502C29.3337 5.93097 28.9825 5.08312 28.3573 4.458C27.7322 3.83288 26.8844 3.48169 26.0003 3.48169ZM19.5603 8.37502C19.5585 8.25721 19.5804 8.14024 19.6247 8.03104C19.6689 7.92184 19.7347 7.82265 19.818 7.73933C19.9013 7.65602 20.0005 7.59028 20.1097 7.54603C20.2189 7.50177 20.3358 7.47989 20.4537 7.48169C20.6849 7.4884 20.9049 7.58326 21.0685 7.74686C21.2321 7.91047 21.327 8.13042 21.3337 8.36169V20.2284C21.3071 20.4448 21.2022 20.644 21.0389 20.7885C20.8756 20.933 20.6651 21.0128 20.447 21.0128C20.2289 21.0128 20.0184 20.933 19.8551 20.7885C19.6918 20.644 19.5869 20.4448 19.5603 20.2284V8.37502ZM15.107 7.92169C15.107 7.68476 15.2011 7.45754 15.3686 7.29001C15.5362 7.12247 15.7634 7.02836 16.0003 7.02836C16.2373 7.02836 16.4645 7.12247 16.632 7.29001C16.7995 7.45754 16.8937 7.68476 16.8937 7.92169V20.815C16.8937 21.0519 16.7995 21.2792 16.632 21.4467C16.4645 21.6142 16.2373 21.7084 16.0003 21.7084C15.7634 21.7084 15.5362 21.6142 15.3686 21.4467C15.2011 21.2792 15.107 21.0519 15.107 20.815V7.92169ZM10.667 8.37502C10.6936 8.15859 10.7984 7.95935 10.9617 7.81487C11.1251 7.67038 11.3356 7.59062 11.5537 7.59062C11.7717 7.59062 11.9823 7.67038 12.1456 7.81487C12.3089 7.95935 12.4137 8.15859 12.4403 8.37502V20.2417C12.4403 20.3584 12.4171 20.4739 12.3721 20.5816C12.327 20.6892 12.261 20.7868 12.1779 20.8687C12.0947 20.9506 11.9962 21.0151 11.8878 21.0586C11.7795 21.102 11.6637 21.1235 11.547 21.1217C11.3157 21.115 11.0958 21.0201 10.9322 20.8565C10.7686 20.6929 10.6737 20.473 10.667 20.2417V8.37502ZM6.22699 10.1484C6.25358 9.93192 6.35842 9.73269 6.52174 9.5882C6.68507 9.44372 6.8956 9.36396 7.11366 9.36396C7.33172 9.36396 7.54225 9.44372 7.70557 9.5882C7.8689 9.73269 7.97373 9.93192 8.00033 10.1484V18.1484C7.99682 18.383 7.90116 18.6068 7.73401 18.7714C7.56685 18.9361 7.34163 19.0284 7.10699 19.0284C6.87467 19.0249 6.65284 18.9311 6.48854 18.7668C6.32425 18.6025 6.23043 18.3807 6.22699 18.1484V10.1484ZM25.467 23.7084C22.7257 25.7067 19.3901 26.7215 16.0003 26.5884C12.6105 26.7215 9.275 25.7067 6.53366 23.7084C6.39445 23.5456 6.31836 23.3382 6.31928 23.124C6.32019 22.9098 6.39804 22.703 6.53863 22.5414C6.67923 22.3798 6.87321 22.2741 7.08522 22.2436C7.29724 22.213 7.51317 22.2597 7.69366 22.375C10.1228 24.0715 13.0396 24.9283 16.0003 24.815C18.9632 24.9293 21.8816 24.0674 24.307 22.3617C24.4875 22.2463 24.7034 22.1997 24.9154 22.2302C25.1274 22.2608 25.3214 22.3665 25.462 22.5281C25.6026 22.6897 25.6805 22.8964 25.6814 23.1106C25.6823 23.3248 25.6062 23.5322 25.467 23.695V23.7084ZM25.7737 18.1484C25.7471 18.3648 25.6422 18.564 25.4789 18.7085C25.3156 18.853 25.1051 18.9328 24.887 18.9328C24.6689 18.9328 24.4584 18.853 24.2951 18.7085C24.1318 18.564 24.0269 18.3648 24.0003 18.1484V10.1484C24.0038 9.91375 24.0995 9.68994 24.2666 9.52528C24.4338 9.36062 24.659 9.26833 24.8937 9.26836C25.127 9.26836 25.3509 9.36107 25.5159 9.5261C25.6809 9.69113 25.7737 9.91497 25.7737 10.1484V18.1484Z" fill="#090A18"/>
<path d="M51.8941 10.724V23.8149H49.5226V10.724H51.8941ZM56.6737 18.0621V23.8149H54.3598V13.9968H56.5715V15.6651H56.6865C56.9124 15.1154 57.2725 14.6786 57.7668 14.3547C58.2654 14.0309 58.8811 13.8689 59.6141 13.8689C60.2916 13.8689 60.8818 14.0138 61.3847 14.3036C61.8918 14.5934 62.2838 15.0131 62.5608 15.5628C62.8421 16.1125 62.9806 16.7794 62.9763 17.5635V23.8149H60.6624V17.9215C60.6624 17.2652 60.4919 16.7517 60.151 16.381C59.8144 16.0103 59.3477 15.8249 58.7512 15.8249C58.3463 15.8249 57.9862 15.9144 57.6709 16.0934C57.3598 16.2681 57.1148 16.5216 56.9358 16.854C56.7611 17.1864 56.6737 17.5891 56.6737 18.0621ZM70.2313 13.9968V15.7865H64.5871V13.9968H70.2313ZM65.9806 11.6445H68.2945V20.8618C68.2945 21.1729 68.3414 21.4115 68.4351 21.5777C68.5331 21.7397 68.661 21.8505 68.8186 21.9101C68.9763 21.9698 69.151 21.9996 69.3428 21.9996C69.4877 21.9996 69.6198 21.9889 69.7391 21.9676C69.8627 21.9463 69.9564 21.9272 70.0203 21.9101L70.4102 23.7191C70.2867 23.7617 70.1098 23.8085 69.8797 23.8597C69.6539 23.9108 69.3769 23.9407 69.0487 23.9492C68.4692 23.9662 67.9472 23.8789 67.4827 23.6871C67.0182 23.4911 66.6496 23.1885 66.3769 22.7794C66.1084 22.3703 65.9763 21.859 65.9806 21.2453V11.6445ZM76.4076 24.0067C75.4232 24.0067 74.5731 23.8022 73.8572 23.3931C73.1455 22.9797 72.5979 22.3959 72.2144 21.6416C71.8309 20.8831 71.6391 19.9904 71.6391 18.9634C71.6391 17.9534 71.8309 17.0671 72.2144 16.3043C72.6022 15.5372 73.1434 14.9407 73.838 14.5145C74.5326 14.0841 75.3486 13.8689 76.2861 13.8689C76.8912 13.8689 77.4623 13.9669 77.9992 14.163C78.5404 14.3547 79.0177 14.653 79.431 15.0578C79.8486 15.4627 80.1768 15.9783 80.4154 16.6047C80.654 17.2269 80.7733 17.9684 80.7733 18.8291V19.5387H72.7258V17.979H78.5553C78.551 17.5358 78.4552 17.1416 78.2677 16.7965C78.0802 16.447 77.8181 16.1722 77.4814 15.9719C77.1491 15.7716 76.7613 15.6715 76.3181 15.6715C75.8451 15.6715 75.4296 15.7865 75.0716 16.0166C74.7137 16.2425 74.4346 16.5408 74.2343 16.9115C74.0383 17.278 73.9381 17.6807 73.9339 18.1196V19.4811C73.9339 20.0522 74.0383 20.5422 74.2471 20.9513C74.4559 21.3561 74.7478 21.6672 75.1228 21.8845C75.4978 22.0976 75.9367 22.2041 76.4395 22.2041C76.7762 22.2041 77.0809 22.1573 77.3536 22.0635C77.6263 21.9655 77.8628 21.8228 78.0631 21.6353C78.2634 21.4478 78.4147 21.2155 78.517 20.9385L80.6775 21.1814C80.5411 21.7524 80.2812 22.251 79.8976 22.6772C79.5184 23.099 79.0326 23.4272 78.4403 23.6615C77.8479 23.8916 77.1704 24.0067 76.4076 24.0067ZM82.7309 23.8149V13.9968H84.9745V15.6331H85.0768C85.2558 15.0664 85.5626 14.6296 85.9972 14.3228C86.4362 14.0117 86.9369 13.8561 87.4994 13.8561C87.6272 13.8561 87.77 13.8625 87.9276 13.8753C88.0896 13.8838 88.2238 13.8987 88.3303 13.9201V16.0486C88.2323 16.0145 88.0768 15.9847 87.8637 15.9591C87.6549 15.9293 87.4525 15.9144 87.2565 15.9144C86.8346 15.9144 86.4553 16.006 86.1187 16.1892C85.7863 16.3682 85.5242 16.6175 85.3325 16.9371C85.1407 17.2567 85.0448 17.6253 85.0448 18.0429V23.8149H82.7309ZM93.746 24.0067C92.7659 24.0067 91.9243 23.7915 91.2211 23.3611C90.5223 22.9307 89.9832 22.3362 89.604 21.5777C89.229 20.8149 89.0415 19.9371 89.0415 18.9442C89.0415 17.947 89.2332 17.0671 89.6167 16.3043C90.0003 15.5372 90.5415 14.9407 91.2403 14.5145C91.9434 14.0841 92.7744 13.8689 93.7332 13.8689C94.5301 13.8689 95.2354 14.0159 95.849 14.31C96.4669 14.5997 96.9591 15.011 97.3256 15.5436C97.692 16.072 97.9008 16.6899 97.952 17.3973H95.7403C95.6508 16.9243 95.4378 16.5301 95.1011 16.2148C94.7687 15.8952 94.3234 15.7354 93.7652 15.7354C93.2922 15.7354 92.8767 15.8632 92.5187 16.1189C92.1608 16.3703 91.8817 16.7326 91.6814 17.2056C91.4854 17.6786 91.3873 18.2453 91.3873 18.9059C91.3873 19.5749 91.4854 20.1502 91.6814 20.6317C91.8774 21.109 92.1523 21.4776 92.5059 21.7375C92.8639 21.9932 93.2836 22.121 93.7652 22.121C94.1061 22.121 94.4108 22.0571 94.6792 21.9293C94.952 21.7972 95.18 21.6076 95.3632 21.3604C95.5464 21.1132 95.6721 20.8128 95.7403 20.4591H97.952C97.8966 21.1537 97.692 21.7695 97.3383 22.3064C96.9846 22.8391 96.5031 23.2567 95.8937 23.5593C95.2844 23.8576 94.5684 24.0067 93.746 24.0067ZM104.135 24.0067C103.176 24.0067 102.345 23.7958 101.642 23.3739C100.939 22.952 100.393 22.3618 100.005 21.6033C99.6219 20.8448 99.4301 19.9584 99.4301 18.9442C99.4301 17.93 99.6219 17.0415 100.005 16.2787C100.393 15.5159 100.939 14.9236 101.642 14.5017C102.345 14.0799 103.176 13.8689 104.135 13.8689C105.093 13.8689 105.924 14.0799 106.628 14.5017C107.331 14.9236 107.874 15.5159 108.258 16.2787C108.645 17.0415 108.839 17.93 108.839 18.9442C108.839 19.9584 108.645 20.8448 108.258 21.6033C107.874 22.3618 107.331 22.952 106.628 23.3739C105.924 23.7958 105.093 24.0067 104.135 24.0067ZM104.147 22.153C104.667 22.153 105.102 22.0103 105.451 21.7247C105.801 21.435 106.061 21.0472 106.231 20.5614C106.406 20.0756 106.493 19.5344 106.493 18.9378C106.493 18.337 106.406 17.7936 106.231 17.3078C106.061 16.8178 105.801 16.4279 105.451 16.1381C105.102 15.8483 104.667 15.7034 104.147 15.7034C103.615 15.7034 103.172 15.8483 102.818 16.1381C102.468 16.4279 102.206 16.8178 102.032 17.3078C101.861 17.7936 101.776 18.337 101.776 18.9378C101.776 19.5344 101.861 20.0756 102.032 20.5614C102.206 21.0472 102.468 21.435 102.818 21.7247C103.172 22.0103 103.615 22.153 104.147 22.153ZM110.803 23.8149V13.9968H113.015V15.6651H113.13C113.334 15.1026 113.673 14.6637 114.146 14.3483C114.619 14.0287 115.184 13.8689 115.84 13.8689C116.505 13.8689 117.065 14.0309 117.521 14.3547C117.981 14.6743 118.305 15.1111 118.493 15.6651H118.595C118.812 15.1196 119.179 14.685 119.695 14.3611C120.214 14.033 120.83 13.8689 121.542 13.8689C122.445 13.8689 123.182 14.1544 123.753 14.7255C124.324 15.2965 124.61 16.1296 124.61 17.2247V23.8149H122.29V17.5827C122.29 16.9733 122.128 16.528 121.804 16.2468C121.48 15.9612 121.084 15.8185 120.615 15.8185C120.057 15.8185 119.62 15.9932 119.305 16.3426C118.994 16.6878 118.838 17.1374 118.838 17.6914V23.8149H116.569V17.4868C116.569 16.9797 116.415 16.5749 116.109 16.2723C115.806 15.9698 115.41 15.8185 114.92 15.8185C114.587 15.8185 114.285 15.9037 114.012 16.0742C113.739 16.2404 113.522 16.4769 113.36 16.7837C113.198 17.0862 113.117 17.4399 113.117 17.8448V23.8149H110.803Z" fill="#090A18"/>
</svg>
