<svg width="64" height="65" viewBox="0 0 64 65" fill="none" xmlns="http://www.w3.org/2000/svg">
<g clip-path="url(#clip0_1344_1226)">
<path d="M50.6667 1.29395H13.3333C5.96954 1.29395 0 7.14165 0 14.3552V50.9266C0 58.1401 5.96954 63.9878 13.3333 63.9878H50.6667C58.0305 63.9878 64 58.1401 64 50.9266V14.3552C64 7.14165 58.0305 1.29395 50.6667 1.29395Z" fill="#0F6FFF"/>
<g clip-path="url(#clip1_1344_1226)">
<path d="M20.5176 46.4861V41.1064H26.009" stroke="white" stroke-width="2" stroke-linecap="round" stroke-linejoin="round"/>
<path d="M45.5368 29.9286C46.1195 32.9741 45.6535 36.1229 44.2121 38.8809C42.7707 41.6389 40.4354 43.8501 37.5726 45.1675C34.7098 46.4849 31.4816 46.8339 28.3945 46.1598C25.3074 45.4856 22.5361 43.8265 20.5154 41.4428M17.4641 35.0697C16.8815 32.0242 17.3474 28.8754 18.7888 26.1174C20.2303 23.3593 22.5656 21.1482 25.4284 19.8308C28.2911 18.5134 31.5194 18.1644 34.6065 18.8385C37.6936 19.5127 40.4649 21.1718 42.4856 23.5555" stroke="white" stroke-width="2" stroke-linecap="round" stroke-linejoin="round"/>
<path d="M42.483 18.5122V23.8918H36.9915M25.0565 33.2238C24.2793 33.0914 24.2793 31.9982 25.0565 31.8658C26.4327 31.6312 27.7063 31.0004 28.7151 30.0539C29.7239 29.1074 30.4221 27.888 30.7207 26.5513L30.7672 26.3409C30.9355 25.5882 32.0293 25.5838 32.2043 26.3344L32.2618 26.5795C32.5719 27.9102 33.2765 29.1215 34.2869 30.0612C35.2974 31.001 36.5688 31.6273 37.9415 31.8615C38.7231 31.9938 38.7231 33.0936 37.9415 33.2281C36.5691 33.4622 35.2979 34.0882 34.2875 35.0275C33.277 35.9668 32.5723 37.1777 32.2618 38.508L32.2043 38.7509C32.0293 39.5015 30.9355 39.4971 30.7672 38.7444L30.7229 38.5362C30.424 37.1988 29.7251 35.979 28.7155 35.0324C27.7059 34.0859 26.4313 33.4554 25.0543 33.2216L25.0565 33.2238Z" stroke="white" stroke-width="2" stroke-linecap="round" stroke-linejoin="round"/>
</g>
</g>
<defs>
<clipPath id="clip0_1344_1226">
<rect width="64" height="64" fill="white" transform="translate(0 0.314453)"/>
</clipPath>
<clipPath id="clip1_1344_1226">
<rect width="31" height="30.3689" fill="white" transform="translate(16 17.3145)"/>
</clipPath>
</defs>
</svg>
