<svg width="34" height="35" viewBox="0 0 34 35" fill="none" xmlns="http://www.w3.org/2000/svg">
<rect y="0.814453" width="34" height="34" rx="12" fill="white"/>
<g clip-path="url(#clip0_1344_1375)">
<path d="M23.1731 17.1234C23.1518 17.0332 23.1086 16.9497 23.0473 16.8803C22.9859 16.8109 22.9084 16.7577 22.8216 16.7254L18.7709 15.206L19.8016 10.05C19.825 9.93016 19.8087 9.80602 19.7553 9.69627C19.7019 9.58652 19.6143 9.49712 19.5056 9.44156C19.3969 9.38599 19.2731 9.36728 19.1529 9.38824C19.0327 9.40921 18.9225 9.46871 18.8391 9.55777L10.9641 17.9953C10.9001 18.0627 10.8538 18.1449 10.8294 18.2345C10.8049 18.3241 10.8031 18.4184 10.824 18.509C10.8449 18.5995 10.8879 18.6834 10.9491 18.7533C11.0104 18.8232 11.088 18.8768 11.175 18.9093L15.2271 20.4288L14.1991 25.5792C14.1758 25.699 14.1921 25.8231 14.2455 25.9329C14.2989 26.0426 14.3865 26.132 14.4952 26.1876C14.6038 26.2431 14.7276 26.2619 14.8479 26.2409C14.9681 26.2199 15.0783 26.1604 15.1617 26.0714L23.0367 17.6339C23.0995 17.5665 23.1448 17.4846 23.1686 17.3956C23.1924 17.3066 23.1939 17.2131 23.1731 17.1234ZM15.6905 23.8614L16.4266 20.1785C16.453 20.0479 16.4321 19.9121 16.3677 19.7955C16.3033 19.6788 16.1996 19.5888 16.0751 19.5414L12.3598 18.1457L18.3096 11.7712L17.5741 15.4542C17.5478 15.5848 17.5687 15.7205 17.6331 15.8372C17.6974 15.9538 17.8011 16.0439 17.9257 16.0912L21.6382 17.4834L15.6905 23.8614Z" fill="#0F6FFF"/>
<path d="M15.6905 23.8614L16.4266 20.1785C16.453 20.0479 16.4321 19.9121 16.3677 19.7955C16.3033 19.6788 16.1996 19.5888 16.0751 19.5414L12.3598 18.1457L18.3096 11.7712L17.5741 15.4542C17.5478 15.5848 17.5687 15.7205 17.6331 15.8372C17.6974 15.9538 17.8011 16.0439 17.9257 16.0912L21.6382 17.4834L15.6905 23.8614Z" fill="#0F6FFF"/>
</g>
<defs>
<clipPath id="clip0_1344_1375">
<rect width="18" height="18" fill="white" transform="translate(8 8.81445)"/>
</clipPath>
</defs>
</svg>
