<svg width="132" height="33" viewBox="0 0 132 33" fill="none" xmlns="http://www.w3.org/2000/svg">
<rect x="11" y="0.814941" width="12" height="9" fill="#090A18"/>
<rect y="23.8149" width="34" height="9" fill="#090A18"/>
<rect x="24" y="14.8149" width="10" height="18" fill="#090A18"/>
<rect y="14.8149" width="10" height="18" fill="#090A18"/>
<path d="M59.9203 10.724H62.2917V19.2766C62.2917 20.2141 62.0701 21.0387 61.627 21.7503C61.188 22.462 60.5701 23.0181 59.7733 23.4186C58.9764 23.8149 58.0453 24.0131 56.9799 24.0131C55.9103 24.0131 54.9771 23.8149 54.1802 23.4186C53.3833 23.0181 52.7654 22.462 52.3265 21.7503C51.8876 21.0387 51.6681 20.2141 51.6681 19.2766V10.724H54.0396V19.0784C54.0396 19.6239 54.1589 20.1097 54.3975 20.5358C54.6404 20.962 54.9814 21.2965 55.4203 21.5394C55.8592 21.778 56.3791 21.8973 56.9799 21.8973C57.5808 21.8973 58.1007 21.778 58.5396 21.5394C58.9828 21.2965 59.3237 20.962 59.5623 20.5358C59.801 20.1097 59.9203 19.6239 59.9203 19.0784V10.724ZM67.081 18.0621V23.8149H64.767V13.9968H66.9787V15.6651H67.0938C67.3196 15.1154 67.6797 14.6786 68.174 14.3547C68.6726 14.0309 69.2884 13.8689 70.0213 13.8689C70.6989 13.8689 71.2891 14.0138 71.7919 14.3036C72.299 14.5934 72.6911 15.0131 72.968 15.5628C73.2493 16.1125 73.3878 16.7794 73.3835 17.5635V23.8149H71.0696V17.9215C71.0696 17.2652 70.8991 16.7517 70.5582 16.381C70.2216 16.0103 69.755 15.8249 69.1584 15.8249C68.7536 15.8249 68.3935 15.9144 68.0781 16.0934C67.767 16.2681 67.522 16.5216 67.343 16.854C67.1683 17.1864 67.081 17.5891 67.081 18.0621ZM83.4957 16.5919L81.3864 16.822C81.3267 16.609 81.2223 16.4087 81.0732 16.2212C80.9283 16.0337 80.7322 15.8824 80.4851 15.7674C80.2379 15.6523 79.9354 15.5948 79.5774 15.5948C79.0959 15.5948 78.6911 15.6992 78.3629 15.908C78.0391 16.1168 77.8793 16.3874 77.8835 16.7198C77.8793 17.0053 77.9837 17.2375 78.1967 17.4165C78.4141 17.5955 78.772 17.7425 79.2706 17.8576L80.9453 18.2155C81.8743 18.4158 82.5646 18.7333 83.0163 19.1679C83.4723 19.6026 83.7024 20.1715 83.7067 20.8746C83.7024 21.4925 83.5213 22.038 83.1634 22.511C82.8097 22.9797 82.3175 23.3462 81.6868 23.6104C81.0561 23.8746 80.3317 24.0067 79.5135 24.0067C78.3118 24.0067 77.3445 23.7553 76.6115 23.2524C75.8786 22.7453 75.4418 22.0401 75.3011 21.1367L77.5575 20.9193C77.6598 21.3625 77.8771 21.697 78.2095 21.9229C78.5419 22.1487 78.9744 22.2617 79.5071 22.2617C80.0568 22.2617 80.4979 22.1487 80.8303 21.9229C81.1669 21.697 81.3352 21.4179 81.3352 21.0855C81.3352 20.8043 81.2266 20.572 81.0092 20.3888C80.7962 20.2056 80.4638 20.0649 80.0121 19.9669L78.3374 19.6154C77.3956 19.4193 76.6989 19.0891 76.2472 18.6246C75.7955 18.1559 75.5717 17.5635 75.576 16.8476C75.5717 16.2425 75.7358 15.7184 76.0682 15.2752C76.4048 14.8277 76.8714 14.4826 77.468 14.2397C78.0689 13.9925 78.7614 13.8689 79.5455 13.8689C80.696 13.8689 81.6016 14.1139 82.2621 14.604C82.9268 15.0941 83.3381 15.7567 83.4957 16.5919ZM85.6147 27.4968V13.9968H87.8903V15.6203H88.0245C88.1438 15.3817 88.3121 15.1282 88.5295 14.8597C88.7468 14.587 89.0408 14.3547 89.4116 14.163C89.7823 13.9669 90.2553 13.8689 90.8306 13.8689C91.5891 13.8689 92.2731 14.0628 92.8825 14.4506C93.4961 14.8341 93.9819 15.403 94.3398 16.1573C94.7021 16.9073 94.8832 17.8277 94.8832 18.9186C94.8832 19.9968 94.7063 20.913 94.3526 21.6672C93.9989 22.4215 93.5174 22.9968 92.908 23.3931C92.2987 23.7894 91.6083 23.9875 90.837 23.9875C90.2745 23.9875 89.8079 23.8938 89.4371 23.7063C89.0664 23.5188 88.7681 23.2929 88.5423 23.0287C88.3207 22.7603 88.1481 22.5067 88.0245 22.2681H87.9286V27.4968H85.6147ZM87.8839 18.9059C87.8839 19.5408 87.9734 20.0969 88.1523 20.5742C88.3356 21.0514 88.5977 21.4243 88.9386 21.6928C89.2837 21.957 89.7013 22.0891 90.1914 22.0891C90.7028 22.0891 91.131 21.9527 91.4762 21.68C91.8214 21.403 92.0813 21.0259 92.256 20.5486C92.435 20.0671 92.5245 19.5195 92.5245 18.9059C92.5245 18.2965 92.4371 17.7553 92.2624 17.2823C92.0877 16.8093 91.8278 16.4385 91.4826 16.1701C91.1374 15.9016 90.707 15.7674 90.1914 15.7674C89.6971 15.7674 89.2773 15.8973 88.9322 16.1573C88.587 16.4172 88.3249 16.7816 88.146 17.2503C87.9712 17.7191 87.8839 18.2709 87.8839 18.9059ZM99.1786 10.724V23.8149H96.8647V10.724H99.1786ZM104.383 24.0131C103.761 24.0131 103.201 23.9023 102.702 23.6807C102.208 23.4549 101.816 23.1225 101.526 22.6835C101.241 22.2446 101.098 21.7034 101.098 21.06C101.098 20.506 101.2 20.0479 101.405 19.6857C101.609 19.3235 101.888 19.0337 102.242 18.8164C102.596 18.599 102.994 18.435 103.437 18.3242C103.885 18.2091 104.347 18.126 104.824 18.0749C105.4 18.0152 105.866 17.962 106.224 17.9151C106.582 17.8639 106.842 17.7872 107.004 17.685C107.17 17.5784 107.253 17.4144 107.253 17.1928V17.1544C107.253 16.6729 107.111 16.3 106.825 16.0358C106.54 15.7716 106.128 15.6395 105.591 15.6395C105.025 15.6395 104.575 15.7631 104.243 16.0103C103.915 16.2574 103.693 16.5493 103.578 16.886L101.417 16.5791C101.588 15.9826 101.869 15.484 102.261 15.0834C102.653 14.6786 103.133 14.376 103.699 14.1757C104.266 13.9712 104.893 13.8689 105.579 13.8689C106.052 13.8689 106.523 13.9243 106.991 14.0351C107.46 14.1459 107.888 14.3291 108.276 14.5848C108.664 14.8362 108.975 15.1793 109.209 15.6139C109.448 16.0486 109.567 16.5919 109.567 17.2439V23.8149H107.343V22.4662H107.266C107.126 22.7389 106.927 22.9946 106.672 23.2333C106.42 23.4676 106.103 23.6573 105.719 23.8022C105.34 23.9428 104.895 24.0131 104.383 24.0131ZM104.984 22.3128C105.449 22.3128 105.851 22.2212 106.192 22.038C106.533 21.8505 106.795 21.6033 106.979 21.2965C107.166 20.9897 107.26 20.6551 107.26 20.2929V19.136C107.187 19.1956 107.064 19.251 106.889 19.3022C106.719 19.3533 106.527 19.398 106.314 19.4364C106.101 19.4747 105.89 19.5088 105.681 19.5387C105.472 19.5685 105.291 19.5941 105.138 19.6154C104.792 19.6622 104.483 19.7389 104.211 19.8455C103.938 19.952 103.723 20.1012 103.565 20.2929C103.407 20.4804 103.329 20.7233 103.329 21.0216C103.329 21.4478 103.484 21.7695 103.795 21.9868C104.106 22.2041 104.503 22.3128 104.984 22.3128ZM119.654 16.5919L117.545 16.822C117.485 16.609 117.381 16.4087 117.231 16.2212C117.086 16.0337 116.89 15.8824 116.643 15.7674C116.396 15.6523 116.094 15.5948 115.736 15.5948C115.254 15.5948 114.849 15.6992 114.521 15.908C114.197 16.1168 114.037 16.3874 114.042 16.7198C114.037 17.0053 114.142 17.2375 114.355 17.4165C114.572 17.5955 114.93 17.7425 115.429 17.8576L117.104 18.2155C118.032 18.4158 118.723 18.7333 119.175 19.1679C119.631 19.6026 119.861 20.1715 119.865 20.8746C119.861 21.4925 119.68 22.038 119.322 22.511C118.968 22.9797 118.476 23.3462 117.845 23.6104C117.214 23.8746 116.49 24.0067 115.672 24.0067C114.47 24.0067 113.503 23.7553 112.77 23.2524C112.037 22.7453 111.6 22.0401 111.459 21.1367L113.716 20.9193C113.818 21.3625 114.035 21.697 114.368 21.9229C114.7 22.1487 115.133 22.2617 115.665 22.2617C116.215 22.2617 116.656 22.1487 116.988 21.9229C117.325 21.697 117.493 21.4179 117.493 21.0855C117.493 20.8043 117.385 20.572 117.167 20.3888C116.954 20.2056 116.622 20.0649 116.17 19.9669L114.496 19.6154C113.554 19.4193 112.857 19.0891 112.405 18.6246C111.954 18.1559 111.73 17.5635 111.734 16.8476C111.73 16.2425 111.894 15.7184 112.226 15.2752C112.563 14.8277 113.03 14.4826 113.626 14.2397C114.227 13.9925 114.92 13.8689 115.704 13.8689C116.854 13.8689 117.76 14.1139 118.42 14.604C119.085 15.0941 119.496 15.7567 119.654 16.5919ZM124.087 18.0621V23.8149H121.773V10.724H124.036V15.6651H124.151C124.381 15.1111 124.737 14.6743 125.218 14.3547C125.704 14.0309 126.322 13.8689 127.072 13.8689C127.754 13.8689 128.348 14.0117 128.855 14.2972C129.362 14.5827 129.754 15.0003 130.031 15.55C130.313 16.0997 130.453 16.7709 130.453 17.5635V23.8149H128.139V17.9215C128.139 17.261 127.969 16.7475 127.628 16.381C127.291 16.0103 126.818 15.8249 126.209 15.8249C125.8 15.8249 125.433 15.9144 125.11 16.0934C124.79 16.2681 124.539 16.5216 124.355 16.854C124.176 17.1864 124.087 17.5891 124.087 18.0621Z" fill="#090A18"/>
</svg>
