<svg width="114" height="24" viewBox="0 0 114 24" fill="none" xmlns="http://www.w3.org/2000/svg">
<g clip-path="url(#clip0_1953_765)">
<path d="M0 21.7777C0 23.0859 1.00153 23.9344 2.54541 23.9344L9.98259 23.9345C14.4192 23.9345 18.0486 22.6626 20.5161 20.4358H0V21.7777ZM9.98259 0.00015894L2.54541 0C1.00153 0 0 0.848583 0 2.15682V3.49875H20.5161C18.0486 1.272 14.4193 0.00015894 9.98259 0.00015894ZM16.4729 15.3776C16.4729 16.436 17.2867 17.1227 18.541 17.1227H22.9975C23.5028 16.0604 23.8422 14.8928 23.9999 13.6326H18.5411C17.2866 13.6326 16.473 14.3192 16.473 15.3776M10.296 8.56554C10.296 9.62408 11.1097 10.3106 12.3641 10.3106H24C23.8422 9.05046 23.5028 7.88265 22.9976 6.82045H12.3642C11.1097 6.82045 10.296 7.50707 10.296 8.56554ZM12.3629 15.3776C12.3629 14.3191 11.5492 13.6326 10.2947 13.6326H0V17.1227H10.2946C11.5491 17.1227 12.3627 16.4361 12.3627 15.3776M6.18572 8.56546C6.18572 7.50691 5.37197 6.82037 4.1175 6.82037H0V10.3105H4.1175C5.37206 10.3105 6.18572 9.62392 6.18572 8.56546Z" fill="#4A4A4A"/>
</g>
<path d="M45.7781 19H41.342V5.90909H45.8675C47.1673 5.90909 48.2837 6.17116 49.217 6.69531C50.1545 7.2152 50.8746 7.96307 51.3775 8.93892C51.8803 9.91477 52.1317 11.0824 52.1317 12.4418C52.1317 13.8054 51.8782 14.9773 51.3711 15.9574C50.8683 16.9375 50.1417 17.6896 49.1914 18.2138C48.2454 18.7379 47.1076 19 45.7781 19ZM43.7134 16.9482H45.663C46.5749 16.9482 47.3356 16.782 47.945 16.4496C48.5543 16.1129 49.0124 15.6122 49.3192 14.9474C49.6261 14.2784 49.7795 13.4432 49.7795 12.4418C49.7795 11.4403 49.6261 10.6094 49.3192 9.94886C49.0124 9.28409 48.5586 8.78764 47.9577 8.45952C47.3612 8.12713 46.6197 7.96094 45.7333 7.96094H43.7134V16.9482ZM58.6293 19.1918C57.6449 19.1918 56.7947 18.9872 56.0788 18.5781C55.3672 18.1648 54.8196 17.581 54.4361 16.8267C54.0526 16.0682 53.8608 15.1754 53.8608 14.1484C53.8608 13.1385 54.0526 12.2521 54.4361 11.4893C54.8239 10.7223 55.3651 10.1257 56.0597 9.69957C56.7543 9.26918 57.5703 9.05398 58.5078 9.05398C59.1129 9.05398 59.6839 9.15199 60.2209 9.34801C60.7621 9.53977 61.2393 9.83807 61.6527 10.2429C62.0703 10.6477 62.3984 11.1634 62.6371 11.7898C62.8757 12.4119 62.995 13.1534 62.995 14.0142V14.7237H54.9474V13.1641H60.777C60.7727 12.7209 60.6768 12.3267 60.4893 11.9815C60.3018 11.6321 60.0398 11.3572 59.7031 11.157C59.3707 10.9567 58.983 10.8565 58.5398 10.8565C58.0668 10.8565 57.6513 10.9716 57.2933 11.2017C56.9354 11.4276 56.6563 11.7259 56.456 12.0966C56.2599 12.4631 56.1598 12.8658 56.1555 13.3047V14.6662C56.1555 15.2372 56.2599 15.7273 56.4688 16.1364C56.6776 16.5412 56.9695 16.8523 57.3445 17.0696C57.7195 17.2827 58.1584 17.3892 58.6612 17.3892C58.9979 17.3892 59.3026 17.3423 59.5753 17.2486C59.848 17.1506 60.0845 17.0078 60.2848 16.8203C60.4851 16.6328 60.6364 16.4006 60.7386 16.1236L62.8991 16.3665C62.7628 16.9375 62.5028 17.4361 62.1193 17.8622C61.7401 18.2841 61.2543 18.6122 60.6619 18.8466C60.0696 19.0767 59.392 19.1918 58.6293 19.1918ZM72.7125 11.777L70.6032 12.0071C70.5435 11.794 70.4391 11.5938 70.29 11.4062C70.1451 11.2188 69.949 11.0675 69.7019 10.9524C69.4547 10.8374 69.1522 10.7798 68.7942 10.7798C68.3127 10.7798 67.9078 10.8842 67.5797 11.093C67.2559 11.3018 67.0961 11.5724 67.1003 11.9048C67.0961 12.1903 67.2005 12.4226 67.4135 12.6016C67.6309 12.7805 67.9888 12.9276 68.4874 13.0426L70.1621 13.4006C71.0911 13.6009 71.7814 13.9183 72.2331 14.353C72.6891 14.7876 72.9192 15.3565 72.9235 16.0597C72.9192 16.6776 72.7381 17.223 72.3801 17.696C72.0265 18.1648 71.5343 18.5312 70.9036 18.7955C70.2729 19.0597 69.5485 19.1918 68.7303 19.1918C67.5286 19.1918 66.5613 18.9403 65.8283 18.4375C65.0953 17.9304 64.6586 17.2251 64.5179 16.3217L66.7743 16.1044C66.8766 16.5476 67.0939 16.8821 67.4263 17.108C67.7587 17.3338 68.1912 17.4467 68.7239 17.4467C69.2736 17.4467 69.7147 17.3338 70.0471 17.108C70.3837 16.8821 70.552 16.603 70.552 16.2706C70.552 15.9893 70.4434 15.7571 70.226 15.5739C70.013 15.3906 69.6806 15.25 69.2289 15.152L67.5542 14.8004C66.6124 14.6044 65.9157 14.2741 65.464 13.8097C65.0123 13.3409 64.7885 12.7486 64.7928 12.0327C64.7885 11.4276 64.9526 10.9034 65.285 10.4602C65.6216 10.0128 66.0882 9.66761 66.6848 9.42472C67.2857 9.17756 67.9782 9.05398 68.7623 9.05398C69.9128 9.05398 70.8184 9.29901 71.4789 9.78906C72.1436 10.2791 72.5549 10.9418 72.7125 11.777ZM79.1142 19.1918C78.1341 19.1918 77.2924 18.9766 76.5893 18.5462C75.8904 18.1158 75.3514 17.5213 74.9721 16.7628C74.5971 16 74.4096 15.1222 74.4096 14.1293C74.4096 13.1321 74.6014 12.2521 74.9849 11.4893C75.3684 10.7223 75.9096 10.1257 76.6085 9.69957C77.3116 9.26918 78.1426 9.05398 79.1014 9.05398C79.8983 9.05398 80.6035 9.20099 81.2172 9.49503C81.8351 9.7848 82.3272 10.196 82.6937 10.7287C83.0602 11.2571 83.269 11.875 83.3201 12.5824H81.1085C81.019 12.1094 80.8059 11.7152 80.4693 11.3999C80.1369 11.0803 79.6916 10.9205 79.1333 10.9205C78.6603 10.9205 78.2449 11.0483 77.8869 11.304C77.5289 11.5554 77.2498 11.9176 77.0495 12.3906C76.8535 12.8636 76.7555 13.4304 76.7555 14.0909C76.7555 14.7599 76.8535 15.3352 77.0495 15.8168C77.2456 16.294 77.5204 16.6626 77.8741 16.9226C78.2321 17.1783 78.6518 17.3061 79.1333 17.3061C79.4743 17.3061 79.7789 17.2422 80.0474 17.1143C80.3201 16.9822 80.5481 16.7926 80.7314 16.5455C80.9146 16.2983 81.0403 15.9979 81.1085 15.6442H83.3201C83.2647 16.3388 83.0602 16.9545 82.7065 17.4915C82.3528 18.0241 81.8713 18.4418 81.2619 18.7443C80.6525 19.0426 79.9366 19.1918 79.1142 19.1918ZM85.2202 19V9.18182H87.4638V10.8182H87.5661C87.745 10.2514 88.0518 9.81463 88.4865 9.50781C88.9254 9.19673 89.4261 9.04119 89.9886 9.04119C90.1165 9.04119 90.2592 9.04758 90.4169 9.06037C90.5788 9.06889 90.7131 9.08381 90.8196 9.10511V11.2337C90.7216 11.1996 90.5661 11.1697 90.353 11.1442C90.1442 11.1143 89.9418 11.0994 89.7457 11.0994C89.3239 11.0994 88.9446 11.1911 88.608 11.3743C88.2756 11.5533 88.0135 11.8026 87.8217 12.1222C87.63 12.4418 87.5341 12.8104 87.5341 13.228V19H85.2202ZM92.3569 19V9.18182H94.6708V19H92.3569ZM93.5202 7.78835C93.1538 7.78835 92.8384 7.6669 92.5742 7.42401C92.31 7.17685 92.1779 6.88068 92.1779 6.53551C92.1779 6.18608 92.31 5.88991 92.5742 5.64702C92.8384 5.39986 93.1538 5.27628 93.5202 5.27628C93.891 5.27628 94.2063 5.39986 94.4663 5.64702C94.7305 5.88991 94.8626 6.18608 94.8626 6.53551C94.8626 6.88068 94.7305 7.17685 94.4663 7.42401C94.2063 7.6669 93.891 7.78835 93.5202 7.78835ZM97.0502 22.6818V9.18182H99.3258V10.8054H99.46C99.5794 10.5668 99.7477 10.3132 99.965 10.0447C100.182 9.77202 100.476 9.53977 100.847 9.34801C101.218 9.15199 101.691 9.05398 102.266 9.05398C103.025 9.05398 103.709 9.24787 104.318 9.63565C104.932 10.0192 105.417 10.5881 105.775 11.3423C106.138 12.0923 106.319 13.0128 106.319 14.1037C106.319 15.1818 106.142 16.098 105.788 16.8523C105.434 17.6065 104.953 18.1818 104.344 18.5781C103.734 18.9744 103.044 19.1726 102.273 19.1726C101.71 19.1726 101.243 19.0788 100.873 18.8913C100.502 18.7038 100.204 18.478 99.9778 18.2138C99.7562 17.9453 99.5836 17.6918 99.46 17.4531H99.3642V22.6818H97.0502ZM99.3194 14.0909C99.3194 14.7259 99.4089 15.282 99.5879 15.7592C99.7711 16.2365 100.033 16.6094 100.374 16.8778C100.719 17.142 101.137 17.2741 101.627 17.2741C102.138 17.2741 102.567 17.1378 102.912 16.8651C103.257 16.5881 103.517 16.2109 103.692 15.7337C103.871 15.2521 103.96 14.7045 103.96 14.0909C103.96 13.4815 103.873 12.9403 103.698 12.4673C103.523 11.9943 103.263 11.6236 102.918 11.3551C102.573 11.0866 102.143 10.9524 101.627 10.9524C101.133 10.9524 100.713 11.0824 100.368 11.3423C100.023 11.6023 99.7605 11.9666 99.5815 12.4354C99.4068 12.9041 99.3194 13.456 99.3194 14.0909ZM113.203 9.18182V10.9716H107.559V9.18182H113.203ZM108.952 6.82955H111.266V16.0469C111.266 16.358 111.313 16.5966 111.407 16.7628C111.505 16.9247 111.633 17.0355 111.79 17.0952C111.948 17.1548 112.123 17.1847 112.314 17.1847C112.459 17.1847 112.591 17.174 112.711 17.1527C112.834 17.1314 112.928 17.1122 112.992 17.0952L113.382 18.9041C113.258 18.9467 113.081 18.9936 112.851 19.0447C112.626 19.0959 112.349 19.1257 112.02 19.1342C111.441 19.1513 110.919 19.0639 110.454 18.8722C109.99 18.6761 109.621 18.3736 109.349 17.9645C109.08 17.5554 108.948 17.044 108.952 16.4304V6.82955Z" fill="#4A4A4A"/>
<defs>
<clipPath id="clip0_1953_765">
<rect width="24" height="24" fill="white"/>
</clipPath>
</defs>
</svg>
