<svg width="136" height="24" viewBox="0 0 136 24" fill="none" xmlns="http://www.w3.org/2000/svg">
<g clip-path="url(#clip0_1953_769)">
<path d="M12 0C18.6278 0 24 5.35658 24 11.965C24 18.3703 18.9521 23.6003 12.606 23.915H11.394C5.04834 23.6003 0 18.3704 0 11.965C0 5.35658 5.37281 0 12 0Z" fill="#4A4A4A"/>
<path d="M11.5189 4.94986C14.2135 4.76991 16.6099 6.09803 17.9434 8.17371C18.1544 8.53586 18.052 8.99624 17.7015 9.23858C17.3321 9.49408 16.8461 9.38146 16.5683 8.99158C15.6049 7.63945 13.923 6.52098 12.0056 6.52098C8.32676 6.52098 5.50376 10.201 6.98642 14.0553C7.63957 15.7533 9.18767 16.9689 10.9898 17.2511C13.2035 17.5974 15.2283 16.8124 16.3944 15.1066L15.6657 15.2086H14.4082C14.009 15.2086 13.6397 14.9401 13.5686 14.5486C13.4753 14.0346 13.8692 13.5867 14.3679 13.5867H18.783V18.2041C18.783 18.3234 18.7567 18.4411 18.7058 18.5491C18.655 18.657 18.5808 18.7525 18.4887 18.8286C18.3966 18.9047 18.2888 18.9597 18.1729 18.9896C18.057 19.0195 17.9359 19.0236 17.8183 19.0015C17.4255 18.9308 17.1567 18.5621 17.1567 18.1644V17.3934L17.3095 16.5405C16.0183 18.0276 14.1227 18.947 12.0056 18.947C7.9752 18.947 4.73445 15.6212 4.96901 11.5478C5.17067 8.04726 8.01026 5.18463 11.5189 4.94986Z" fill="white"/>
</g>
<path d="M50.1958 10.0895C50.0893 9.74432 49.9423 9.43537 49.7548 9.16264C49.5716 8.88565 49.35 8.64915 49.09 8.45312C48.8343 8.2571 48.5403 8.11008 48.2079 8.01207C47.8755 7.9098 47.5133 7.85866 47.1213 7.85866C46.4181 7.85866 45.7917 8.03551 45.242 8.3892C44.6923 8.7429 44.2598 9.26278 43.9444 9.94886C43.6333 10.6307 43.4778 11.4616 43.4778 12.4418C43.4778 13.4304 43.6333 14.2678 43.9444 14.9538C44.2555 15.6399 44.688 16.1619 45.242 16.5199C45.796 16.8736 46.4395 17.0504 47.1724 17.0504C47.8372 17.0504 48.4125 16.9226 48.8983 16.6669C49.3883 16.4112 49.7654 16.049 50.0297 15.5803C50.2939 15.1072 50.426 14.5533 50.426 13.9183L50.9629 14.0014H47.4089V12.1477H52.7207V13.7202C52.7207 14.8409 52.4821 15.8104 52.0048 16.6286C51.5275 17.4467 50.8713 18.0774 50.036 18.5206C49.2008 18.9595 48.242 19.179 47.1596 19.179C45.9537 19.179 44.8947 18.9084 43.9828 18.3672C43.0751 17.8217 42.3656 17.0483 41.8542 16.0469C41.3471 15.0412 41.0936 13.848 41.0936 12.4673C41.0936 11.4105 41.2427 10.4666 41.541 9.63565C41.8436 8.80469 42.2654 8.09943 42.8066 7.51989C43.3478 6.93608 43.9828 6.4929 44.7115 6.19034C45.4402 5.88352 46.2328 5.73011 47.0893 5.73011C47.8137 5.73011 48.4892 5.83665 49.1156 6.04972C49.742 6.25852 50.2981 6.55682 50.7839 6.9446C51.274 7.33239 51.6767 7.79261 51.992 8.32528C52.3074 8.85795 52.514 9.44602 52.612 10.0895H50.1958ZM54.9116 19V9.18182H57.1552V10.8182H57.2575C57.4364 10.2514 57.7433 9.81463 58.1779 9.50781C58.6168 9.19673 59.1175 9.04119 59.68 9.04119C59.8079 9.04119 59.9506 9.04758 60.1083 9.06037C60.2702 9.06889 60.4045 9.08381 60.511 9.10511V11.2337C60.413 11.1996 60.2575 11.1697 60.0444 11.1442C59.8356 11.1143 59.6332 11.0994 59.4371 11.0994C59.0153 11.0994 58.636 11.1911 58.2994 11.3743C57.967 11.5533 57.7049 11.8026 57.5131 12.1222C57.3214 12.4418 57.2255 12.8104 57.2255 13.228V19H54.9116ZM64.6978 19.1982C64.0756 19.1982 63.5153 19.0874 63.0167 18.8658C62.5224 18.6399 62.1303 18.3075 61.8406 17.8686C61.555 17.4297 61.4123 16.8885 61.4123 16.245C61.4123 15.6911 61.5146 15.233 61.7191 14.8707C61.9237 14.5085 62.2028 14.2188 62.5565 14.0014C62.9102 13.7841 63.3086 13.62 63.7518 13.5092C64.1992 13.3942 64.6616 13.3111 65.1388 13.2599C65.7141 13.2003 66.1808 13.147 66.5387 13.1001C66.8967 13.049 67.1566 12.9723 67.3185 12.87C67.4847 12.7635 67.5678 12.5994 67.5678 12.3778V12.3395C67.5678 11.858 67.4251 11.4851 67.1396 11.2209C66.854 10.9567 66.4428 10.8246 65.9059 10.8246C65.3391 10.8246 64.8896 10.9482 64.5572 11.1953C64.229 11.4425 64.0075 11.7344 63.8924 12.071L61.7319 11.7642C61.9023 11.1676 62.1836 10.669 62.5756 10.2685C62.9677 9.86364 63.4471 9.56108 64.0138 9.3608C64.5806 9.15625 65.207 9.05398 65.8931 9.05398C66.3661 9.05398 66.837 9.10938 67.3058 9.22017C67.7745 9.33097 68.2028 9.5142 68.5906 9.76989C68.9783 10.0213 69.2894 10.3643 69.5238 10.799C69.7624 11.2337 69.8817 11.777 69.8817 12.429V19H67.6573V17.6513H67.5806C67.44 17.924 67.2418 18.1797 66.9862 18.4183C66.7347 18.6527 66.4173 18.8423 66.0337 18.9872C65.6545 19.1278 65.2092 19.1982 64.6978 19.1982ZM65.2987 17.4979C65.7631 17.4979 66.1658 17.4062 66.5067 17.223C66.8477 17.0355 67.1097 16.7884 67.293 16.4815C67.4805 16.1747 67.5742 15.8402 67.5742 15.478V14.321C67.5018 14.3807 67.3782 14.4361 67.2035 14.4872C67.033 14.5384 66.8413 14.5831 66.6282 14.6214C66.4151 14.6598 66.2042 14.6939 65.9954 14.7237C65.7866 14.7536 65.6055 14.7791 65.4521 14.8004C65.1069 14.8473 64.7979 14.924 64.5252 15.0305C64.2525 15.1371 64.0373 15.2862 63.8796 15.478C63.7219 15.6655 63.6431 15.9084 63.6431 16.2067C63.6431 16.6328 63.7987 16.9545 64.1097 17.1719C64.4208 17.3892 64.8171 17.4979 65.2987 17.4979ZM72.2085 19V9.18182H74.4201V10.8501H74.5352C74.7397 10.2876 75.0785 9.84872 75.5515 9.53338C76.0245 9.21378 76.5891 9.05398 77.2454 9.05398C77.9102 9.05398 78.4705 9.21591 78.9265 9.53977C79.3867 9.85937 79.7106 10.2962 79.8981 10.8501H80.0004C80.2177 10.3047 80.5842 9.87003 81.0998 9.54616C81.6197 9.21804 82.2354 9.05398 82.9471 9.05398C83.8505 9.05398 84.5877 9.33949 85.1587 9.91051C85.7298 10.4815 86.0153 11.3146 86.0153 12.4098V19H83.695V12.7678C83.695 12.1584 83.533 11.7131 83.2092 11.4318C82.8853 11.1463 82.489 11.0036 82.0202 11.0036C81.462 11.0036 81.0252 11.1783 80.7099 11.5277C80.3988 11.8729 80.2433 12.3224 80.2433 12.8764V19H77.9741V12.6719C77.9741 12.1648 77.8207 11.7599 77.5138 11.4574C77.2113 11.1548 76.815 11.0036 76.3249 11.0036C75.9925 11.0036 75.69 11.0888 75.4173 11.2592C75.1445 11.4254 74.9272 11.6619 74.7653 11.9688C74.6033 12.2713 74.5224 12.625 74.5224 13.0298V19H72.2085ZM88.3627 19V9.18182H90.5744V10.8501H90.6895C90.894 10.2876 91.2328 9.84872 91.7058 9.53338C92.1788 9.21378 92.7434 9.05398 93.3997 9.05398C94.0645 9.05398 94.6248 9.21591 95.0808 9.53977C95.541 9.85937 95.8649 10.2962 96.0524 10.8501H96.1547C96.372 10.3047 96.7385 9.87003 97.2541 9.54616C97.774 9.21804 98.3897 9.05398 99.1014 9.05398C100.005 9.05398 100.742 9.33949 101.313 9.91051C101.884 10.4815 102.17 11.3146 102.17 12.4098V19H99.8493V12.7678C99.8493 12.1584 99.6873 11.7131 99.3635 11.4318C99.0396 11.1463 98.6433 11.0036 98.1745 11.0036C97.6163 11.0036 97.1795 11.1783 96.8642 11.5277C96.5531 11.8729 96.3976 12.3224 96.3976 12.8764V19H94.1284V12.6719C94.1284 12.1648 93.975 11.7599 93.6681 11.4574C93.3656 11.1548 92.9693 11.0036 92.4792 11.0036C92.1468 11.0036 91.8443 11.0888 91.5716 11.2592C91.2988 11.4254 91.0815 11.6619 90.9196 11.9688C90.7576 12.2713 90.6767 12.625 90.6767 13.0298V19H88.3627ZM107.342 19.1982C106.72 19.1982 106.16 19.0874 105.661 18.8658C105.167 18.6399 104.775 18.3075 104.485 17.8686C104.2 17.4297 104.057 16.8885 104.057 16.245C104.057 15.6911 104.159 15.233 104.364 14.8707C104.568 14.5085 104.847 14.2188 105.201 14.0014C105.555 13.7841 105.953 13.62 106.396 13.5092C106.844 13.3942 107.306 13.3111 107.783 13.2599C108.359 13.2003 108.825 13.147 109.183 13.1001C109.541 13.049 109.801 12.9723 109.963 12.87C110.129 12.7635 110.212 12.5994 110.212 12.3778V12.3395C110.212 11.858 110.07 11.4851 109.784 11.2209C109.499 10.9567 109.087 10.8246 108.55 10.8246C107.984 10.8246 107.534 10.9482 107.202 11.1953C106.874 11.4425 106.652 11.7344 106.537 12.071L104.376 11.7642C104.547 11.1676 104.828 10.669 105.22 10.2685C105.612 9.86364 106.092 9.56108 106.658 9.3608C107.225 9.15625 107.852 9.05398 108.538 9.05398C109.011 9.05398 109.482 9.10938 109.95 9.22017C110.419 9.33097 110.847 9.5142 111.235 9.76989C111.623 10.0213 111.934 10.3643 112.168 10.799C112.407 11.2337 112.526 11.777 112.526 12.429V19H110.302V17.6513H110.225C110.085 17.924 109.886 18.1797 109.631 18.4183C109.379 18.6527 109.062 18.8423 108.678 18.9872C108.299 19.1278 107.854 19.1982 107.342 19.1982ZM107.943 17.4979C108.408 17.4979 108.81 17.4062 109.151 17.223C109.492 17.0355 109.754 16.7884 109.938 16.4815C110.125 16.1747 110.219 15.8402 110.219 15.478V14.321C110.146 14.3807 110.023 14.4361 109.848 14.4872C109.678 14.5384 109.486 14.5831 109.273 14.6214C109.06 14.6598 108.849 14.6939 108.64 14.7237C108.431 14.7536 108.25 14.7791 108.097 14.8004C107.751 14.8473 107.442 14.924 107.17 15.0305C106.897 15.1371 106.682 15.2862 106.524 15.478C106.366 15.6655 106.288 15.9084 106.288 16.2067C106.288 16.6328 106.443 16.9545 106.754 17.1719C107.065 17.3892 107.462 17.4979 107.943 17.4979ZM114.853 19V9.18182H117.097V10.8182H117.199C117.378 10.2514 117.685 9.81463 118.119 9.50781C118.558 9.19673 119.059 9.04119 119.621 9.04119C119.749 9.04119 119.892 9.04758 120.05 9.06037C120.212 9.06889 120.346 9.08381 120.452 9.10511V11.2337C120.354 11.1996 120.199 11.1697 119.986 11.1442C119.777 11.1143 119.575 11.0994 119.379 11.0994C118.957 11.0994 118.577 11.1911 118.241 11.3743C117.908 11.5533 117.646 11.8026 117.455 12.1222C117.263 12.4418 117.167 12.8104 117.167 13.228V19H114.853ZM124.304 5.90909V19H121.99V5.90909H124.304ZM128.121 22.6818C127.806 22.6818 127.514 22.6563 127.246 22.6051C126.981 22.5582 126.77 22.5028 126.613 22.4389L127.15 20.6364C127.486 20.7344 127.787 20.7813 128.051 20.777C128.315 20.7727 128.547 20.6896 128.748 20.5277C128.952 20.37 129.125 20.1058 129.265 19.7351L129.464 19.2045L125.903 9.18182H128.358L130.621 16.5966H130.723L132.992 9.18182H135.453L131.522 20.1889C131.339 20.7088 131.096 21.1541 130.793 21.5249C130.491 21.8999 130.12 22.1854 129.681 22.3814C129.246 22.5817 128.726 22.6818 128.121 22.6818Z" fill="#4A4A4A"/>
<defs>
<clipPath id="clip0_1953_769">
<rect width="24" height="24" fill="white"/>
</clipPath>
</defs>
</svg>
