<svg width="118" height="24" viewBox="0 0 118 24" fill="none" xmlns="http://www.w3.org/2000/svg">
<path d="M19.5 2H4.5C3.83696 2 3.20107 2.26339 2.73223 2.73223C2.26339 3.20107 2 3.83696 2 4.5V19.5C2 20.163 2.26339 20.7989 2.73223 21.2678C3.20107 21.7366 3.83696 22 4.5 22H19.5C20.163 22 20.7989 21.7366 21.2678 21.2678C21.7366 20.7989 22 20.163 22 19.5V4.5C22 3.83696 21.7366 3.20107 21.2678 2.73223C20.7989 2.26339 20.163 2 19.5 2ZM14.67 5.67C14.6687 5.58164 14.6851 5.49391 14.7183 5.41201C14.7514 5.33012 14.8007 5.25572 14.8632 5.19323C14.9257 5.13075 15.0001 5.08144 15.082 5.04825C15.1639 5.01506 15.2516 4.99865 15.34 5C15.5135 5.00503 15.6784 5.07618 15.8011 5.19888C15.9238 5.32158 15.995 5.48655 16 5.66V14.56C15.9801 14.7223 15.9014 14.8718 15.7789 14.9801C15.6564 15.0885 15.4985 15.1483 15.335 15.1483C15.1715 15.1483 15.0136 15.0885 14.8911 14.9801C14.7686 14.8718 14.6899 14.7223 14.67 14.56V5.67ZM11.33 5.33C11.33 5.1523 11.4006 4.98189 11.5262 4.85624C11.6519 4.73059 11.8223 4.66 12 4.66C12.1777 4.66 12.3481 4.73059 12.4738 4.85624C12.5994 4.98189 12.67 5.1523 12.67 5.33V15C12.67 15.1777 12.5994 15.3481 12.4738 15.4738C12.3481 15.5994 12.1777 15.67 12 15.67C11.8223 15.67 11.6519 15.5994 11.5262 15.4738C11.4006 15.3481 11.33 15.1777 11.33 15V5.33ZM8 5.67C8.01994 5.50767 8.09857 5.35825 8.22106 5.24988C8.34356 5.14152 8.50145 5.0817 8.665 5.0817C8.82855 5.0817 8.98644 5.14152 9.10894 5.24988C9.23143 5.35825 9.31006 5.50767 9.33 5.67V14.57C9.33001 14.6575 9.31261 14.7442 9.27882 14.8249C9.24503 14.9056 9.19552 14.9788 9.13317 15.0403C9.07082 15.1017 8.99688 15.1501 8.91564 15.1827C8.83441 15.2152 8.74751 15.2313 8.66 15.23C8.48655 15.225 8.32158 15.1538 8.19888 15.0311C8.07618 14.9084 8.00503 14.7435 8 14.57V5.67ZM4.67 7C4.68994 6.83767 4.76857 6.68825 4.89106 6.57988C5.01356 6.47152 5.17145 6.4117 5.335 6.4117C5.49855 6.4117 5.65644 6.47152 5.77894 6.57988C5.90143 6.68825 5.98006 6.83767 6 7V13C5.99737 13.176 5.92563 13.3438 5.80026 13.4673C5.67489 13.5908 5.50598 13.66 5.33 13.66C5.15576 13.6574 4.98938 13.5871 4.86616 13.4638C4.74295 13.3406 4.67258 13.1742 4.67 13V7ZM19.1 17.17C17.044 18.6688 14.5423 19.4299 12 19.33C9.45765 19.4299 6.956 18.6688 4.9 17.17C4.79559 17.0479 4.73853 16.8924 4.73921 16.7317C4.7399 16.5711 4.79829 16.416 4.90373 16.2948C5.00918 16.1736 5.15466 16.0943 5.31367 16.0714C5.47268 16.0485 5.63463 16.0835 5.77 16.17C7.59188 17.4424 9.77943 18.0849 12 18C14.2222 18.0857 16.411 17.4393 18.23 16.16C18.3654 16.0735 18.5273 16.0385 18.6863 16.0614C18.8453 16.0843 18.9908 16.1636 19.0963 16.2848C19.2017 16.406 19.2601 16.5611 19.2608 16.7217C19.2615 16.8824 19.2044 17.0379 19.1 17.16V17.17ZM19.33 13C19.3101 13.1623 19.2314 13.3118 19.1089 13.4201C18.9864 13.5285 18.8285 13.5883 18.665 13.5883C18.5015 13.5883 18.3436 13.5285 18.2211 13.4201C18.0986 13.3118 18.0199 13.1623 18 13V7C18.0026 6.82404 18.0744 6.65618 18.1997 6.53269C18.3251 6.4092 18.494 6.33998 18.67 6.34C18.845 6.34 19.0129 6.40954 19.1367 6.53331C19.2605 6.65708 19.33 6.82496 19.33 7V13Z" fill="#4A4A4A"/>
<path d="M43.8941 5.90909V19H41.5226V5.90909H43.8941ZM48.6737 13.2472V19H46.3598V9.18182H48.5715V10.8501H48.6865C48.9124 10.3004 49.2725 9.86364 49.7668 9.53977C50.2654 9.21591 50.8811 9.05398 51.6141 9.05398C52.2916 9.05398 52.8818 9.19886 53.3847 9.48864C53.8918 9.77841 54.2838 10.1982 54.5608 10.7479C54.8421 11.2976 54.9806 11.9645 54.9763 12.7486V19H52.6624V13.1065C52.6624 12.4503 52.4919 11.9368 52.151 11.5661C51.8144 11.1953 51.3477 11.0099 50.7512 11.0099C50.3463 11.0099 49.9862 11.0994 49.6709 11.2784C49.3598 11.4531 49.1148 11.7067 48.9358 12.0391C48.7611 12.3714 48.6737 12.7741 48.6737 13.2472ZM62.2313 9.18182V10.9716H56.5871V9.18182H62.2313ZM57.9806 6.82955H60.2945V16.0469C60.2945 16.358 60.3414 16.5966 60.4351 16.7628C60.5331 16.9247 60.661 17.0355 60.8186 17.0952C60.9763 17.1548 61.151 17.1847 61.3428 17.1847C61.4877 17.1847 61.6198 17.174 61.7391 17.1527C61.8627 17.1314 61.9564 17.1122 62.0203 17.0952L62.4102 18.9041C62.2867 18.9467 62.1098 18.9936 61.8797 19.0447C61.6539 19.0959 61.3769 19.1257 61.0487 19.1342C60.4692 19.1513 59.9472 19.0639 59.4827 18.8722C59.0182 18.6761 58.6496 18.3736 58.3769 17.9645C58.1084 17.5554 57.9763 17.044 57.9806 16.4304V6.82955ZM68.4076 19.1918C67.4232 19.1918 66.5731 18.9872 65.8572 18.5781C65.1455 18.1648 64.5979 17.581 64.2144 16.8267C63.8309 16.0682 63.6391 15.1754 63.6391 14.1484C63.6391 13.1385 63.8309 12.2521 64.2144 11.4893C64.6022 10.7223 65.1434 10.1257 65.838 9.69957C66.5326 9.26918 67.3486 9.05398 68.2861 9.05398C68.8912 9.05398 69.4623 9.15199 69.9992 9.34801C70.5404 9.53977 71.0177 9.83807 71.431 10.2429C71.8486 10.6477 72.1768 11.1634 72.4154 11.7898C72.654 12.4119 72.7733 13.1534 72.7733 14.0142V14.7237H64.7258V13.1641H70.5553C70.551 12.7209 70.4552 12.3267 70.2677 11.9815C70.0802 11.6321 69.8181 11.3572 69.4814 11.157C69.1491 10.9567 68.7613 10.8565 68.3181 10.8565C67.8451 10.8565 67.4296 10.9716 67.0716 11.2017C66.7137 11.4276 66.4346 11.7259 66.2343 12.0966C66.0383 12.4631 65.9381 12.8658 65.9339 13.3047V14.6662C65.9339 15.2372 66.0383 15.7273 66.2471 16.1364C66.4559 16.5412 66.7478 16.8523 67.1228 17.0696C67.4978 17.2827 67.9367 17.3892 68.4395 17.3892C68.7762 17.3892 69.0809 17.3423 69.3536 17.2486C69.6263 17.1506 69.8628 17.0078 70.0631 16.8203C70.2634 16.6328 70.4147 16.4006 70.517 16.1236L72.6775 16.3665C72.5411 16.9375 72.2812 17.4361 71.8976 17.8622C71.5184 18.2841 71.0326 18.6122 70.4403 18.8466C69.8479 19.0767 69.1704 19.1918 68.4076 19.1918ZM74.7309 19V9.18182H76.9745V10.8182H77.0768C77.2558 10.2514 77.5626 9.81463 77.9972 9.50781C78.4362 9.19673 78.9369 9.04119 79.4994 9.04119C79.6272 9.04119 79.77 9.04758 79.9276 9.06037C80.0896 9.06889 80.2238 9.08381 80.3303 9.10511V11.2337C80.2323 11.1996 80.0768 11.1697 79.8637 11.1442C79.6549 11.1143 79.4525 11.0994 79.2565 11.0994C78.8346 11.0994 78.4553 11.1911 78.1187 11.3743C77.7863 11.5533 77.5242 11.8026 77.3325 12.1222C77.1407 12.4418 77.0448 12.8104 77.0448 13.228V19H74.7309ZM85.746 19.1918C84.7659 19.1918 83.9243 18.9766 83.2211 18.5462C82.5223 18.1158 81.9832 17.5213 81.604 16.7628C81.229 16 81.0415 15.1222 81.0415 14.1293C81.0415 13.1321 81.2332 12.2521 81.6167 11.4893C82.0003 10.7223 82.5415 10.1257 83.2403 9.69957C83.9434 9.26918 84.7744 9.05398 85.7332 9.05398C86.5301 9.05398 87.2354 9.20099 87.849 9.49503C88.4669 9.7848 88.9591 10.196 89.3256 10.7287C89.692 11.2571 89.9008 11.875 89.952 12.5824H87.7403C87.6508 12.1094 87.4378 11.7152 87.1011 11.3999C86.7687 11.0803 86.3234 10.9205 85.7652 10.9205C85.2922 10.9205 84.8767 11.0483 84.5187 11.304C84.1608 11.5554 83.8817 11.9176 83.6814 12.3906C83.4854 12.8636 83.3873 13.4304 83.3873 14.0909C83.3873 14.7599 83.4854 15.3352 83.6814 15.8168C83.8774 16.294 84.1523 16.6626 84.5059 16.9226C84.8639 17.1783 85.2836 17.3061 85.7652 17.3061C86.1061 17.3061 86.4108 17.2422 86.6792 17.1143C86.952 16.9822 87.18 16.7926 87.3632 16.5455C87.5464 16.2983 87.6721 15.9979 87.7403 15.6442H89.952C89.8966 16.3388 89.692 16.9545 89.3383 17.4915C88.9846 18.0241 88.5031 18.4418 87.8937 18.7443C87.2844 19.0426 86.5684 19.1918 85.746 19.1918ZM96.1347 19.1918C95.1759 19.1918 94.3449 18.9808 93.6418 18.5589C92.9387 18.1371 92.3932 17.5469 92.0054 16.7884C91.6219 16.0298 91.4301 15.1435 91.4301 14.1293C91.4301 13.1151 91.6219 12.2266 92.0054 11.4638C92.3932 10.701 92.9387 10.1087 93.6418 9.68679C94.3449 9.26491 95.1759 9.05398 96.1347 9.05398C97.0935 9.05398 97.9244 9.26491 98.6276 9.68679C99.3307 10.1087 99.874 10.701 100.258 11.4638C100.645 12.2266 100.839 13.1151 100.839 14.1293C100.839 15.1435 100.645 16.0298 100.258 16.7884C99.874 17.5469 99.3307 18.1371 98.6276 18.5589C97.9244 18.9808 97.0935 19.1918 96.1347 19.1918ZM96.1475 17.3381C96.6673 17.3381 97.102 17.1953 97.4514 16.9098C97.8009 16.62 98.0608 16.2322 98.2313 15.7464C98.406 15.2607 98.4933 14.7195 98.4933 14.1229C98.4933 13.522 98.406 12.9787 98.2313 12.4929C98.0608 12.0028 97.8009 11.6129 97.4514 11.3232C97.102 11.0334 96.6673 10.8885 96.1475 10.8885C95.6148 10.8885 95.1716 11.0334 94.8179 11.3232C94.4685 11.6129 94.2064 12.0028 94.0317 12.4929C93.8612 12.9787 93.776 13.522 93.776 14.1229C93.776 14.7195 93.8612 15.2607 94.0317 15.7464C94.2064 16.2322 94.4685 16.62 94.8179 16.9098C95.1716 17.1953 95.6148 17.3381 96.1475 17.3381ZM102.803 19V9.18182H105.015V10.8501H105.13C105.334 10.2876 105.673 9.84872 106.146 9.53338C106.619 9.21378 107.184 9.05398 107.84 9.05398C108.505 9.05398 109.065 9.21591 109.521 9.53977C109.981 9.85937 110.305 10.2962 110.493 10.8501H110.595C110.812 10.3047 111.179 9.87003 111.695 9.54616C112.214 9.21804 112.83 9.05398 113.542 9.05398C114.445 9.05398 115.182 9.33949 115.753 9.91051C116.324 10.4815 116.61 11.3146 116.61 12.4098V19H114.29V12.7678C114.29 12.1584 114.128 11.7131 113.804 11.4318C113.48 11.1463 113.084 11.0036 112.615 11.0036C112.057 11.0036 111.62 11.1783 111.305 11.5277C110.994 11.8729 110.838 12.3224 110.838 12.8764V19H108.569V12.6719C108.569 12.1648 108.415 11.7599 108.109 11.4574C107.806 11.1548 107.41 11.0036 106.92 11.0036C106.587 11.0036 106.285 11.0888 106.012 11.2592C105.739 11.4254 105.522 11.6619 105.36 11.9688C105.198 12.2713 105.117 12.625 105.117 13.0298V19H102.803Z" fill="#4A4A4A"/>
</svg>
