<svg width="98" height="24" viewBox="0 0 98 24" fill="none" xmlns="http://www.w3.org/2000/svg">
<path d="M5.21245 4.98732C5.88445 5.53292 6.13565 5.49132 7.39805 5.40652L19.2908 4.69292C19.5436 4.69292 19.334 4.44172 19.2493 4.40012L17.2732 2.97132C16.8956 2.67692 16.3916 2.34092 15.4252 2.42572L3.90845 3.26572C3.48925 3.30732 3.40445 3.51692 3.57245 3.68492L5.21245 4.98732ZM5.92605 7.75852V20.2721C5.92605 20.9441 6.26205 21.1969 7.01885 21.1553L20.0908 20.3985C20.8461 20.3569 20.9308 19.8945 20.9308 19.3489V6.91852C20.9308 6.37452 20.7212 6.07852 20.2588 6.12012L6.59805 6.91852C6.09405 6.96012 5.92605 7.21292 5.92605 7.75852ZM18.83 8.43052C18.9132 8.80812 18.83 9.18572 18.4508 9.22892L17.8204 9.35372V18.5937C17.2748 18.8865 16.7692 19.0545 16.3484 19.0545C15.6764 19.0545 15.5084 18.8449 15.0044 18.2145L10.8844 11.7473V18.0049L12.1884 18.2993C12.1884 18.2993 12.1884 19.0545 11.1372 19.0545L8.23805 19.2225C8.15325 19.0545 8.23805 18.6353 8.53245 18.5505L9.28765 18.3425V10.0673L8.23965 9.98412C8.15485 9.60652 8.36445 9.06092 8.95325 9.01772L12.0636 8.80972L16.3516 15.3601V9.56492L15.2588 9.43852C15.174 8.97612 15.51 8.64012 15.9308 8.59852L18.83 8.43052ZM2.94205 2.13132L14.9212 1.24972C16.3916 1.12172 16.7708 1.20812 17.694 1.88012L21.518 4.56812C22.15 5.02892 22.3596 5.15532 22.3596 5.65932V20.3985C22.3596 21.3233 22.0236 21.8705 20.8461 21.9521L6.93565 22.7921C6.05245 22.8353 5.63165 22.7089 5.16925 22.1201L2.35325 18.4673C1.84925 17.7953 1.63965 17.2913 1.63965 16.7025V3.60012C1.63965 2.84492 1.97565 2.21452 2.94205 2.13132Z" fill="#4A4A4A"/>
<path d="M52.1769 5.90909V19H50.0676L43.8992 10.0831H43.7906V19H41.4191V5.90909H43.5413L49.7032 14.8324H49.8183V5.90909H52.1769ZM58.9413 19.1918C57.9825 19.1918 57.1515 18.9808 56.4484 18.5589C55.7453 18.1371 55.1998 17.5469 54.8121 16.7884C54.4285 16.0298 54.2368 15.1435 54.2368 14.1293C54.2368 13.1151 54.4285 12.2266 54.8121 11.4638C55.1998 10.701 55.7453 10.1087 56.4484 9.68679C57.1515 9.26491 57.9825 9.05398 58.9413 9.05398C59.9001 9.05398 60.7311 9.26491 61.4342 9.68679C62.1373 10.1087 62.6807 10.701 63.0642 11.4638C63.452 12.2266 63.6459 13.1151 63.6459 14.1293C63.6459 15.1435 63.452 16.0298 63.0642 16.7884C62.6807 17.5469 62.1373 18.1371 61.4342 18.5589C60.7311 18.9808 59.9001 19.1918 58.9413 19.1918ZM58.9541 17.3381C59.474 17.3381 59.9086 17.1953 60.2581 16.9098C60.6075 16.62 60.8675 16.2322 61.0379 15.7464C61.2126 15.2607 61.3 14.7195 61.3 14.1229C61.3 13.522 61.2126 12.9787 61.0379 12.4929C60.8675 12.0028 60.6075 11.6129 60.2581 11.3232C59.9086 11.0334 59.474 10.8885 58.9541 10.8885C58.4214 10.8885 57.9782 11.0334 57.6246 11.3232C57.2751 11.6129 57.0131 12.0028 56.8383 12.4929C56.6679 12.9787 56.5827 13.522 56.5827 14.1229C56.5827 14.7195 56.6679 15.2607 56.8383 15.7464C57.0131 16.2322 57.2751 16.62 57.6246 16.9098C57.9782 17.1953 58.4214 17.3381 58.9541 17.3381ZM70.5125 9.18182V10.9716H64.8683V9.18182H70.5125ZM66.2618 6.82955H68.5757V16.0469C68.5757 16.358 68.6226 16.5966 68.7164 16.7628C68.8144 16.9247 68.9422 17.0355 69.0999 17.0952C69.2575 17.1548 69.4323 17.1847 69.624 17.1847C69.7689 17.1847 69.901 17.174 70.0203 17.1527C70.1439 17.1314 70.2377 17.1122 70.3016 17.0952L70.6915 18.9041C70.5679 18.9467 70.3911 18.9936 70.161 19.0447C69.9351 19.0959 69.6581 19.1257 69.33 19.1342C68.7504 19.1513 68.2284 19.0639 67.7639 18.8722C67.2994 18.6761 66.9308 18.3736 66.6581 17.9645C66.3896 17.5554 66.2575 17.044 66.2618 16.4304V6.82955ZM72.4477 19V9.18182H74.7616V19H72.4477ZM73.6111 7.78835C73.2446 7.78835 72.9292 7.6669 72.665 7.42401C72.4008 7.17685 72.2687 6.88068 72.2687 6.53551C72.2687 6.18608 72.4008 5.88991 72.665 5.64702C72.9292 5.39986 73.2446 5.27628 73.6111 5.27628C73.9818 5.27628 74.2971 5.39986 74.5571 5.64702C74.8213 5.88991 74.9534 6.18608 74.9534 6.53551C74.9534 6.88068 74.8213 7.17685 74.5571 7.42401C74.2971 7.6669 73.9818 7.78835 73.6111 7.78835ZM81.4237 19.1918C80.4649 19.1918 79.634 18.9808 78.9308 18.5589C78.2277 18.1371 77.6823 17.5469 77.2945 16.7884C76.911 16.0298 76.7192 15.1435 76.7192 14.1293C76.7192 13.1151 76.911 12.2266 77.2945 11.4638C77.6823 10.701 78.2277 10.1087 78.9308 9.68679C79.634 9.26491 80.4649 9.05398 81.4237 9.05398C82.3825 9.05398 83.2135 9.26491 83.9166 9.68679C84.6198 10.1087 85.1631 10.701 85.5466 11.4638C85.9344 12.2266 86.1283 13.1151 86.1283 14.1293C86.1283 15.1435 85.9344 16.0298 85.5466 16.7884C85.1631 17.5469 84.6198 18.1371 83.9166 18.5589C83.2135 18.9808 82.3825 19.1918 81.4237 19.1918ZM81.4365 17.3381C81.9564 17.3381 82.3911 17.1953 82.7405 16.9098C83.0899 16.62 83.3499 16.2322 83.5203 15.7464C83.695 15.2607 83.7824 14.7195 83.7824 14.1229C83.7824 13.522 83.695 12.9787 83.5203 12.4929C83.3499 12.0028 83.0899 11.6129 82.7405 11.3232C82.3911 11.0334 81.9564 10.8885 81.4365 10.8885C80.9039 10.8885 80.4607 11.0334 80.107 11.3232C79.7575 11.6129 79.4955 12.0028 79.3208 12.4929C79.1503 12.9787 79.0651 13.522 79.0651 14.1229C79.0651 14.7195 79.1503 15.2607 79.3208 15.7464C79.4955 16.2322 79.7575 16.62 80.107 16.9098C80.4607 17.1953 80.9039 17.3381 81.4365 17.3381ZM90.4062 13.2472V19H88.0922V9.18182H90.3039V10.8501H90.4189C90.6448 10.3004 91.0049 9.86364 91.4992 9.53977C91.9978 9.21591 92.6135 9.05398 93.3465 9.05398C94.0241 9.05398 94.6143 9.19886 95.1171 9.48864C95.6242 9.77841 96.0162 10.1982 96.2932 10.7479C96.5745 11.2976 96.713 11.9645 96.7087 12.7486V19H94.3948V13.1065C94.3948 12.4503 94.2243 11.9368 93.8834 11.5661C93.5468 11.1953 93.0802 11.0099 92.4836 11.0099C92.0787 11.0099 91.7187 11.0994 91.4033 11.2784C91.0922 11.4531 90.8472 11.7067 90.6682 12.0391C90.4935 12.3714 90.4062 12.7741 90.4062 13.2472Z" fill="#4A4A4A"/>
</svg>
