<svg width="122" height="24" viewBox="0 0 122 24" fill="none" xmlns="http://www.w3.org/2000/svg">
<rect x="7.76465" y="0.705811" width="8.47059" height="6.35294" fill="#4A4A4A"/>
<rect y="16.9412" width="24" height="6.35294" fill="#4A4A4A"/>
<rect x="16.9414" y="10.5881" width="7.05882" height="12.7059" fill="#4A4A4A"/>
<rect y="10.5881" width="7.05882" height="12.7059" fill="#4A4A4A"/>
<path d="M49.9203 5.90909H52.2917V14.4616C52.2917 15.3991 52.0701 16.2237 51.627 16.9354C51.188 17.647 50.5701 18.2031 49.7733 18.6037C48.9764 19 48.0453 19.1982 46.9799 19.1982C45.9103 19.1982 44.9771 19 44.1802 18.6037C43.3833 18.2031 42.7654 17.647 42.3265 16.9354C41.8876 16.2237 41.6681 15.3991 41.6681 14.4616V5.90909H44.0396V14.2635C44.0396 14.8089 44.1589 15.2947 44.3975 15.7209C44.6404 16.147 44.9814 16.4815 45.4203 16.7244C45.8592 16.9631 46.3791 17.0824 46.9799 17.0824C47.5808 17.0824 48.1007 16.9631 48.5396 16.7244C48.9828 16.4815 49.3237 16.147 49.5623 15.7209C49.801 15.2947 49.9203 14.8089 49.9203 14.2635V5.90909ZM57.081 13.2472V19H54.767V9.18182H56.9787V10.8501H57.0938C57.3196 10.3004 57.6797 9.86364 58.174 9.53977C58.6726 9.21591 59.2884 9.05398 60.0213 9.05398C60.6989 9.05398 61.2891 9.19886 61.7919 9.48864C62.299 9.77841 62.6911 10.1982 62.968 10.7479C63.2493 11.2976 63.3878 11.9645 63.3835 12.7486V19H61.0696V13.1065C61.0696 12.4503 60.8991 11.9368 60.5582 11.5661C60.2216 11.1953 59.755 11.0099 59.1584 11.0099C58.7536 11.0099 58.3935 11.0994 58.0781 11.2784C57.767 11.4531 57.522 11.7067 57.343 12.0391C57.1683 12.3714 57.081 12.7741 57.081 13.2472ZM73.4957 11.777L71.3864 12.0071C71.3267 11.794 71.2223 11.5938 71.0732 11.4062C70.9283 11.2188 70.7322 11.0675 70.4851 10.9524C70.2379 10.8374 69.9354 10.7798 69.5774 10.7798C69.0959 10.7798 68.6911 10.8842 68.3629 11.093C68.0391 11.3018 67.8793 11.5724 67.8835 11.9048C67.8793 12.1903 67.9837 12.4226 68.1967 12.6016C68.4141 12.7805 68.772 12.9276 69.2706 13.0426L70.9453 13.4006C71.8743 13.6009 72.5646 13.9183 73.0163 14.353C73.4723 14.7876 73.7024 15.3565 73.7067 16.0597C73.7024 16.6776 73.5213 17.223 73.1634 17.696C72.8097 18.1648 72.3175 18.5312 71.6868 18.7955C71.0561 19.0597 70.3317 19.1918 69.5135 19.1918C68.3118 19.1918 67.3445 18.9403 66.6115 18.4375C65.8786 17.9304 65.4418 17.2251 65.3011 16.3217L67.5575 16.1044C67.6598 16.5476 67.8771 16.8821 68.2095 17.108C68.5419 17.3338 68.9744 17.4467 69.5071 17.4467C70.0568 17.4467 70.4979 17.3338 70.8303 17.108C71.1669 16.8821 71.3352 16.603 71.3352 16.2706C71.3352 15.9893 71.2266 15.7571 71.0092 15.5739C70.7962 15.3906 70.4638 15.25 70.0121 15.152L68.3374 14.8004C67.3956 14.6044 66.6989 14.2741 66.2472 13.8097C65.7955 13.3409 65.5717 12.7486 65.576 12.0327C65.5717 11.4276 65.7358 10.9034 66.0682 10.4602C66.4048 10.0128 66.8714 9.66761 67.468 9.42472C68.0689 9.17756 68.7614 9.05398 69.5455 9.05398C70.696 9.05398 71.6016 9.29901 72.2621 9.78906C72.9268 10.2791 73.3381 10.9418 73.4957 11.777ZM75.6147 22.6818V9.18182H77.8903V10.8054H78.0245C78.1438 10.5668 78.3121 10.3132 78.5295 10.0447C78.7468 9.77202 79.0408 9.53977 79.4116 9.34801C79.7823 9.15199 80.2553 9.05398 80.8306 9.05398C81.5891 9.05398 82.2731 9.24787 82.8825 9.63565C83.4961 10.0192 83.9819 10.5881 84.3398 11.3423C84.7021 12.0923 84.8832 13.0128 84.8832 14.1037C84.8832 15.1818 84.7063 16.098 84.3526 16.8523C83.9989 17.6065 83.5174 18.1818 82.908 18.5781C82.2987 18.9744 81.6083 19.1726 80.837 19.1726C80.2745 19.1726 79.8079 19.0788 79.4371 18.8913C79.0664 18.7038 78.7681 18.478 78.5423 18.2138C78.3207 17.9453 78.1481 17.6918 78.0245 17.4531H77.9286V22.6818H75.6147ZM77.8839 14.0909C77.8839 14.7259 77.9734 15.282 78.1523 15.7592C78.3356 16.2365 78.5977 16.6094 78.9386 16.8778C79.2837 17.142 79.7013 17.2741 80.1914 17.2741C80.7028 17.2741 81.131 17.1378 81.4762 16.8651C81.8214 16.5881 82.0813 16.2109 82.256 15.7337C82.435 15.2521 82.5245 14.7045 82.5245 14.0909C82.5245 13.4815 82.4371 12.9403 82.2624 12.4673C82.0877 11.9943 81.8278 11.6236 81.4826 11.3551C81.1374 11.0866 80.707 10.9524 80.1914 10.9524C79.6971 10.9524 79.2773 11.0824 78.9322 11.3423C78.587 11.6023 78.3249 11.9666 78.146 12.4354C77.9712 12.9041 77.8839 13.456 77.8839 14.0909ZM89.1786 5.90909V19H86.8647V5.90909H89.1786ZM94.3833 19.1982C93.7612 19.1982 93.2008 19.0874 92.7022 18.8658C92.2079 18.6399 91.8159 18.3075 91.5261 17.8686C91.2406 17.4297 91.0978 16.8885 91.0978 16.245C91.0978 15.6911 91.2001 15.233 91.4047 14.8707C91.6092 14.5085 91.8883 14.2188 92.242 14.0014C92.5957 13.7841 92.9941 13.62 93.4373 13.5092C93.8848 13.3942 94.3471 13.3111 94.8244 13.2599C95.3997 13.2003 95.8663 13.147 96.2243 13.1001C96.5822 13.049 96.8422 12.9723 97.0041 12.87C97.1703 12.7635 97.2534 12.5994 97.2534 12.3778V12.3395C97.2534 11.858 97.1106 11.4851 96.8251 11.2209C96.5396 10.9567 96.1284 10.8246 95.5914 10.8246C95.0247 10.8246 94.5751 10.9482 94.2427 11.1953C93.9146 11.4425 93.693 11.7344 93.5779 12.071L91.4174 11.7642C91.5879 11.1676 91.8691 10.669 92.2612 10.2685C92.6532 9.86364 93.1326 9.56108 93.6994 9.3608C94.2662 9.15625 94.8926 9.05398 95.5787 9.05398C96.0517 9.05398 96.5226 9.10938 96.9913 9.22017C97.4601 9.33097 97.8883 9.5142 98.2761 9.76989C98.6639 10.0213 98.975 10.3643 99.2093 10.799C99.448 11.2337 99.5673 11.777 99.5673 12.429V19H97.3429V17.6513H97.2662C97.1255 17.924 96.9274 18.1797 96.6717 18.4183C96.4203 18.6527 96.1028 18.8423 95.7193 18.9872C95.34 19.1278 94.8947 19.1982 94.3833 19.1982ZM94.9842 17.4979C95.4487 17.4979 95.8514 17.4062 96.1923 17.223C96.5332 17.0355 96.7953 16.7884 96.9785 16.4815C97.166 16.1747 97.2598 15.8402 97.2598 15.478V14.321C97.1873 14.3807 97.0637 14.4361 96.889 14.4872C96.7186 14.5384 96.5268 14.5831 96.3137 14.6214C96.1007 14.6598 95.8897 14.6939 95.6809 14.7237C95.4721 14.7536 95.291 14.7791 95.1376 14.8004C94.7924 14.8473 94.4835 14.924 94.2108 15.0305C93.938 15.1371 93.7228 15.2862 93.5652 15.478C93.4075 15.6655 93.3287 15.9084 93.3287 16.2067C93.3287 16.6328 93.4842 16.9545 93.7953 17.1719C94.1064 17.3892 94.5027 17.4979 94.9842 17.4979ZM109.654 11.777L107.545 12.0071C107.485 11.794 107.381 11.5938 107.231 11.4062C107.086 11.2188 106.89 11.0675 106.643 10.9524C106.396 10.8374 106.094 10.7798 105.736 10.7798C105.254 10.7798 104.849 10.8842 104.521 11.093C104.197 11.3018 104.037 11.5724 104.042 11.9048C104.037 12.1903 104.142 12.4226 104.355 12.6016C104.572 12.7805 104.93 12.9276 105.429 13.0426L107.104 13.4006C108.032 13.6009 108.723 13.9183 109.175 14.353C109.631 14.7876 109.861 15.3565 109.865 16.0597C109.861 16.6776 109.68 17.223 109.322 17.696C108.968 18.1648 108.476 18.5312 107.845 18.7955C107.214 19.0597 106.49 19.1918 105.672 19.1918C104.47 19.1918 103.503 18.9403 102.77 18.4375C102.037 17.9304 101.6 17.2251 101.459 16.3217L103.716 16.1044C103.818 16.5476 104.035 16.8821 104.368 17.108C104.7 17.3338 105.133 17.4467 105.665 17.4467C106.215 17.4467 106.656 17.3338 106.988 17.108C107.325 16.8821 107.493 16.603 107.493 16.2706C107.493 15.9893 107.385 15.7571 107.167 15.5739C106.954 15.3906 106.622 15.25 106.17 15.152L104.496 14.8004C103.554 14.6044 102.857 14.2741 102.405 13.8097C101.954 13.3409 101.73 12.7486 101.734 12.0327C101.73 11.4276 101.894 10.9034 102.226 10.4602C102.563 10.0128 103.03 9.66761 103.626 9.42472C104.227 9.17756 104.92 9.05398 105.704 9.05398C106.854 9.05398 107.76 9.29901 108.42 9.78906C109.085 10.2791 109.496 10.9418 109.654 11.777ZM114.087 13.2472V19H111.773V5.90909H114.036V10.8501H114.151C114.381 10.2962 114.737 9.85937 115.218 9.53977C115.704 9.21591 116.322 9.05398 117.072 9.05398C117.754 9.05398 118.348 9.19673 118.855 9.48224C119.362 9.76776 119.754 10.1854 120.031 10.7351C120.313 11.2848 120.453 11.956 120.453 12.7486V19H118.139V13.1065C118.139 12.446 117.969 11.9325 117.628 11.5661C117.291 11.1953 116.818 11.0099 116.209 11.0099C115.8 11.0099 115.433 11.0994 115.11 11.2784C114.79 11.4531 114.539 11.7067 114.355 12.0391C114.176 12.3714 114.087 12.7741 114.087 13.2472Z" fill="#4A4A4A"/>
</svg>
