<svg width="334" height="335" viewBox="0 0 334 335" fill="none" xmlns="http://www.w3.org/2000/svg">
<rect width="334" height="334.87" rx="10.4375" fill="#0D0D0D"/>
<rect width="334" height="334" fill="#0E0E0E"/>
<path d="M223.122 103.04C225.16 104.324 226.775 106.179 227.766 108.375C229.096 111.489 230.032 114.757 230.553 118.103C229.784 118.123 229.018 118.22 228.268 118.392C228.18 118.392 227.678 118.655 227.59 118.931C227.188 120.323 226.882 121.741 226.674 123.174L201.569 123.325C201.28 123.325 201.318 123.664 201.569 123.676C201.569 123.676 224.49 124.028 226.674 124.04C226.122 128.609 226.586 133.63 229.825 136.869C232.875 139.882 243.244 140.308 247.097 137.434C250.298 135.036 251.089 128.107 250.863 124.04C251.616 124.04 268.587 123.739 270.269 123.676C270.316 123.676 270.361 123.658 270.394 123.625C270.427 123.592 270.445 123.547 270.445 123.5C270.445 123.454 270.427 123.409 270.394 123.376C270.361 123.343 270.316 123.325 270.269 123.325C267.407 123.325 250.825 123.199 250.825 123.199C250.486 119.433 249.57 119.057 249.57 118.881C249.56 118.765 249.513 118.655 249.436 118.567C249.36 118.479 249.257 118.418 249.143 118.392C248.051 118.178 246.942 118.065 245.829 118.053C247.587 115.228 249.093 107.546 251.855 102.399C255.947 94.7298 271.349 102.035 271.098 95.257C270.797 87.7254 262.437 83.4952 253.461 87.4869C244.938 91.2527 242.716 108.826 242.566 118.002C239.992 118.002 241.235 118.078 237.545 118.002C240.771 113.709 244.875 99.3994 244.16 89.3949C243.34 82.7555 240.546 76.5152 236.139 71.4823C232.273 67.1516 227.741 65.3189 224.327 68.796C219.306 73.8171 223.925 79.4281 228.218 85.1144C232.938 91.3908 234.708 94.5164 235.348 103.454C235.648 108.303 235.556 113.168 235.072 118.002H233.678C234.758 114.475 233.365 106.705 232.348 103.052C230.892 97.893 228.406 92.6962 224.465 89.1187C219.809 85.0982 214.146 82.4209 208.084 81.3738C204.381 80.7461 201.217 80.9846 199.498 82.0139C198.865 82.3429 198.377 82.8941 198.127 83.5616C197.876 84.229 197.882 84.9655 198.142 85.6291C200.226 92.4452 214.962 98.0186 223.122 103.04ZM253.713 88.2903C262.11 84.5245 269.843 88.4786 270.106 95.3072C270.307 100.542 255.206 94.0519 251.089 102.073C248.227 107.621 246.959 115.379 245.227 118.065H244.336C245.591 112.529 248.666 100.215 252.282 95.8595C256.901 90.2234 264.947 93.5122 265.299 93.4243C265.437 93.4243 265.575 93.1984 265.161 93.0477C260.139 91.2276 255.031 91.2652 251.616 95.3072C247.512 100.153 244.926 111.826 243.846 118.103H242.767C243.106 109.316 245.566 91.8678 253.713 88.2903ZM235.988 103.441C235.486 94.5791 233.854 91.328 228.896 84.6123C224.829 79.1519 220.473 73.9426 224.967 69.386C228.03 66.2729 232.022 68.1307 235.486 72.0471C239.728 76.958 242.404 83.026 243.168 89.4702C243.984 99.6379 239.842 114.237 236.892 118.015H236.227C237.569 112.267 238.438 106.419 238.825 100.529C239.114 95.508 239.026 92.0184 237.57 87.6501C236.374 84.3241 234.713 81.1841 232.637 78.3235C231.646 76.9125 230.555 75.5743 229.373 74.3192C229.343 74.2825 229.3 74.2593 229.253 74.2546C229.206 74.2499 229.159 74.2641 229.122 74.2941C229.085 74.324 229.062 74.3673 229.057 74.4144C229.053 74.4615 229.067 74.5085 229.097 74.5451C229.411 74.8737 229.705 75.2216 229.975 75.587C233.892 80.608 237.758 87.9388 238.059 94.416C238.361 100.893 237.068 111.701 235.875 118.103H235.524C236.078 113.236 236.233 108.333 235.988 103.441ZM248.779 119.459C250.851 121.354 250.198 133.944 246.445 136.756C242.691 139.568 232.913 138.903 230.252 136.329C226.059 132.3 226.486 124.756 227.917 119.157C228.006 119.275 228.128 119.362 228.268 119.408C229.233 119.631 230.216 119.765 231.206 119.81C229.977 124.365 230.192 129.19 231.821 133.618C231.881 133.744 231.988 133.842 232.12 133.889C232.252 133.936 232.397 133.929 232.524 133.869C232.65 133.809 232.748 133.701 232.795 133.569C232.842 133.438 232.835 133.293 232.775 133.166C231.193 130.003 230.766 122.973 231.683 119.898C235.599 120.074 246.081 120.149 248.779 119.459ZM223.925 89.7589C232.436 97.2905 234.62 113.973 233.302 118.04H232.524C232.345 114.552 231.738 111.099 230.716 107.759C228.005 98.9726 223.461 93.5749 216.494 89.5079C212.855 87.4262 208.96 85.827 204.908 84.7504C204.861 84.7388 204.812 84.7461 204.771 84.7708C204.729 84.7955 204.7 84.8356 204.688 84.8822C204.676 84.9288 204.684 84.9782 204.709 85.0194C204.733 85.0606 204.773 85.0902 204.82 85.1019C209.55 86.6017 214.04 88.7747 218.151 91.554C222.709 94.5887 226.269 98.9036 228.381 103.956C230.386 108.422 231.657 113.182 232.147 118.053H230.967C230.503 114.607 229.609 111.234 228.306 108.01C227.288 105.693 225.618 103.721 223.498 102.337C215.201 97.2278 200.904 91.6293 198.996 85.3529C197.226 79.5913 214.285 81.1227 223.925 89.7589ZM115.382 154.393C98.6622 148.581 83.6743 145.982 74.3477 143.635C74.2322 143.602 74.1113 143.594 73.9923 143.609C73.8733 143.624 73.7587 143.664 73.6552 143.724C73.5517 143.785 73.4616 143.866 73.3902 143.963C73.3189 144.059 73.2677 144.169 73.2398 144.286C73.2119 144.402 73.2078 144.523 73.2278 144.642C73.2479 144.76 73.2916 144.873 73.3564 144.974C73.4211 145.075 73.5056 145.162 73.6048 145.229C73.704 145.297 73.8157 145.344 73.9334 145.367C79.9336 146.811 88.9966 148.468 98.8002 150.74C114.993 154.506 115.345 155.623 115.608 154.844C115.636 154.755 115.629 154.657 115.586 154.573C115.544 154.489 115.471 154.424 115.382 154.393ZM247.876 164.548C247.876 164.518 247.87 164.489 247.858 164.461C247.847 164.434 247.83 164.409 247.809 164.388C247.788 164.367 247.763 164.35 247.736 164.339C247.709 164.328 247.679 164.322 247.65 164.322C236.641 164.322 225.934 166.832 219.871 167.397C219.797 167.403 219.725 167.424 219.659 167.459C219.594 167.493 219.536 167.541 219.489 167.598C219.442 167.656 219.407 167.722 219.387 167.793C219.366 167.864 219.36 167.939 219.368 168.012C219.375 168.086 219.396 168.159 219.43 168.225C219.465 168.291 219.512 168.35 219.569 168.398C219.626 168.445 219.692 168.481 219.763 168.504C219.834 168.526 219.909 168.534 219.984 168.527C224.427 168.087 232.122 166.405 239.327 165.477C247.323 164.548 247.888 165.113 247.876 164.548ZM209.954 190.67C209.965 190.649 209.972 190.627 209.974 190.603C209.976 190.58 209.973 190.557 209.966 190.535C209.959 190.513 209.948 190.492 209.933 190.474C209.918 190.456 209.899 190.442 209.879 190.431L209.565 190.268L209.49 190.645C209.703 190.745 209.866 190.908 209.954 190.67Z" fill="white"/>
<path d="M286.199 193.808C282.973 193.143 275.002 193.406 271.713 193.695C274.424 184.431 277.224 172.356 278.353 165.703C278.763 163.862 278.94 161.977 278.881 160.092C278.839 159.922 278.763 159.764 278.658 159.625C278.552 159.487 278.418 159.372 278.266 159.288C273.244 156.138 220.636 163.054 216.971 164.874C215.879 165.414 214.9 168.138 214.46 169.368C211.209 164.021 211.548 162.753 207.92 154.305C205.66 148.802 202.793 143.569 199.372 138.702C199.46 138.037 202.937 112.065 199.209 105.124C196.698 100.479 183.104 98.8472 177.869 98.4079C177.869 98.1317 177.217 93.3868 176.941 91.2403C181.359 87.5498 183.217 80.7588 178.422 79.6165C175.02 78.8132 161.589 76.2524 151.584 78.8383C145.308 80.4701 140.287 84.1355 139.86 91.3909C139.691 94.146 139.86 96.9113 140.362 99.6255C133.872 100.341 122.7 101.408 117.002 103.554C109.671 106.316 112.759 138.388 113.537 140.986C113.11 142.041 112.709 143.108 112.345 144.1C94.0804 139.442 53.1965 130.756 51.3763 130.919C50.9022 130.913 50.4341 131.025 50.0136 131.244C49.5931 131.463 49.2333 131.783 48.9662 132.174C48.4767 132.287 48.3009 132.978 48.2131 133.43C46.9578 140.108 49.2298 179.988 49.6315 186.753C50.2968 189.189 69.6404 194.473 72.151 195.164C72.2765 198.465 72.9418 214.859 73.0799 218.223C71.9878 218.024 70.9068 217.768 69.8413 217.457C67.6069 216.541 59.046 224.876 59.7992 224.185C56.5229 227.098 92.1724 236.675 95.0219 235.872C97.8713 235.069 103.507 229.684 102.553 226.683C102.29 226.15 101.845 225.727 101.298 225.491C98.5994 224.072 91.4569 222.328 88.482 221.612C88.7707 215.537 88.7707 205.57 88.7581 199.519C92.2854 200.398 112.307 205.243 115.922 205.181C116.181 205.184 116.437 205.119 116.663 204.992C117.818 204.829 119.173 204.541 119.286 203.361C119.286 203.009 119.575 199.946 119.939 195.402C128.789 198.779 139.521 198.528 141.429 197.75C141.943 197.501 142.378 197.115 142.684 196.632C142.772 196.745 142.81 196.72 143.475 196.821C145.986 197.222 150.003 197.599 152.262 196.419C155.463 196.934 164.739 197.674 165.43 194.574C165.518 194.16 165.643 193.318 165.769 192.302C175.058 192.804 208.046 192.578 208.172 192.578L207.406 196.03C207.386 196.001 207.36 195.978 207.329 195.963C207.299 195.948 207.264 195.94 207.23 195.942C207.23 195.842 207.23 195.867 207.23 195.942C202.09 195.537 196.932 195.403 191.778 195.54C189.945 195.628 185.112 195.854 185.024 197.637C184.383 199.151 184.289 200.843 184.761 202.419C185.037 203.411 187.372 205.018 188.238 205.608C183.33 205.118 180.468 205.306 178.987 205.833C178.634 205.895 178.306 206.053 178.038 206.29C177.77 206.527 177.573 206.833 177.469 207.175C177.365 207.517 177.358 207.882 177.449 208.228C177.539 208.574 177.724 208.888 177.982 209.135C179.664 211.445 183.167 212.223 183.543 215.248C184.259 220.985 169.673 227.474 164.35 229.746C167.024 226.232 174.191 215.173 170.714 212.499C166.848 209.524 133.697 208.218 130.646 208.997C128.5 209.549 112.721 221.21 113.01 225.315C113.211 227.989 128.738 230.612 131.625 231.115C134.877 231.667 158.074 235.282 160.848 233.512C161.436 233.275 161.971 232.921 162.419 232.473C162.868 232.024 163.222 231.489 163.459 230.901C168.266 229.249 172.892 227.112 177.267 224.524C184.171 220.244 188.037 214.947 181.208 210.491C180.392 209.963 178.158 208.357 178.484 207.453C179.187 205.457 188.891 206.197 189.029 206.197C193.535 209.135 202.159 213.666 207.243 214.984C212.615 216.403 237.72 213.654 243.783 212.888C244.474 215.399 245.139 217.733 245.578 219.164C244.637 219.24 241.951 219.478 241.198 220.068C240.783 220.395 240.796 220.947 241.461 221.323C241.461 225.529 240.946 238.106 242.202 243.78C242.679 245.902 243.231 246.78 245.428 247.546C249.583 248.889 257.566 248.412 261.746 247.295C264.345 246.592 264.684 246.04 265.098 244.659C266.529 239.964 266.453 226.106 266.353 221.185C266.433 221.127 266.499 221.051 266.544 220.962C266.589 220.874 266.613 220.776 266.613 220.677C266.613 220.578 266.589 220.48 266.544 220.392C266.499 220.303 266.433 220.227 266.353 220.169C265.425 219.738 264.424 219.483 263.403 219.415C263.579 218.01 264.52 210.152 264.658 208.771C265.314 208.377 265.9 207.877 266.391 207.29C267.158 206.357 267.657 205.233 267.834 204.038C269.09 202.394 270.897 196.256 271.487 194.247C277.086 194.486 285.295 194.16 286.061 194.247C286.119 194.266 286.182 194.26 286.236 194.232C286.29 194.204 286.331 194.155 286.349 194.097C286.368 194.038 286.362 193.975 286.334 193.921C286.306 193.867 286.257 193.826 286.199 193.808ZM116.525 220.897C117.366 219.968 118.357 219.001 119.412 218.022C123.893 213.88 129.592 209.712 130.835 209.398C133.847 208.62 166.936 210.654 170.3 213.164C170.865 213.591 170.978 214.419 170.865 215.411C170.413 219.353 166.296 225.855 163.898 229.031C161.187 226.696 120.115 221.386 116.525 220.897ZM178.033 99.3116C182.828 99.7635 196.272 101.308 198.581 105.5C201.845 111.4 199.837 131.522 199.033 138.137C198.33 137.196 197.602 136.304 196.862 135.488C192.606 130.819 185.301 128.471 179.112 127.279C175.137 126.587 171.126 126.113 167.099 125.861C166.974 125.861 167.175 126.049 166.183 124.015C164.702 120.965 164.614 121.015 164.764 120.927C166.41 120.84 168.04 120.562 169.622 120.099C173.865 118.844 176.388 116.333 177.581 110.232C178.228 106.617 178.363 102.928 177.982 99.274L178.033 99.3116ZM167.225 126.25C168.016 126.363 168.229 126.35 168.292 126.388C168.292 126.702 171.041 141.451 161.626 142.129C153.844 142.769 148.722 131.848 145.961 124.555C146.965 124.392 147.768 124.279 148.308 124.204C148.572 129.928 156.806 140.309 161.375 139.581C166.509 138.74 169.032 130.932 167.225 126.25ZM148.484 103.153C148.596 102.593 148.847 102.07 149.213 101.631C149.579 101.193 150.049 100.853 150.58 100.642C153.09 100.027 153.09 103.153 155.086 102.977C157.597 102.814 154.798 96.9894 156.957 93.437C159.304 89.5206 168.819 97.4413 176.514 91.5667C177.443 98.1819 178.459 103.329 177.041 110.082C175.786 116.007 173.451 118.191 169.421 119.371C167.766 119.752 166.089 120.037 164.4 120.224C164.266 120.3 164.152 120.409 164.071 120.541C163.99 120.673 163.943 120.823 163.936 120.978C163.936 121.417 165.191 123.664 166.359 126.287C168.103 130.405 165.831 137.886 161.237 138.601C157.973 139.116 151.584 131.798 149.764 126.626C148.961 124.342 149.199 124.254 150.618 115.329C152.613 115.467 153.028 111.563 153.128 109.542C153.149 109.114 153 108.694 152.714 108.375C151.81 107.383 151.069 108.538 149.312 106.341C148.929 105.915 148.653 105.403 148.509 104.848C148.365 104.293 148.356 103.712 148.484 103.153ZM140.538 100.529C142.22 108.211 146.638 113.546 149.676 115.028C149.124 118.555 148.496 122.484 148.333 123.676C141.09 124.04 133.947 125.522 127.157 128.07C124.142 129.224 121.332 130.856 118.834 132.903C117.453 125.748 121.006 111.764 120.567 107.797C120.366 106.115 119.889 104.333 118.244 103.969C123.868 102.199 134.287 101.195 140.538 100.529ZM117.491 104.295C117.791 104.305 118.086 104.376 118.358 104.503C118.63 104.631 118.873 104.812 119.073 105.036C119.639 105.89 119.924 106.899 119.889 107.923C120.165 111.689 116.261 125.572 118.458 133.267C116.342 135.251 114.739 137.719 113.788 140.459C112.784 134.346 111.114 106.517 117.491 104.295ZM72.3895 161.485C72.4899 160.895 73.5694 160.631 74.1594 160.531C78.5152 159.815 87.5656 162.301 87.3648 165.326C87.0635 169.807 88.4443 224.11 87.2644 226.106C85.8585 228.504 78.1762 227.173 75.1134 225.039C73.72 224.072 73.7451 223.244 73.7828 223.407C72.7158 180.665 72.2137 162.464 72.3895 161.485ZM101.487 227.098C102.127 229.232 97.0931 234.14 94.7583 234.792C92.4235 235.445 58.0041 226.533 60.251 224.499C59.2092 225.441 65.8495 219.328 68.7743 218.348C69.0074 218.232 69.2738 218.201 69.5275 218.261C69.8664 218.411 71.197 218.75 73.1175 219.202C73.2305 221.851 73.3058 223.42 73.3058 223.42C74.0464 227.11 85.8585 229.897 87.9171 226.495C88.2323 225.29 88.4009 224.051 88.4192 222.805C90.3398 223.282 100.194 225.679 101.487 227.098ZM115.922 204.114C112.621 204.239 92.072 199.419 88.7581 198.641C88.6954 183.929 88.3941 167.435 88.5447 165.401C88.846 160.782 77.0967 158.271 72.9543 159.627C72.5438 159.717 72.1666 159.92 71.865 160.213C71.5634 160.505 71.3495 160.876 71.2472 161.284C70.971 162.954 72.0505 192.666 72.1133 194.448C70.0672 193.896 50.8993 188.787 50.1085 186.741C49.8951 182.122 47.849 137.459 49.3051 133.229C56.1338 134.936 114.453 146.698 118.558 149.547C119.587 152.372 117.24 200.122 115.922 204.114ZM118.872 203.373C118.872 204.214 117.755 204.503 116.926 204.628C118.282 201.377 120.981 151.907 119.6 148.995C118.219 146.083 55.2425 133.844 49.3553 132.2C49.6172 131.916 49.9359 131.692 50.2907 131.54C50.6455 131.389 51.0283 131.314 51.414 131.321C53.1588 131.195 117.554 145.581 121.295 147.639C121.922 149.447 121.295 162.037 121.207 164.108C120.981 169.104 118.922 202.695 118.872 203.373ZM152.764 194.875C151.295 196.833 146.086 196.595 143.638 196.369H143.036C144.153 194.124 144.785 191.669 144.894 189.164C146.149 188.812 150.743 187.745 151.446 188.875C151.659 189.201 150.982 189.59 150.63 189.779C149.702 190.209 148.73 190.538 147.73 190.758C147.582 190.786 147.451 190.872 147.367 190.997C147.282 191.122 147.25 191.275 147.279 191.423C147.307 191.571 147.393 191.702 147.518 191.787C147.642 191.872 147.796 191.903 147.944 191.875C149.199 191.699 152.626 191.222 153.844 191.636C153.342 192.333 152.622 192.841 151.798 193.08C150.624 193.072 149.452 193.169 148.295 193.369C148.129 193.4 147.98 193.492 147.876 193.626C147.773 193.761 147.723 193.929 147.735 194.098C147.747 194.267 147.822 194.425 147.943 194.543C148.065 194.661 148.226 194.73 148.396 194.737C149.671 194.774 150.943 194.6 152.162 194.222C152.479 194.235 152.791 194.312 153.078 194.448C152.997 194.617 152.877 194.764 152.726 194.875H152.764ZM164.639 194.436C164.586 194.631 164.486 194.811 164.348 194.96C164.211 195.108 164.039 195.221 163.848 195.289C161.526 196.545 155.664 196.319 153.053 196.055C154.019 195.314 154.584 194.109 153.605 193.444C155.538 192.189 155.337 190.846 154.07 190.456C153.249 190.257 152.4 190.198 151.559 190.281C152.35 189.691 152.639 189.025 152.162 188.31C151.471 187.331 149.651 187.456 148.521 187.645C147.984 182.675 147.707 177.681 147.693 172.682C151.044 175.117 162.153 175.192 166.032 172.883C166.221 177.1 164.953 192.603 164.589 194.436H164.639ZM153.869 191.586C153.869 191.586 153.831 191.611 153.831 191.586H153.869ZM180.807 191.862C183.129 185.071 183.455 170.686 183.317 163.493C185.263 166.619 195.87 181.607 195.945 181.732C196.203 182.127 196.506 182.489 196.849 182.812C199.378 185.123 202.217 187.071 205.284 188.599C208.561 190.331 208.824 190.243 208.799 190.381L208.36 192.264C208.146 192.252 182.727 191.862 180.769 191.862H180.807ZM186.217 197.499C188.916 195.616 207.268 196.469 207.469 196.344V196.482C205.711 204.892 205.033 207.93 204.82 209.034C204.933 208.545 205.623 205.269 206.414 201.641C206.966 198.98 207.669 195.816 208.385 192.465C208.711 190.933 208.925 189.954 208.937 189.879C205.498 188.059 200.251 184.921 197.502 182.147C196.811 181.444 183.468 162.954 183.342 162.74C183.217 162.527 183.217 157.016 183.079 156.765C183.052 156.737 183.018 156.717 182.98 156.709C182.942 156.701 182.903 156.704 182.867 156.719C182.831 156.735 182.801 156.76 182.781 156.793C182.76 156.826 182.75 156.865 182.752 156.903C182.627 156.903 182.752 183.741 180.43 191.825L165.969 191.963C166.057 191.26 166.145 190.444 166.246 189.565C172.07 190.306 174.719 183.917 173.175 178.707C172.258 175.845 169.898 175.406 167.2 176.787C167.325 175.115 167.325 173.437 167.2 171.766C167.316 171.477 167.336 171.159 167.257 170.858C167.178 170.557 167.004 170.29 166.76 170.096C164.89 168.339 159.656 168.15 157.107 168.15C154.559 168.15 149.312 168.351 147.454 170.096C147.292 170.222 147.162 170.386 147.078 170.573C146.124 172.293 147.956 187.369 148.182 187.695C147.089 187.913 146.012 188.202 144.956 188.561V186.553C144.881 182.172 130.872 179.737 130.395 177.239C130.232 176.385 129.968 174.477 129.667 172.217C127.973 159.815 128.224 160.292 127.948 160.292C127.901 160.292 127.856 160.311 127.823 160.344C127.79 160.377 127.772 160.422 127.772 160.468C127.772 160.807 129.127 174.464 129.617 177.364C130.107 180.264 144.015 183.076 144.078 186.553C144.078 189.264 143.475 195.992 141.128 196.959C139.709 197.561 128.738 198.114 119.989 195.038C120.177 192.603 123.667 149.008 121.985 147.075C121.345 146.334 113.826 144.451 112.872 144.212C116.638 135.677 119.424 128.647 145.609 124.542C146.336 126.98 147.225 129.366 148.27 131.685C150.931 137.371 155.438 143.51 161.676 142.982C168.844 142.367 169.999 134.597 168.857 127.505C168.781 127.003 168.706 126.676 168.643 126.388C172.087 126.732 175.511 127.26 178.899 127.969C184.811 129.225 192.079 131.61 196.134 136.103C200.514 140.924 204.343 148.367 207.029 154.317C210.895 162.878 210.87 165.088 214.197 170.021C211.858 177.401 209.897 184.897 208.322 192.477C207.82 194.825 207.067 198.402 206.351 201.653C205.31 206.674 204.682 209.85 204.745 209.185C204.632 209.863 204.745 209.838 204.745 210.001C200.652 208.176 196.704 206.044 192.933 203.624C191.615 202.746 184.886 198.44 186.217 197.473V197.499ZM167.099 179.347C167.099 178.695 167.175 178.092 167.2 177.464C169.472 176.548 171.493 176.686 172.108 179.059C173.363 183.364 171.38 189.101 166.321 189.101C166.321 188.498 166.534 186.779 166.559 186.59C172.334 187.369 172.296 176.799 167.099 179.347ZM166.61 186.05C166.785 184.067 166.936 181.971 167.062 180C167.663 179.814 168.306 179.814 168.907 180C170.401 180.54 170.162 185.724 166.547 186.05H166.61ZM207.669 213.905C202.839 212.325 198.166 210.299 193.711 207.854C192.456 207.189 185.953 203.649 185.514 202.281C185.134 201.059 185.095 199.757 185.401 198.515C187.083 201.792 197.753 207.302 201.18 208.921C202.749 209.662 204.368 210.291 206.025 210.804C211.824 212.876 236.704 209.549 242.817 208.796C242.892 209.06 243.419 211.08 243.62 211.809C238.298 212.424 212.665 215.223 207.607 213.905H207.669ZM263.755 245.475C261.922 247.031 250.926 248.337 245.742 246.73C243.859 246.14 243.482 245.538 243.03 243.63C242.619 241.559 242.358 239.461 242.252 237.353C244.825 238.935 249.545 239.336 252.57 239.424C257.127 239.525 261.608 239.424 265.274 237.353C265.198 238.684 264.771 244.609 263.755 245.475ZM265.311 236.864C262.835 237.923 260.171 238.474 257.478 238.483C253.888 238.659 245.478 238.634 242.227 236.901C242.089 234.541 242.001 232.018 241.963 229.671C243.219 231.177 249.909 231.855 252.583 231.943C257.353 232.043 261.784 231.943 265.6 229.684C265.6 229.558 265.562 232.533 265.324 236.864H265.311ZM265.6 229.244C259.324 232.407 243.746 230.976 241.951 229.244V221.524C245.942 222.943 261.721 222.842 265.675 221.524C265.65 222.968 265.663 225.905 265.612 229.244H265.6ZM263.089 220.796C263.134 220.809 263.182 220.804 263.224 220.783C263.266 220.762 263.298 220.727 263.315 220.683C263.315 220.683 263.315 220.457 263.391 220.056C264.2 220.167 264.998 220.347 265.776 220.595C263.027 221.851 246.482 221.964 242.352 220.746C242.324 220.737 242.3 220.72 242.282 220.696C242.265 220.672 242.255 220.644 242.255 220.614C242.255 220.585 242.265 220.556 242.282 220.532C242.3 220.509 242.324 220.491 242.352 220.482C243.503 220.17 244.679 219.96 245.867 219.855C245.95 220.204 246.077 220.541 246.244 220.859C246.344 220.959 246.507 220.972 246.495 220.721C246.482 220.47 242.365 204.214 241.737 200.637C242.379 200.851 243.064 200.904 243.731 200.793C244.399 200.681 245.029 200.408 245.566 199.996C246.947 203.863 251.353 221.261 251.616 221.261C251.664 221.257 251.709 221.236 251.741 221.201C251.774 221.166 251.792 221.12 251.792 221.072L251.428 219.378H253.16C253.16 219.616 253.298 220.834 253.311 220.922C253.323 221.01 253.687 221.223 253.662 220.759C253.662 219.629 252.608 200.913 252.583 200.574C252.763 200.487 252.953 200.42 253.148 200.373C253.286 201.051 257.704 218.951 258.043 220.344C258.043 220.47 258.043 220.683 258.282 220.633C258.52 220.583 258.42 220.357 258.282 219.541L260.202 219.679V219.892C260.202 220.093 260.516 220.043 260.554 219.892C260.554 220.031 262.889 195.942 263.064 194.021C263.395 194.272 263.775 194.45 264.18 194.543C264.585 194.636 265.004 194.642 265.412 194.561C265.386 194.749 262.813 220.708 263.077 220.796H263.089ZM251.792 195.842C251.643 194.634 251.116 193.505 250.286 192.616C252.005 193.13 252.369 193.507 252.796 194.687C253.136 195.627 253.226 196.639 253.06 197.624C252.89 198.244 252.89 198.899 253.06 199.519C252.854 199.567 252.653 199.63 252.457 199.708C251.679 197.486 249.947 197.511 249.947 195.277C249.944 194.469 249.826 193.666 249.595 192.892C250.203 193.993 250.869 195.062 251.591 196.093C251.717 196.256 251.955 196.017 251.805 195.842H251.792ZM252.42 211.683C252.482 212.298 252.972 217.633 253.097 218.989H251.302C250.926 217.294 250.361 214.784 249.721 212.097L252.42 211.683ZM252.344 210.716L249.482 211.093C249.231 210.051 248.968 208.997 248.704 207.955C249.859 207.792 250.989 207.616 252.081 207.44C252.131 207.98 252.307 210.164 252.357 210.716H252.344ZM256.248 210.139C256.047 209.185 255.558 207.026 255.52 206.9C256.612 206.712 260.328 206.072 261.093 205.921C261.093 206.461 260.88 208.746 260.83 209.323C259.612 209.587 258.056 209.863 256.223 210.139H256.248ZM260.78 210.139C260.554 213.39 260.202 218.825 260.19 219.127C259.537 219.127 258.847 219.102 258.118 219.051C257.817 217.533 256.524 211.445 256.436 211.03C258.131 210.691 259.587 210.39 260.792 210.101L260.78 210.139ZM263.177 192.98C263.33 191.389 263.578 189.809 263.918 188.247C264.253 188.147 264.606 188.123 264.951 188.177C265.297 188.231 265.626 188.363 265.914 188.561C265.838 190.139 265.671 191.71 265.412 193.268C265.299 193.708 265.273 193.821 264.985 193.858C264.42 193.896 263.278 193.419 263.19 192.942L263.177 192.98ZM264.822 207.942C264.935 207.013 265.048 206.072 265.148 205.131C265.892 204.975 266.622 204.76 267.332 204.49C266.936 205.891 266.05 207.103 264.834 207.905L264.822 207.942ZM266.918 203.448C266.388 203.659 265.843 203.827 265.286 203.951C265.512 201.842 266.843 189.565 266.843 188.699C266.843 187.444 264.608 186.979 263.453 187.444C263.064 187.62 262.951 188.36 262.838 189.013C262.211 192.515 261.47 201.252 261.181 204.804L255.294 205.884C253.825 199.482 253.951 199.833 253.788 199.67C253.676 199.563 253.528 199.501 253.374 199.494C253.258 198.935 253.288 198.356 253.461 197.812C253.721 196.727 253.686 195.591 253.361 194.524C253.194 193.747 252.747 193.059 252.106 192.59C251.084 192.049 249.982 191.676 248.842 191.486C248.782 191.47 248.719 191.468 248.659 191.481C248.598 191.494 248.542 191.521 248.494 191.561C248.446 191.6 248.408 191.65 248.384 191.707C248.359 191.764 248.348 191.826 248.353 191.887C248.379 191.994 248.413 192.099 248.453 192.201C249.432 194.536 248.754 195.603 249.432 196.996C250.11 198.39 251.252 198.603 251.666 200.21C251.666 200.335 252.018 206.135 252.03 206.486L248.478 207.051C248.227 206.097 246.507 199.306 245.829 198.641C244.574 197.386 240.984 198.791 240.808 199.896C240.695 200.524 242.415 207.252 242.578 207.892C236.114 208.834 229.26 209.687 223.197 210.252C220.548 210.491 204.368 211.972 205.272 209.323C206.527 203.524 209.038 192.879 209.54 190.645V190.469C209.54 190.281 209.628 190.092 209.54 190.645C209.54 190.456 209.615 190.343 209.64 190.281L212.778 178.142C213.193 176.649 216.042 166.493 217.486 165.778C220.686 164.196 273.295 157.393 277.738 160.368C278.491 163.594 269.24 201.917 266.93 203.461L266.918 203.448Z" fill="white"/>
<path d="M165.229 102.487V101.521C165.229 101.364 165.167 101.214 165.056 101.104C164.945 100.993 164.795 100.931 164.639 100.931C164.481 100.931 164.33 100.993 164.217 101.103C164.105 101.213 164.04 101.363 164.036 101.521V102.651C164.064 102.8 164.148 102.933 164.272 103.021C164.395 103.11 164.548 103.148 164.698 103.127C164.848 103.106 164.985 103.028 165.079 102.909C165.173 102.789 165.218 102.639 165.204 102.487H165.229ZM245.453 179.736C245.089 179.385 244.574 178.971 244.097 179.121C243.306 179.372 242.516 181.381 242.177 182.209C241.225 184.682 240.469 187.225 239.917 189.816C240.432 191.147 249.118 189.402 250.298 188.825C250.675 188.649 250.625 188.197 250.499 187.795C249.257 184.857 247.553 182.137 245.453 179.736ZM240.256 189.653C240.482 188.611 243.344 180.628 244.323 179.9C245.842 180.766 248.892 186.088 249.708 188.097C248.578 188.548 240.909 190.494 240.256 189.653ZM138.052 216.277C137.927 216.365 135.19 218.097 135.065 218.223C135.035 218.235 135.01 218.256 134.992 218.283C134.974 218.31 134.964 218.341 134.964 218.374C134.964 218.406 134.974 218.437 134.992 218.464C135.01 218.491 135.035 218.512 135.065 218.524C135.768 218.725 138.115 218.989 138.831 219.064C156.003 214.758 156.116 214.758 155.902 214.758C156.018 214.743 156.123 214.683 156.195 214.592C156.268 214.501 156.302 214.385 156.291 214.269C156.291 214.055 155.952 212.574 155.852 212.122L138.052 216.277ZM171.317 97.2404C171.668 97.2404 172.359 97.4036 172.497 97.4162C173.259 97.4952 174.014 97.6295 174.756 97.8179L175.886 98.0187C175.929 98.0294 175.974 98.0246 176.014 98.0052C176.054 97.9858 176.086 97.9529 176.104 97.9125C176.122 97.872 176.125 97.8265 176.113 97.7839C176.1 97.7414 176.073 97.7045 176.037 97.6798C175.382 97.1249 174.587 96.7602 173.74 96.6254C172.9 96.4453 172.026 96.5196 171.229 96.8388C171.203 96.8445 171.178 96.8554 171.156 96.8709C171.133 96.8863 171.114 96.9059 171.1 96.9286C171.085 96.9514 171.075 96.9767 171.071 97.0033C171.066 97.0299 171.066 97.0572 171.072 97.0835C171.078 97.1099 171.089 97.1349 171.104 97.157C171.12 97.1792 171.139 97.1981 171.162 97.2127C171.185 97.2273 171.21 97.2372 171.237 97.242C171.263 97.2467 171.291 97.2462 171.317 97.2404ZM161.375 98.3451C161.714 98.2698 162.442 98.1568 162.63 98.1317C163.391 97.9655 164.163 97.8565 164.94 97.8053L166.195 97.6672C166.245 97.6672 166.293 97.6474 166.329 97.6121C166.364 97.5768 166.384 97.5289 166.384 97.4789C166.384 97.429 166.364 97.3811 166.329 97.3458C166.293 97.3105 166.245 97.2906 166.195 97.2906C165.386 96.9476 164.499 96.833 163.629 96.9591C162.759 97.0852 161.941 97.4474 161.262 98.0062C161.232 98.0062 161.203 98.0132 161.176 98.0268C161.15 98.0404 161.127 98.0601 161.109 98.0843C161.092 98.1085 161.081 98.1365 161.076 98.166C161.072 98.1955 161.074 98.2257 161.084 98.254C161.093 98.2823 161.109 98.3079 161.13 98.3288C161.152 98.3497 161.178 98.3653 161.206 98.3742C161.235 98.3831 161.265 98.3851 161.294 98.38C161.324 98.3749 161.351 98.363 161.375 98.3451ZM173.928 100.529C173.771 100.529 173.621 100.591 173.511 100.702C173.4 100.813 173.338 100.963 173.338 101.119V102.249C173.36 102.405 173.442 102.547 173.568 102.642C173.694 102.738 173.853 102.779 174.009 102.757C174.166 102.736 174.307 102.653 174.403 102.527C174.498 102.401 174.539 102.242 174.518 102.086V101.119C174.52 101.041 174.505 100.964 174.476 100.891C174.447 100.819 174.404 100.753 174.349 100.698C174.294 100.643 174.228 100.6 174.156 100.571C174.083 100.542 174.006 100.528 173.928 100.529ZM76.5067 209.511C78.2515 210.076 82.3186 211.595 84.1889 211.369C84.4149 211.369 84.6659 211.143 84.8291 210.742C86.0844 207.917 85.1806 193.557 84.7287 190.783C84.4149 188.787 77.1971 186.314 75.4523 187.733C74.3225 188.649 74.8874 199.281 75.0129 200.762C75.3393 204.34 75.0004 209.022 76.5067 209.511ZM76.0172 188.398C77.3728 187.419 83.6617 189.741 83.8626 190.908C84.1764 192.879 85.3438 209.449 84.0885 210.742C82.4692 210.98 78.1762 209.662 76.5569 209.16C75.4146 208.783 75.8038 203.787 75.6155 200.699C75.5276 198.616 75.3895 190.343 76.0172 188.398ZM165.216 110.006C165.185 109.991 165.151 109.983 165.116 109.983C165.081 109.983 165.047 109.991 165.015 110.006C164.702 110.119 164.513 110.471 164.463 110.986C164.423 112.315 164.869 113.614 165.718 114.638C165.918 114.91 166.169 115.139 166.459 115.312C166.748 115.484 167.069 115.596 167.403 115.642C167.737 115.688 168.077 115.666 168.402 115.578C168.727 115.489 169.031 115.336 169.296 115.128C170.053 114.505 170.647 113.708 171.028 112.806C171.063 112.735 171.08 112.658 171.08 112.58C171.08 112.501 171.063 112.424 171.028 112.354C170.639 111.751 169.71 112.605 165.216 110.006ZM165.103 110.433C166.467 111.595 168.064 112.451 169.785 112.944C167.099 117.513 164.4 111.35 165.103 110.433ZM168.179 107.483C168.982 107.634 171.204 107.358 171.681 106.542C171.919 106.153 171.681 106.027 171.154 104.421C170.679 103.025 170.121 101.658 169.484 100.328C169.258 99.9769 168.97 100.328 169.133 100.542C169.482 102.466 170.037 104.348 170.79 106.153C169.881 106.578 168.951 106.955 168.003 107.283C168.001 107.307 168.004 107.332 168.012 107.356C168.02 107.379 168.033 107.401 168.049 107.419C168.065 107.438 168.085 107.453 168.108 107.464C168.13 107.475 168.154 107.482 168.179 107.483ZM214.473 238.018C219.18 235.031 215.515 232.282 212.402 233.587C211.636 232.194 211.46 232.081 209.891 232.156C201.745 232.571 164.953 241.081 164.601 241.219C162.743 241.985 167.463 253.069 169.334 254.525C169.76 254.852 169.622 254.914 174.229 254.011C174.53 256.747 175.723 261.542 178.51 261.693C179.808 261.455 181.073 261.059 182.275 260.513C184.603 262.829 187.081 264.988 189.694 266.977C192.581 268.911 211.033 247.358 213.795 244.847C214.586 244.583 215.289 244.408 215.201 242.45C217.586 242.01 219.431 240.542 218.163 238.433C217.31 237.152 215.829 237.353 214.473 238.018ZM214.912 234.604C215.427 234.792 215.691 234.993 215.527 235.508C215.189 236.295 214.694 237.004 214.071 237.592C213.738 236.571 213.348 235.569 212.904 234.592C213.554 234.357 214.265 234.362 214.912 234.604ZM201.556 234.19C202.021 236.387 202.334 237.579 202.924 239.6L194.225 241.244C193.725 239.428 193.143 237.636 192.481 235.872C194.125 235.558 200.213 234.416 201.556 234.19ZM188.69 250.948C189.15 252.525 189.83 254.029 190.711 255.416C188.301 256.584 186.029 257.651 184.096 258.529C183.402 256.424 182.427 254.423 181.196 252.58L188.69 250.948ZM185.137 250.948C184.713 248.767 184.177 246.609 183.531 244.483L193.573 242.311C194.12 244.438 194.783 246.533 195.556 248.588C192.104 249.316 188.501 250.132 185.137 250.897V250.948ZM189.317 251.01C189.179 250.81 188.326 251.111 197.564 248.989C197.728 249.922 198.073 250.814 198.581 251.613L191.225 255.216C190.789 253.716 190.147 252.284 189.317 250.96V251.01ZM198.104 248.851C202.874 247.747 207.255 246.692 210.28 245.889L199.196 251.299C198.991 250.408 198.625 249.561 198.117 248.801L198.104 248.851ZM195.983 248.462C195.58 246.32 195.069 244.201 194.451 242.111L203.025 240.002C203.025 240.065 203.602 241.998 203.866 242.826C203.991 243.203 205.058 246.24 205.121 246.291C202.523 246.868 196.184 248.362 195.97 248.412L195.983 248.462ZM192.104 235.997C192.518 238.282 192.907 239.763 193.359 241.47L183.317 243.68C182.727 241.684 182.326 240.378 181.459 238.119C183.418 237.667 190.598 236.236 192.117 235.947L192.104 235.997ZM181.045 238.194C181.535 240.705 181.899 242.023 182.426 243.881C181.585 244.069 174.719 245.789 174.719 245.789C174.468 245.789 174.568 246.178 174.819 246.127C174.819 246.127 182.263 244.747 182.639 244.659C182.639 244.659 183.179 246.818 184.723 251.048L176.627 252.856C175.469 248.477 174.013 244.182 172.271 240.002L181.045 238.194ZM169.685 254.098C167.777 252.667 163.409 242.123 164.727 241.546C164.727 241.546 167.601 240.918 171.919 240.014C172.996 244.413 174.431 248.717 176.212 252.881C169.61 254.362 169.898 254.211 169.698 254.048L169.685 254.098ZM178.472 260.776C176.351 260.776 175.083 256.195 174.706 254.111C174.706 253.872 174.041 254.111 180.606 252.743C180.932 252.68 180.418 252.592 181.987 255.856C182.437 256.881 182.992 257.857 183.644 258.768C181.992 259.559 180.28 260.214 178.522 260.726L178.472 260.776ZM190.171 266.149C187.619 264.361 185.167 262.433 182.828 260.375C184.987 259.483 187.435 258.341 189.543 257.337C191.194 259.256 193.065 260.975 195.117 262.458C194.263 263.187 191.363 265.873 190.221 266.099L190.171 266.149ZM195.481 262.082C193.823 260.231 191.966 258.568 189.945 257.124L197.828 253.245C198.927 254.372 200.198 255.317 201.594 256.044C199.62 258.087 197.598 260.083 195.531 262.032L195.481 262.082ZM202.021 255.642C200.974 254.574 199.782 253.657 198.481 252.918C203.878 250.195 206.979 248.538 212.013 245.751C209.778 247.722 204.104 253.521 202.071 255.592L202.021 255.642ZM213.996 243.843C213.456 244.232 206.063 246.04 205.422 246.19C204.623 242.084 203.451 238.058 201.92 234.165C204.355 233.751 209.176 232.91 210.971 233.11C211.213 233.396 211.424 233.707 211.598 234.039C210.742 234.621 210.033 235.395 209.527 236.299C209.402 236.613 209.728 236.776 209.891 236.625C210.519 235.961 211.253 235.405 212.063 234.981C212.632 236.158 213.127 237.369 213.544 238.608C212.429 239.371 211.423 240.283 210.556 241.32C210.393 241.521 210.444 241.671 210.556 241.734C210.858 241.91 210.883 241.458 213.845 239.7C214.145 240.717 214.313 241.767 214.347 242.826C214.285 243.052 214.247 243.629 214.046 243.793L213.996 243.843ZM217.122 240.479C216.561 241.121 215.855 241.62 215.063 241.935C214.947 241.04 214.767 240.155 214.523 239.286C215.339 238.872 216.607 238.345 217.034 239.111C217.194 239.287 217.294 239.51 217.319 239.747C217.344 239.984 217.292 240.223 217.172 240.429L217.122 240.479Z" fill="white"/>
</svg>
